<?xml version="1.0" encoding="utf-8"?>
<!-- Generator: Adobe Illustrator 22.0.1, SVG Export Plug-In . SVG Version: 6.00 Build 0)  -->
<svg version="1.1" id="Capa_1" xmlns="http://www.w3.org/2000/svg" xmlns:xlink="http://www.w3.org/1999/xlink" x="0px" y="0px"
	 viewBox="0 0 792 612" style="enable-background:new 0 0 792 612;" xml:space="preserve">
<style type="text/css">
	.st0{fill:#1D120E;}
	.st1{fill:#D41D29;}
	.st2{fill:#4FA735;}
</style>
<g>
	<g>
		<path class="st0" d="M395.4,122.7c-0.1-1.5-1-2.2-2.6-2.1c-1.7,0.1-2.5,0.8-2.4,2.1c0.1,1.4,0.9,2,2.6,2.1
			c3.2-0.2,4.9,1.1,5.1,3.8c0.1,2.8-1.5,4.4-4.7,4.5c-3.2,0.2-4.9-1.2-5-4l1.8-0.1c0.1,1.6,1.1,2.3,3.1,2.2c2-0.1,2.9-0.9,2.9-2.4
			c-0.1-1.5-1.1-2.2-3.1-2.2c-2.9,0-4.4-1.2-4.6-3.7c-0.1-2.5,1.2-3.9,4.1-4c2.9-0.2,4.4,1.1,4.6,3.6L395.4,122.7z"/>
		<path class="st0" d="M410.8,120.5c-0.2,0-0.3,0.1-0.3,0.3l-0.2,12l-1.8,0l0.2-12c0-0.2-0.1-0.3-0.3-0.3l-3.6-0.1l0-1.9l9.6,0.1
			l0,1.9L410.8,120.5z"/>
		<path class="st0" d="M428.7,129.2l0.8-9.4l1.8,0.2l-0.8,9.4c-0.1,1.3-0.7,2.4-1.7,3.3c-1,0.9-2.2,1.2-3.5,1.1
			c-1.3-0.1-2.4-0.7-3.3-1.7c-0.9-1-1.2-2.2-1.1-3.5l0.8-9.4l1.8,0.2l-0.8,9.4c-0.1,0.8,0.2,1.5,0.7,2.2c0.5,0.6,1.2,1,2,1
			c0.8,0.1,1.5-0.2,2.2-0.7C428.3,130.6,428.7,130,428.7,129.2z"/>
		<path class="st0" d="M441.6,135.7l-5.2-0.8l2.2-14.1l5.2,0.8c1.2,0.2,2.1,0.8,2.8,1.7c0.7,1,1,2,0.8,3.2l-0.9,5.5
			c-0.2,1.2-0.8,2.1-1.7,2.8C443.9,135.6,442.8,135.9,441.6,135.7z M443.6,123.5l-3.2-0.5c-0.2,0-0.2,0-0.3,0.2l-1.6,10
			c0,0.2,0,0.2,0.2,0.3l3.2,0.5c0.7,0.1,1.3,0,1.9-0.4c0.6-0.4,0.9-0.9,1-1.6l0.9-5.5c0.1-0.7,0-1.3-0.4-1.9
			C444.8,123.9,444.3,123.6,443.6,123.5z"/>
		<path class="st0" d="M461,125l-3.2,13.9l-1.8-0.4l3.2-13.9L461,125z"/>
		<path class="st0" d="M469.1,136.8l1.4-4.4c0.4-1.3,1.2-2.2,2.3-2.8c1.2-0.6,2.4-0.7,3.7-0.3c1.3,0.4,2.2,1.2,2.8,2.3
			c0.6,1.2,0.7,2.4,0.3,3.7l-1.4,4.4c-0.4,1.3-1.2,2.2-2.3,2.8c-1.2,0.6-2.4,0.7-3.7,0.3c-1.3-0.4-2.2-1.2-2.8-2.3
			C468.8,139.3,468.7,138.1,469.1,136.8z M472.2,132.9l-1.4,4.4c-0.2,0.8-0.2,1.5,0.2,2.3c0.4,0.7,1,1.2,1.7,1.4
			c0.8,0.2,1.5,0.2,2.3-0.2c0.7-0.4,1.2-1,1.4-1.7l1.4-4.4c0.2-0.8,0.2-1.5-0.2-2.3c-0.4-0.7-1-1.2-1.7-1.4
			c-0.8-0.2-1.5-0.2-2.3,0.2C472.9,131.6,472.5,132.2,472.2,132.9z"/>
		<path class="st0" d="M499.5,141.4c0-0.3-0.1-0.6-0.2-1c-0.3-0.8-0.9-1.3-1.6-1.6c-0.8-0.3-1.5-0.3-2.3,0c-0.8,0.3-1.3,0.8-1.6,1.6
			l-1.8,4.3c-0.3,0.8-0.3,1.5,0,2.3c0.3,0.8,0.8,1.3,1.6,1.6c0.8,0.3,1.5,0.3,2.3,0c0.3-0.1,0.6-0.3,0.8-0.5l1.8,0.8
			c-0.5,0.6-1.1,1.1-1.9,1.5c-1.2,0.5-2.5,0.5-3.7,0c-1.2-0.5-2.1-1.4-2.6-2.6c-0.5-1.2-0.5-2.5,0-3.7l1.8-4.3
			c0.5-1.2,1.4-2.1,2.6-2.6c1.2-0.5,2.5-0.5,3.7,0c1.2,0.5,2.1,1.4,2.6,2.6c0.3,0.8,0.4,1.6,0.3,2.4L499.5,141.4z"/>
		<path class="st0" d="M511.2,151.7c-0.1,0-0.2,0-0.2,0.2l0.5,7.1l-2-1l-0.5-7.2l-1.5-0.7c-0.1-0.1-0.2,0-0.3,0.1l-2.7,5.4l-1.7-0.8
			l6.4-12.7l4.5,2.2c1,0.5,1.7,1.3,2,2.3c0.4,1.1,0.3,2.1-0.2,3.1c-0.5,1-1.3,1.7-2.3,2C512.5,151.8,511.8,151.9,511.2,151.7z
			 M513.9,148.7c0.3-0.5,0.3-1.1,0.1-1.7c-0.2-0.6-0.6-1-1.1-1.3l-2.6-1.3c-0.1-0.1-0.2,0-0.2,0.1l-1.8,3.6c-0.1,0.1,0,0.2,0.1,0.2
			l2.6,1.3c0.5,0.3,1.1,0.3,1.7,0.1C513.3,149.6,513.7,149.3,513.9,148.7z"/>
		<path class="st0" d="M531.7,156.2l-6.5-3.8c-0.1-0.1-0.2,0-0.3,0.1l-2,3.4c-0.1,0.1-0.1,0.2,0.1,0.3l4.9,2.9l-0.9,1.6l-4.9-2.9
			c-0.1-0.1-0.2-0.1-0.3,0.1l-2,3.3c-0.1,0.1-0.1,0.2,0.1,0.3l6.5,3.8l-0.9,1.6l-8.3-4.9l7.2-12.3l8.3,4.9L531.7,156.2z"/>
		<path class="st0" d="M530.8,170.3l11.3-9.5l1.5,1l-4.9,13.9l-1.5-1l0.6-1.9c0.1-0.2,0-0.4-0.1-0.5l-3.4-2.3
			c-0.2-0.1-0.3-0.1-0.5,0l-1.5,1.3L530.8,170.3z M535.8,168.4c-0.1,0.1-0.1,0.1-0.1,0.2c0,0.1,0,0.1,0.1,0.2l2.5,1.7
			c0.1,0.1,0.1,0.1,0.2,0c0.1,0,0.1-0.1,0.1-0.2l1.9-5.4c0.1-0.2,0-0.3-0.1-0.3c-0.1-0.1-0.2-0.1-0.4,0.1L535.8,168.4z"/>
		<path class="st0" d="M556.2,173.6c-0.2-0.1-0.3-0.1-0.4,0.1l-7.5,9.4l-1.4-1.2l7.5-9.4c0.1-0.2,0.1-0.3,0-0.5l-2.8-2.2l1.2-1.4
			l7.5,6l-1.2,1.4L556.2,173.6z"/>
		<path class="st0" d="M570,183l-9.6,10.5l-1.4-1.3l9.6-10.5L570,183z"/>
		<path class="st0" d="M579.4,192.1l-4.9,8.2c-0.4,0.6-0.2,0.8,0.4,0.5l8.5-4.4l1.3,1.3l-13,7l-1.3-1.3l7.7-12.6L579.4,192.1z"/>
		<path class="st0" d="M582.2,209.3l3.6-2.9c1-0.8,2.2-1.2,3.5-1.1c1.3,0.1,2.4,0.7,3.2,1.7c0.8,1,1.2,2.2,1.1,3.5
			c-0.1,1.3-0.7,2.4-1.7,3.2l-3.6,2.9c-1,0.8-2.2,1.2-3.5,1.1c-1.3-0.1-2.4-0.7-3.2-1.7c-0.8-1-1.2-2.2-1.1-3.5
			C580.6,211.2,581.2,210.1,582.2,209.3z M587,207.8l-3.6,2.9c-0.6,0.5-1,1.2-1.1,2c-0.1,0.8,0.1,1.5,0.7,2.2c0.5,0.6,1.2,1,2,1.1
			c0.8,0.1,1.5-0.1,2.2-0.7l3.6-2.9c0.6-0.5,1-1.2,1.1-2c0.1-0.8-0.1-1.5-0.7-2.2c-0.5-0.6-1.2-1-2-1.1
			C588.3,207,587.6,207.3,587,207.8z"/>
	</g>
	<g>
		<path class="st0" d="M309,126.3c0.5-0.1,1-0.2,1.6-0.3c0.6-0.1,0.9,0.3,0.8,1.1c-0.1,0.7,0,1.4,0.1,2.1c0.1,0.6-0.2,1.4-0.8,2.4
			c-0.1,0.2-0.1,0.4-0.2,0.6c-0.1,0.2-0.1,0.3,0,0.5c-0.2,1.5-0.4,2.9-0.6,4.2c-0.2,1.3-0.4,2.7-0.6,4c-0.2,1.8-0.5,3.6-0.7,5.3
			c-0.2,1.8-0.4,3.6-0.6,5.3c-0.3,2.2-0.6,4.4-0.8,6.6c-0.2,2.2-0.4,4.4-0.7,6.6c-0.1,1.1-0.2,2.3-0.4,3.4c-0.2,1.1-0.3,2.2-0.4,3.4
			c-0.2,1.2-0.2,2.3-0.2,3.6c0,1.2-0.1,2.5-0.4,3.7c-0.1,1.3-0.3,2.6-0.5,3.9c-0.2,1.4-0.4,2.7-0.7,4.1c-0.3,2.1-0.5,4.1-0.6,6.1
			c-0.1,2-0.4,4-0.8,6.1l-1.1,14.3c0,0.8-0.1,1.4-0.2,1.9c0,0.8-0.1,1.7-0.1,2.6c0,0.9-0.1,1.8-0.2,2.6c0,0.8-0.1,1.6-0.3,2.3
			c-0.2,0.7-0.3,1.5-0.4,2.3c0,0.1-0.1,0.3-0.3,0.7c-1.2,1-1.3,1.4-0.2,1.4c0.5,0.1,0.6,0.6,0.2,1.5c-0.2,0-0.4,0-0.7,0
			c-0.2,0.1-0.5,0.1-0.7,0c-0.2-0.1-0.4-0.2-0.6-0.3c-0.2-0.1-0.2-0.2-0.1-0.3c0.2-0.5,0.3-0.9,0.4-1.2c0-0.4,0-0.7,0-1.1
			c0-0.4,0-0.7,0.1-1.1c0.1-0.4,0.4-0.8,0.9-1.3c0.1,0,0.1-0.3,0-0.8c0-0.5-0.1-1-0.2-1.4c-0.1-0.4-0.1-0.9,0-1.4
			c0.1-0.4,0.2-0.9,0.3-1.3c0.1-0.4-0.1-0.7-0.5-0.8c-0.1-0.1-0.1-0.2-0.1-0.4c0-0.2,0.1-0.4,0.1-0.6c0.1-0.5,0.1-1.1,0.1-1.7
			c0-0.6,0-1.2-0.1-1.7l1.2-11.9c0.3-1.7,0.4-3.3,0.5-4.8c0.1-1.5,0-2.9-0.1-4.3l-0.6,0.3c-0.1,0.6-0.1,1.3-0.2,2.2
			c-0.1,0.5-0.2,1-0.2,1.4c-0.1,0.4-0.1,0.8-0.1,1.2c-0.1,0.5-0.2,1-0.2,1.3c0,0.4-0.1,0.7-0.1,1c0,0.5,0.1,1.3,0.3,2.2l-1.2,11.1
			c-0.1,0.5-0.1,0.9,0,1.2c0.1,0.3,0,0.6-0.1,0.8c-0.6,1.3-0.9,2.2-0.9,2.9c0,0.7,0.2,1.4,0.6,2.2c0.1,0.4-0.1,0.9-0.5,1.5
			c-0.9,0.9-1,1.5-0.5,1.9c0.1,0.2,0.1,0.4,0,0.6c0,1.8-0.2,3.9-0.6,6.2c-0.1,0.6-0.2,1.2-0.3,1.9c-0.1,0.6-0.3,1.3-0.5,1.9
			c-0.1,0.6-0.1,1-0.1,1.1c0,0.4,0,0.8,0,1.2c0,0.4-0.1,0.8-0.2,1.2c0.1,0.5,0.1,1-0.1,1.7l0.1,0c0.6-0.1,1.2-0.1,1.8,0.1
			c-0.1-0.7-0.1-1.3,0.2-1.7c0.3-0.6,0.4-1,0.4-1.3c0-0.3,0-0.7,0-1.1c-0.1-1.4-0.1-2.9,0-4.4c0-0.2,0-0.4,0.3-0.6
			c0.2-0.2,0.4-0.4,0.5-0.7c0.1,0.3,0.1,0.6,0.1,1c0,0.4,0.1,0.6,0.2,0.6c0.9-0.4,1.4-0.4,1.3,0c-0.1,0.4-0.2,0.8-0.3,1.3
			c-0.1,0.5-0.1,1-0.1,1.6c0,0.5,0,1-0.1,1.6c0.1,0.5,0.1,0.9-0.1,1.3c-0.2,0.4-0.7,0.8-1.7,1.2c0.8,0.5,1.3,1.1,1.3,1.7
			c0.2,0.1,0.4,0.1,0.5,0.1c0.1,0,0.3,0,0.5,0.1c1,0,1.9,0.2,2.6,0.5c0.7,0.4,1.3,0.8,1.9,1.3c0.7,0.6,1.4,1.1,2.1,1.7
			c0.7,0.6,1.4,1.1,2.1,1.7c0.1,0.2,0.3,0.4,0.4,0.6c0.1,0.2,0.2,0.4,0.3,0.6c0.1,0.6,0.2,1.2,0.2,1.9c0,0.7,0.3,1.2,0.9,1.6
			c0.1,0,0.2,0.1,0.2,0.4c-0.3,1-0.6,2-0.8,2.9c-0.3,1-0.5,1.9-0.9,2.8c-0.2,0.2-0.4,0.4-0.7,0.6c-0.3,0.2-0.6,0.3-0.9,0.5
			c-0.2-0.3-0.3-0.5-0.5-0.8c-0.2-0.3-0.3-0.6-0.3-0.8c0-0.5,0-0.9,0.1-1.3c0.1-0.4,0.2-0.8,0.2-1.4c0.1-2.5-1.1-3.4-3.7-2.9
			c-0.7,0.2-1.3,0.4-2,0.3c-0.7,0-1.3,0.1-2,0.2c-0.2-0.1-0.6,0-1.2,0.1l-0.1,0.2c0,1.1,0,2.2-0.2,3.3c-0.2,1.5-0.4,2.9-0.5,4.2
			c-0.1,1.3-0.3,2.7-0.5,4.2c-0.2,1.4-0.4,2.7-0.5,3.9c-0.1,1.3-0.3,2.6-0.4,3.9c-0.4,0.1-0.7,0-0.8-0.3c-0.2-0.3-0.3-0.6-0.3-1.1
			c0-0.4,0-0.9,0-1.5c0-0.5,0.2-1,0.4-1.3c0-1.7,0-3.4,0-5c0-1.6,0-3.1-0.1-4.6c1.5-1.2,2.2-2.3,2.2-3.2c-0.2-0.5-0.4-0.9-0.5-1.2
			c-0.1-0.3-0.3-0.7-0.5-1.1c-0.4,0-0.9,0-1.4,0.1c-0.5,0.1-1,0.2-1.4,0.4c-0.1,0.2-0.1,0.4-0.1,0.5c0,0.1,0,0.3-0.1,0.5
			c0,1,0,2,0,3.1c0,1-0.1,2.1-0.2,3.1c-0.2,1.4-0.4,2.7-0.6,3.9c-0.2,1.3-0.4,2.6-0.6,4c-0.2,1.1-0.3,2.1-0.3,3.1c0,1-0.1,2-0.2,3
			c-0.1,0.8-0.3,1.7-0.5,2.6c-0.2,0.9-0.2,1.8-0.1,2.5c0.1,0.5,0.2,1,0.1,1.4c0,0.5-0.1,1-0.1,1.5c-0.2,0.2-0.3,0.5-0.4,0.8
			c-0.1,0.3-0.2,0.6-0.4,0.8c-0.2,1.1-0.3,2.1-0.3,3.1c0,1-0.2,2-0.3,3.2c-0.1,0.5-0.2,1.1-0.3,1.7c-0.1,0.6-0.3,1.3-0.4,1.9
			c-0.2,0.9-0.4,1.8-0.6,2.9c-0.1,0.8-0.2,1.7-0.3,2.6c-0.1,0.9-0.1,1.7-0.1,2.6c-0.1,0.2-0.1,0.4-0.3,0.6c-0.1,0.2-0.2,0.4-0.3,0.6
			c-0.1,0.2-0.1,0.5-0.1,0.8c0,0.3,0,0.6,0.2,0.7c0.2,0.6,0.4,1.2,0.5,1.8c0.1,0.6-0.3,1.6-1.2,2.8c-0.4,0.9-0.8,1.5-1.1,1.9
			c-0.2,0.2-0.3,0.4-0.6,0.6c-0.2,0.1-0.5,0.4-0.7,0.6c0.1-0.2,0-0.4,0-0.5c-0.1-0.1-0.1-0.3,0-0.5c0.1-1.4,0.4-2.8,0.7-4.4
			c-0.4,0.5-0.7,0.9-0.9,1.3c-0.2,0.4-0.4,0.8-0.7,1.3c-0.2,0.2-0.3,0.5-0.5,0.7c-0.2,0.2-0.3,0.5-0.5,0.7c-0.1-0.2-0.2-0.3-0.3-0.5
			c0-0.1-0.1-0.3-0.3-0.5c0.1-0.4,0.1-0.7,0.1-0.9c0-0.9,0-1.8,0-2.7c0-0.9,0.1-1.9,0.4-2.8c0.2-1.5,0.3-2.8,0.4-4.1
			c0.1-1.3-0.3-2.2-1.3-2.9c-0.1-0.3-0.1-0.5,0-0.8l1.3-9c0.2-2.1,0.2-4.2,0.1-6.3c-0.1-0.6-0.2-0.9-0.4-1c-1-0.4-1.4-1.3-1.1-2.8
			c0.5-0.1,0.9-0.2,1.1-0.4c-0.1-0.3-0.2-0.5-0.3-0.6c-0.1-0.1-0.2-0.2-0.2-0.4c-0.3-0.3-0.5-0.7-0.7-1.1c-0.2-0.4-0.2-0.7-0.1-1.1
			c0.4-0.6,0.5-1,0.5-1.3c-0.1-0.3-0.1-0.6-0.1-1.1c-0.1-0.2-0.2-0.4-0.2-0.6c0-0.2,0-0.5-0.1-0.7c0.1-1.3,0.3-2.5,0.5-3.8
			c0.2-1.3-0.1-2.3-0.9-3.1c-0.3-0.4-0.5-1-0.7-1.7c-0.1-0.7,0-1.5,0.5-2.6c0.4-0.6,0.6-1.2,0.7-2l-0.1,0c-0.5,0.1-0.9,0.3-1.4,0.4
			c-0.4,0.2-0.9,0.3-1.4,0.4c-1.6,0.5-3.2,1-4.8,1.4c-1.6,0.4-3.2,0.9-4.8,1.4c-0.6,0.2-1.1,0.4-1.7,0.7c-0.6,0.2-1.1,0.5-1.7,0.8
			c-1.9,0.8-3.8,1.7-5.8,2.6c-2,0.9-4,1.7-5.9,2.2c-1.6,0.4-3.1,1.1-4.4,1.9c-1.3,0.8-2.7,1.4-4.1,1.9c-1,0.4-2.1,0.8-3.2,1.3
			c-1.1,0.4-2.1,0.9-3.2,1.3c-0.3,0.6-0.6,1.1-0.9,1.6c-0.3,0.5-0.6,1.1-0.9,1.6c-0.5,0.9-1,1.9-1.4,2.9c-0.4,1-0.9,2-1.4,3
			c-0.7,1.3-1.3,2.5-1.9,3.8c-0.6,1.3-1.2,2.6-1.7,3.8c-0.2,0.5-0.4,0.9-0.6,1.3c-0.2,0.4-0.3,0.9-0.6,1.3c-0.6,0.9-1.2,1.9-1.8,2.7
			c-0.6,0.9-1.2,1.8-1.8,2.7c-0.6,1-1.1,2.1-1.5,3.1c-0.4,1-0.8,2-1.3,3c-0.4,0.7-0.8,1.4-1.2,2.1c-0.4,0.7-0.8,1.3-1.2,1.9
			l-0.6,0.1c0.1-0.3,0.2-0.7,0.3-1c0.1-0.3,0.2-0.6,0.4-0.8c0.4-0.9,0.9-1.7,1.4-2.5c0.5-0.8,0.9-1.5,1.3-2.3
			c0.3-0.5,0.6-0.9,0.8-1.4c0.2-0.5,0.4-0.9,0.5-1.3c0.5-0.9,1.1-1.8,1.6-2.6c0.5-0.8,1-1.6,1.5-2.5c0.8-1.6,1.5-3.1,2.1-4.7
			c0.6-1.5,1.4-3.1,2.1-4.7c0.9-1.8,1.8-3.6,2.5-5.3c0.7-1.7,1.5-3.5,2.5-5.3c-0.6,0.3-1.2,0.6-1.8,0.8c-0.6,0.2-1.2,0.5-1.8,0.8
			c-0.2,0.1-0.4,0.2-0.7,0.3c-0.3,1.2-0.9,2.1-1.8,2.8c-0.1,0.1-0.1,0.3-0.1,0.4c0,0.2-0.1,0.3-0.1,0.4c-0.3,0.9-0.7,1.8-1.1,2.7
			c-0.4,0.9-0.8,1.9-1.2,3c-0.3-0.3-0.4-0.6-0.5-0.9c-0.1-0.2-0.1-0.5-0.3-0.6c-0.6,0.6-1,1.2-1.3,1.6c-0.3,0.5-0.2,0.9,0.2,1.2
			c1,0.7,0.7,1.9-0.9,3.7c-1.3,1.3-2.1,2.7-2.5,4.2c-0.3,1.2-0.6,2.3-0.9,3.5c-0.3,1.1-1.1,2.3-2.2,3.6c-0.4,0.4-0.8,0.9-1,1.5
			c-0.2,0.6-0.5,1.2-0.8,1.8c-0.4,0.9-0.8,1.7-1.1,2.5c-0.3,0.8-0.7,1.6-1.2,2.5c-0.8,1.4-1.6,2.8-2.5,4.2c-0.8,1.4-1.6,2.8-2.5,4.2
			c-0.2,0.2-0.2,0.5-0.2,0.7c0,0.2-0.1,0.4-0.2,0.7c-0.4,0.9-0.8,1.8-1.2,2.8c-0.4,0.9-0.8,1.9-1.3,2.8c-0.6,0.8-1.3,1.6-1.9,2.4
			c-0.7,0.7-1.3,1.6-1.9,2.5c-0.2,0.4-0.4,0.9-0.6,1.3c-0.2,0.4-0.3,0.9-0.4,1.3c-0.2,0.2-0.2,0.4-0.3,0.6c0,0.2-0.1,0.4-0.3,0.6
			c-0.4,0.6-0.8,1.1-1.2,1.6c-0.4,0.5-0.8,1-1.2,1.6c0.1,0.1,0.2,0.1,0.2,0.2c0,0,0.1,0.1,0.2,0.2c0.4-0.3,0.8-0.5,1.2-0.7
			c0.3-0.2,0.7-0.4,1.2-0.7c0.9-0.6,1.7-1.2,2.4-1.9c0.8-0.5,1.3-1.1,1.4-2c0.1-0.6,0.3-1.3,0.6-2c0.3-0.7,0.6-1.4,0.9-2
			c0.2-0.2,0.4-0.5,0.8-0.8c0.3-0.1,0.5,0.1,0.5,0.3l0.4,1.9c-0.7,0.6-1.2,1.1-1.6,1.7c-0.9,1.2-1.7,2.4-2.6,3.6
			c-0.9,1.2-1.7,2.4-2.6,3.6c-2.1,3.1-4.3,4.6-6.7,4.6c-0.1-0.1-0.2-0.3-0.4-0.6c-0.1-0.3-0.1-0.6,0.1-0.9c0.3-0.8,0.7-1.5,1.1-2.2
			c0.4-0.7,0.8-1.4,1.1-2.2c0.2-0.5,0.4-0.9,0.5-1.4c0.1-0.5,0.3-1,0.6-1.4c0.7-1.4,1.5-2.7,2.2-4.1c0.7-1.3,1.5-2.6,2.2-3.9
			c0.3-0.8,0.6-1.5,0.9-2.3c0.3-0.7,0.5-1.5,0.8-2.2c0.3-0.8,0.6-1.6,0.8-2.3c0.2-0.8,0.5-1.6,0.8-2.5c0.6-1.2,1.2-2.4,1.9-3.5
			c0.7-1.1,1.3-2.3,1.9-3.5c0.5-0.9,1-1.8,1.3-2.7c0.4-0.9,0.7-1.8,1-2.7c-0.1-0.1-0.3-0.1-0.5,0c-0.2,0.1-0.5,0.1-0.7,0.1
			c-0.2,0-0.3-0.1-0.3-0.2c0-0.1,0.1-0.4,0.4-1c0.4-0.8,0.9-1.6,1.3-2.3c0.4-0.7,0.8-1.5,1.1-2.3c0.4-0.4,0.6-0.8,0.5-1.3
			c-0.1-1.2,0-2.4,0.4-3.7c0.4-1.3,1.1-2.6,1.9-4c0.3-0.5,0.5-0.9,0.7-1.2c0.3-0.9,0.6-1.8,0.9-2.8c0.3-1,0.7-2,1.1-3
			c0.1-0.2,0.2-0.4,0.3-0.5c0.2-0.1,0.3-0.3,0.5-0.6c-0.2,0.1-0.4,0.2-0.6,0.3c-0.2,0.1-0.5,0.1-0.6,0.3l-4.9,3.5
			c-0.3,0.3-0.5,0.4-0.9,0.5c-0.3,0.1-0.6,0.2-0.9,0.3c-0.4,0.3-0.9,0.6-1.4,0.8c-0.5,0.2-1,0.5-1.4,0.8c-0.1,0-0.2,0.1-0.3,0.2
			c-0.1,0.1-0.2,0.2-0.4,0.2c-0.4,0.1-1-0.2-1.9-0.7c-0.9-0.6-1.3-1.1-1.3-1.5c-0.1-0.2-0.2-0.5-0.3-0.8c-0.4-0.7-0.7-1.4-1.1-2.1
			c-0.4-0.6-0.8-1.3-1.1-2.1c-0.6-0.9-0.6-1.8-0.1-2.6c0.4-0.5,0.5-1.2,0.3-2.2c-0.1-0.6-0.1-1,0.2-1.3c0.2-0.3,0.5-0.6,0.7-1
			c0.4-0.4,0.9-0.8,1.3-1.1c0.4-0.3,0.8-0.8,1.1-1.2c1-0.7,2.1-1.5,3.4-2.3s2.6-1.6,3.9-2.3c1.5-0.7,3-1.5,4.5-2.3
			c1.7-0.9,3.5-1.7,5.2-2.5c1.7-0.8,3.4-1.5,5.1-2.3c0.4-1.1,0.8-2.2,1.2-3.2c0.4-1.1,0.8-2.1,1.2-3.2c0.1-0.3,0.2-0.7,0.3-1.1
			c0.1-0.4,0.1-0.8,0.1-1.2c0.6-2.5,1.8-5.1,3.5-7.9c1.7-2.5,2.6-4.9,2.6-7.1c0-0.8,0.4-1.7,1-2.7c0.7-1,1.4-1.7,2.2-2.1
			c1-0.5,1.4-1.2,1.3-2c-0.5-1.5-0.6-3-0.2-4.4c0.3-1.1,0.6-2.1,1-3.1c0.4-1,0.7-2,1-3.1c0.5-1.5,1-3,1.6-4.5
			c0.6-1.4,1.4-2.9,2.5-4.5c0.2-0.2,0.2-0.5,0.2-0.7c0-0.3,0.1-0.5,0.2-0.7c0.1-0.4,0.2-0.8,0.4-1.2c0.1-0.4,0.2-0.8,0.3-1.4
			c0.2-0.5,0.4-1.1,0.7-1.5c0.3-0.5,0.5-0.9,0.6-1.4c0.3-1,0.7-2,1.1-2.9c0.5-1,0.8-1.9,1-2.9c0.1-0.8,0.5-1.8,1-2.7
			c0.6-1,1-1.9,1.5-2.8c0.5-1.3,0.9-2.5,1-3.4c0.2-2.9,1.4-5.7,3.5-8.5c0.3-0.3,0.5-0.6,0.6-1c0.2-0.4,0.2-0.7,0-0.9
			c-0.2-0.9-0.1-1.8,0.4-2.9c0.4-1.1,0.9-2.1,1.2-3.2c0.3-0.9,0.6-1.7,0.9-2.6c0.3-0.8,0.6-1.7,0.9-2.6c0.4-0.6,0.6-1,0.7-1.2
			c0.2-0.4,0.5-0.7,0.7-1c0.2-0.3,0.4-0.6,0.6-1c0.3-0.9,0.7-1.7,1.1-2.5c0.4-0.8,0.7-1.6,0.9-2.5c0.4-1.5,1-3,1.7-4.3
			c0.7-1.4,1.8-2.7,3.2-3.9c0.2-0.1,0.3-0.3,0.4-0.4c0.1-0.1,0.2-0.3,0.3-0.5c1.6-2.1,3.2-3.8,4.8-5.1c1.6-1.3,3.4-2,5.5-2
			c0.7,0.1,1.4-0.2,2-0.9c0.8-0.7,1.4-1.1,1.9-1.2c0.5-0.1,1-0.1,1.5,0c0.1,0,0.1,0,0.1,0.1c0,0.1,0,0.1,0.1,0.1
			c0.7-1.1,1.5-1.9,2.5-2.5c0.7-0.5,1.5-0.9,2.2-1.5c0.8-0.5,1.5-1.1,2.2-1.6c0.1,0,0.2-0.1,0.4-0.4c0.8-1.4,1.7-2.3,2.8-2.8
			c1-0.5,2-1,2.9-1.5c1.1-0.5,2.2-0.9,3.1-1.1C307,126.5,308,126.4,309,126.3z M221.7,285.1c-0.1-0.4-0.3-0.6-0.6-0.5
			c-0.2,0-0.4,0.1-0.5,0.3s-0.3,0.3-0.5,0.4c-0.3,0.6-0.5,1.1-0.7,1.7c-0.2,0.5-0.4,1.1-0.7,1.7c-0.1,0.2-0.1,0.4,0,0.6
			c0,0.2,0.1,0.3,0.2,0.3c0.2,0,0.4-0.1,0.7-0.3c0.3-0.2,0.5-0.4,0.6-0.6c0.2-0.5,0.4-1.1,0.6-1.7
			C221.2,286.2,221.4,285.7,221.7,285.1z M243.9,249.8c-0.1,0.3-0.3,0.7-0.5,1.1c-0.2,0.4-0.3,0.8-0.5,1.1l3-1.1
			c0.1,0,0.2-0.1,0.2-0.1c0-0.1,0.1-0.1,0.2-0.1c0.2-0.2,0.3-0.5,0.3-0.8c0-0.3,0.1-0.5,0.3-0.8c0.7-1,1.2-1.8,1.6-2.6
			c0.3-0.8,0.6-1.6,0.9-2.5c0.3-1,0.8-1.5,1.5-1.5c0.2,0,0.4-0.1,0.5-0.2c0.1-0.1,0.4-0.2,0.6-0.2c-0.2-0.3-0.3-0.5-0.4-0.6
			c-0.1-0.1-0.3-0.3-0.4-0.4c0.1-0.1,0.2-0.2,0.4-0.2c0-0.3,0-0.6,0-0.9c-0.1-0.3,0-0.7,0.1-1.1c-0.1-0.3,0-0.6,0.1-0.8
			c0.4-0.6,0.7-1.2,1-1.8c0.3-0.6,0.6-1.3,1-2c-0.3-0.3-0.3-0.8-0.2-1.3c0.1-0.5,0.4-1.2,0.8-1.8c0.4-0.8,0.9-1.6,1.3-2.3
			c0.4-0.7,0.8-1.4,1.1-2.2c0.1-0.3,0.3-0.7,0.4-1.1c0.1-0.4-0.1-0.5-0.5-0.4c-0.7,0.1-1.3,0.6-1.9,1.8c-1,2.2-1.9,4.5-2.7,6.8
			c-0.8,2.3-1.9,4.6-3.3,6.9c-1,1.5-1.8,3.1-2.5,4.6C245.4,246.7,244.7,248.3,243.9,249.8z M249.5,249.6c-0.1-0.4-0.1-0.7,0-0.9
			c-0.2,0.2-0.3,0.4-0.5,0.6c-0.2,0.2-0.3,0.4-0.5,0.6C249,249.8,249.3,249.7,249.5,249.6z M278.2,245.7c0.5-0.2,1-0.3,1.5-0.4
			c0.5-0.1,1.1-0.2,1.7-0.3l1-0.2c0.1-0.5,0.1-1,0.2-1.4c0-0.4,0-0.8,0-1.2l-0.1,0c-1.4,0.2-2.7,0.5-4,0.9c-1.3,0.4-2.6,0.9-3.9,1.4
			c-0.2,0-0.4,0.1-0.5,0c-0.2,0-0.3,0-0.5,0c-1.2,0.2-2.4,0.3-3.6,0.4c-1.2,0.1-2.3,0.5-3.4,1.3c-0.5,0.3-1.1,0.6-1.7,0.8
			c-0.6,0.2-1.1,0.4-1.5,0.6c-0.8,0.3-1.5,0.5-2.1,0.7c-0.7,0.2-1.4,0.4-2.2,0.5c-0.9,0.3-1.7,0.5-2.6,0.7c-0.9,0.2-1.7,0.4-2.6,0.7
			l-3.5,0.7c-0.1,0.2,0,0.5,0,0.9c0.4-0.1,0.8-0.1,1.2-0.2c0.4,0,0.8-0.1,1.3-0.2c0.3-0.1,0.6-0.1,0.9-0.1c0.3,0,0.6-0.1,0.9-0.1
			c0.5,0,1,0,1.4,0c0.4,0,0.9,0,1.3-0.1c0.6-0.1,1.2-0.3,1.8-0.5c0.6-0.2,1.2-0.4,1.8-0.6c0.6-0.2,1.2-0.4,1.8-0.7
			c0.6-0.2,1.2-0.5,1.8-0.7c0.2,0,0.4-0.1,0.5-0.2c0.1-0.1,0.3-0.1,0.5,0c0.8,0,1.6-0.1,2.4-0.3c0.8-0.2,1.5-0.5,2.3-0.8
			c0.7-0.3,1.5-0.5,2.2-0.7c0.7-0.2,1.5-0.2,2.2,0l0.3-0.1c0.5-0.2,1-0.4,1.6-0.6C277,245.9,277.6,245.8,278.2,245.7z M260.2,226.5
			c-0.3,0.8-0.6,1.5-0.8,2.2c-0.2,0.7-0.5,1.5-0.8,2.2c-0.4-0.1-0.7-0.1-0.9-0.1c-0.2,0-0.5,0-0.9-0.1c-0.6,1.6-1.1,3.3-1.5,5.1
			c0.5-0.6,0.9-1.1,1.1-1.6c0.3-0.5,0.6-0.9,0.9-1.3c0.1,2.2-1.3,4.2-4.1,5.9c0.7,0,1.1,0,1.3,0.2c0.2,0.2,0.3,0.4,0.3,0.6
			c0,0.3-0.1,0.5-0.4,0.8c-0.2,0.3-0.4,0.6-0.6,1c-0.2,0.2-0.3,0.5-0.3,0.8c0,0.3-0.2,0.5-0.3,0.8c-0.5,1-1,2-1.3,3
			c-0.4,1-0.8,2-1.2,3c-0.1,0-0.1,0.1-0.1,0.2c3-1.1,6-2.1,8.9-2.8c3.4-0.9,6.7-1.8,10-2.7c3.3-0.9,6.6-1.7,9.9-2.4l3.4-0.7
			c0.1-0.4,0.2-0.8,0.3-1.2c0.1-0.4,0.2-0.8,0.2-1.3c-0.4,0.4-0.8,0.7-1.1,0.9c-0.3,0.2-0.6,0.5-0.8,0.7c0-0.2-0.1-0.4-0.2-0.6
			c-0.1-0.2-0.1-0.5-0.1-0.7c0.1-0.6,0.1-1.2,0.1-1.9c0-0.6,0.1-1.2,0.1-1.9c0.2-0.2,0.4-0.5,0.7-0.9c-0.1,0.8-0.1,1.4,0.1,1.8
			c-0.1,0.2,0.2,0.5,0.8,0.8c0.2-0.1,0.3-0.2,0.3-0.3c0-0.1,0.1-0.2,0.3-0.3c-0.1-0.8-0.1-1.5-0.2-2.2c-0.1-0.6-0.1-1.4-0.1-2.2
			c0-0.3,0-0.6-0.1-1c-0.1-0.3-0.1-0.7,0.1-1.2c0-0.4,0-0.8,0-1.1c0-0.4-0.3-0.5-0.8-0.5c-0.1,0-0.4-0.2-1-0.5l2-1.2
			c-0.2-0.4-0.3-0.7-0.4-1c-0.1-0.3-0.2-0.5-0.3-0.7c-0.3-0.3-0.5-0.7-0.6-1c-0.1-0.3,0.1-0.9,0.8-1.6c-0.7-0.5-0.6-1.2,0.3-2.2
			c0.5-0.5,0.8-0.9,0.7-1.1c0-0.3-0.1-0.5-0.4-0.6c-0.3-0.3-0.5-0.7-0.7-1c-0.2-0.3-0.4-0.6-0.6-0.9c-0.3-0.3-0.4-0.5-0.3-0.7
			c0.1-0.2,0.3-0.5,0.9-0.9c0.2-0.2,0.4-0.5,0.6-0.9c0.3-0.4,0.4-0.6,0.4-0.8c-0.1-0.4-0.2-0.8-0.3-1.2c-0.1-0.4-0.3-0.5-0.6-0.5
			c-1,0.1-1-0.3-0.1-1.3c1.1-1,1.3-1.9,0.7-2.6c-0.3-0.3-0.5-0.8-0.6-1.5c1-0.9,1.6-1.5,1.6-1.6c0.1-0.2-0.3-0.4-1-0.6
			c-0.3-0.1-0.5-0.3-0.6-0.6c-0.1-0.2,0.3-0.7,0.9-1.3c0.5-0.1,0.7-0.3,0.6-0.7c-0.1-0.5-0.2-1-0.1-1.4c0-0.5-0.2-0.8-0.5-0.9
			c-0.5-0.2-0.7-0.6-0.7-1.1c0-0.5,0-1.1,0-1.7c0.1-0.5,0.2-1,0.4-1.5c0.2-0.4,0.7-0.9,1.6-1.4c-0.2-0.6-0.4-1.1-0.6-1.6
			c-0.2-0.5-0.4-1.1-0.5-1.7c0-0.2-0.1-0.4-0.1-0.6c0-0.2,0-0.4,0.2-0.6c0.6-0.9,0.9-1.7,1-2.3c0-0.6,0.2-1.3,0.4-2.1
			c0.5-1.2,0.1-1.7-0.9-1.5c-0.3,0.1-0.5,0-0.5-0.2c0.1-0.7,0.1-1.4,0.2-2.1c0.1-0.7,0.1-1.4,0.2-2.1c0.2-1.4,0.2-2.6,0-3.7
			c0.1-0.2,0-0.6-0.1-1.1c-0.1,0.3-0.2,0.6-0.3,0.9c-0.1,0.3-0.2,0.5-0.4,0.8c-0.6,1.2-1.1,2.5-1.6,3.8c-0.5,1.3-1,2.5-1.6,3.8
			c-0.5,0.9-1,1.9-1.6,2.8c-0.5,0.9-1,1.8-1.4,2.7c-0.5,1.1-0.9,2.2-1.4,3.3c-0.4,1.1-0.9,2.2-1.5,3.4c-1.6,3.7-3.2,7.4-5,11.1
			c-0.1,0.5-0.3,1-0.7,1.5c-0.4,0.5-0.6,0.9-0.7,1.4c-0.5,2-1.2,4.1-2.2,6c-1,2-2,4-3,5.9c-0.4,1.1-0.8,2.2-1.3,3.3
			C261.1,224.5,260.6,225.5,260.2,226.5z M257.7,222c0.1,0.1,0.2,0.1,0.3,0.1l0.3-0.1c0.4-0.1,0.6-0.3,0.8-0.8
			c0.2-0.5,0.3-1.1,0.4-1.5c0.1-0.5,0.2-1,0.4-1.5c-0.2,0-0.4,0-0.5-0.1c-0.4,0.7-0.7,1.3-0.9,1.9
			C258.4,220.7,258.1,221.3,257.7,222z M288,277.8c0.3-3.3,0.6-6.6,0.8-9.7c0.2-3.2,0.5-6.4,0.8-9.7c-0.8,0.8-1.2,1.2-1.4,1.4
			c-0.1,0.6-0.3,1.3-0.6,2c-0.3,0.7-0.2,1.2,0.3,1.6c0.2,0.3,0.1,0.7-0.2,1.4c-0.1,0.6-0.2,1.1-0.3,1.3c-0.1,0.2-0.1,0.4-0.2,0.6
			c-0.1,0.2-0.1,0.4-0.2,0.6c-0.1,0.4-0.3,0.9-0.5,1.3c-0.2,0.5-0.2,0.8-0.1,0.9c0.3,0.5,0.4,1.2,0.3,2s-0.2,1.6-0.3,2.3l-0.1,0.3
			c0.1,0.6,0.3,1.1,0.6,1.6c0.3,0.5,0.3,1.2-0.2,2.1c0.1,0.1,0.2,0.1,0.3,0.1c0.1,0,0.2,0,0.3,0C287.7,277.9,287.8,277.8,288,277.8z
			 M289.7,297.6c0.1,0.2,0.3,0.3,0.4,0.3c0.1,0,0.1,0.1,0.1,0.4c-0.2,0.5-0.4,1.2-0.6,1.8c-0.2,0.7-0.5,1.3-0.7,2l-0.4,0.1
			c0.1-0.5,0.2-1.1,0.2-1.6c0-0.6,0.1-1.1,0.2-1.6c0.1-0.2,0.2-0.4,0.4-0.6C289.4,298.1,289.6,297.8,289.7,297.6z M293.5,232.3
			c-0.3,0.4-0.7,0.8-1.1,1.1c-0.4,0.4-0.6,0.7-0.8,1.1c-0.2,0.2-0.1,0.4,0.3,0.6c0.3,0.2,0.6,0.4,0.9,0.5l0.7-1.1
			C293.7,233.9,293.7,233.1,293.5,232.3z M291.9,239.2c0.3,0,0.6,0,0.8,0c0.2-0.1,0.5,0,0.7,0c0.2-0.1,0.2-0.3,0.2-0.5
			c0.1-0.2-0.1-0.5-0.5-1c0-0.2-0.3-0.3-0.6-0.2c-0.3,0.3-0.4,0.6-0.5,1c0,0.2,0,0.3,0,0.4C291.9,239.1,291.9,239.1,291.9,239.2z
			 M294.5,272.5c0.1-0.2,0.1-0.5,0.3-0.8c0.1-0.3,0.3-0.6,0.4-0.9l0.6-0.1c-1,8.4-2.7,17-5.1,25.8c-0.3-0.1-0.6-0.3-0.9-0.4
			c-0.2-0.2-0.3-0.3-0.2-0.4c0.6-0.9,0.9-1.7,1-2.3c0-0.6,0.1-1.2,0.3-1.9c0.2-0.8,0.4-1.5,0.6-2.3c0.1-0.7,0.3-1.5,0.4-2.2
			c0.3-1.1,0.5-2.1,0.6-3.1c0.1-1,0.3-2.1,0.6-3.3c0.1-0.6,0.2-1.3,0.4-1.9c0.2-0.7,0.4-1.2,0.5-1.8c0.1-0.8,0.2-1.6,0.3-2.3
			C294.4,273.9,294.5,273.2,294.5,272.5z M294.7,223.2c0.4-1.6,0.6-3.1,0.6-4.5c0-1.4,0-2.9,0.1-4.5c-0.8,0.9-1.3,1.6-1.3,2.2
			c0,0.6,0,1.2,0,1.8c0,0.8,0,1.7,0,2.5c0,0.9,0,1.7,0,2.5c0,0.1,0,0.2,0,0.2c0,0.1,0,0.1,0,0.2c0.2-0.1,0.3-0.2,0.3-0.2
			C294.4,223.4,294.5,223.4,294.7,223.2z M303.2,241.9c-0.6-0.3-1.2-0.5-1.8-0.8c-0.7-0.2-1.3-0.4-1.9-0.4l-0.1,0
			c-0.2,0.2-0.3,0.5-0.3,0.8c0,0.3-0.1,0.6-0.3,1c0.5,0,1,0,1.6,0c0.6,0,1.1,0,1.6,0c0.3,0,0.7,0,1.2-0.1c0-0.1,0-0.2,0-0.2
			C303.2,242.1,303.2,242,303.2,241.9z"/>
		<path class="st0" d="M355.2,133.5c0.5,0.4,0.8,1,1,1.6c0.1,0.7,0.2,1.4,0.3,2.1c0.3,2,0.2,3.9-0.3,5.6c-0.5,1.8-1.4,3.5-2.6,5.2
			c-0.2,0.4-0.5,0.9-0.7,1.5c-0.4,0.7-0.6,1.4-0.9,2.1c-0.2,0.7-0.7,1.2-1.6,1.6c-0.2,0-0.3,0.2-0.4,0.4c-0.1,0.2-0.2,0.4-0.3,0.7
			c-0.6,1.2-1.1,2.5-1.5,3.8c-0.4,1.3-0.9,2.5-1.4,3.7c-0.1,0.1-0.1,0.3-0.1,0.4c0,0.1,0,0.3,0,0.5c0,0.3-0.1,0.6-0.1,0.9
			c0,0.3-0.1,0.5-0.3,0.7c-1.4,0.9-2.2,2-2.3,3.4c-0.1,1.3-0.2,2.6-0.3,3.9c-0.1,0.5-0.2,0.8-0.3,0.8c-0.6,0.9-1.3,1.8-2.1,2.6
			c-0.1,0.1-0.1,0.2-0.1,0.3c0,0.1,0,0.1-0.1,0.2c-0.3,1.1-0.5,2.1-0.7,3.1c-0.2,1-0.4,2.1-0.7,3.3c-0.1,0.2-0.2,0.4-0.3,0.6
			c-0.2,0.2-0.3,0.4-0.5,0.6c-0.4,0.9-0.7,1.6-0.8,2.1c-0.1,0.3-0.2,0.6-0.1,0.9c0.1,0.3,0,0.6-0.1,0.8c-0.2,0.9-0.5,1.7-0.7,2.5
			c-0.2,0.8-0.5,1.7-0.7,2.5c-0.1,0.2-0.1,0.4-0.1,0.6c0,0.2-0.1,0.3-0.2,0.3c-1.4,0.7-1.4,1.5,0.1,2.4c-0.5,0.3-0.9,0.6-1,0.9
			c-0.1,0.3-0.1,0.7-0.1,1.3c0.1,0.7,0,1.4-0.3,2.1c-0.4,0.7-0.7,1.4-0.9,2.1c-0.1,0.3-0.2,0.6-0.3,0.9c0,0.3-0.1,0.6-0.1,0.9
			c0,0.3,0,0.6,0,1c0,0.4,0,0.7-0.1,1.2c-0.2,0.6-0.4,1-0.7,1.4c-0.3,0.4-0.2,1,0.1,1.7c0.3,0.4,0.3,1-0.1,1.7
			c-0.4,0.7-0.7,1.4-0.8,2c-0.1,0.5-0.2,1-0.2,1.4c-0.1,0.4-0.2,0.9-0.2,1.4c-0.1,0.6-0.3,1.1-0.8,1.5c-0.2,0.2-0.4,0.5-0.6,0.8
			c-0.3,0.3-0.5,0.6-0.9,1c0.3,0.1,0.6,0.2,0.9,0.3c0.3,0,0.6,0.1,1,0.2c-0.3,0.3-0.5,0.5-0.8,0.7c-0.3,0.2-0.5,0.4-0.6,0.7
			c0.3,0.4,0.4,0.9,0.3,1.6c-0.1,0.7-0.3,1.3-0.7,1.7c-0.4,0.5-0.6,1.1-0.5,1.9c0.1,0.8,0.4,1.4,1,1.8c-0.2,0.6-0.3,1.3-0.4,1.9
			c-0.1,0.6-0.3,1.2-0.5,1.7c-0.6,0.3-1.3,0.6-1.8,0.7c-0.6,0.1-1.1,0.3-1.5,0.6c-0.2,0-0.3,0.2-0.4,0.5c-0.1,0.3-0.1,0.5,0,0.6
			c0.2,0.2,0.5,0.3,0.7,0.3c0.2,0.1,0.4,0.1,0.6,0.2c0.2,0,0.4-0.2,0.6-0.4c0.2-0.2,0.5-0.3,0.9-0.3c-0.4,1-0.7,2-1,3.1
			c0.1,0.5,0.2,1,0.2,1.5c0,0.5-0.4,1-1.2,1.3c0.5,0.2,0.9,0.5,1.4,0.8c-0.2,0.6-0.3,1.9-0.4,3.8c-0.1,1.9-0.2,4-0.2,6.5
			c0,2.4,0,5,0,7.7c0,2.7,0.1,5.2,0.2,7.4c0.1,2.3,0.3,4.2,0.5,5.8c0.2,1.6,0.4,2.5,0.7,2.8l2.8,11.8l-0.3,0.2l0.3,0.8
			c0.2,0.8,0.3,1.4,0.5,1.7c0.3,0.5,0.7,1.2,1,1.9c0.3,0.7,0.6,1.4,0.8,2.1c0.2,0.7,0.3,1.3,0.4,1.8c0.1,0.5-0.1,0.8-0.4,0.8
			c-0.7,0-1.4,0.1-2,0.1c-0.7,0-1.2-0.3-1.7-1c0-0.2-0.2-0.3-0.4-0.2c-1.9-0.4-3.5-1.3-4.8-2.7c-1.3-1.4-2.5-2.9-3.6-4.5
			c-0.3-0.5-0.6-1.1-1-1.6c-0.3-0.5-0.6-1.1-1-1.6l-0.1,0c-0.1-0.3-0.2-0.5-0.3-0.6c-0.2-0.4-0.3-0.8-0.2-1.2c0-0.4,0-0.8,0-1.2
			c-0.7,0.3-1.1,0.2-1.2-0.5c-0.1-0.7-0.3-1.3-0.5-1.7c-1-3.1-1.8-6.1-2.5-9.3c-0.7-3.1-1.2-6.3-1.5-9.5c-0.2-2-0.4-3.9-0.6-5.8
			c-0.2-1.9-0.2-3.8-0.3-5.8c0-2.5-0.1-5,0-7.5c0-2.4,0-4.9,0-7.3l0.6-0.1c0.1,0.6,0.2,1.2,0.4,1.8c0.1,0.6,0.2,1.2,0.2,1.8
			c-0.1,0.7-0.1,1.4-0.1,2c0,0.6,0,1.3-0.1,2c0,1.3,0,2.6,0,3.8c0,1.2,0.1,2.5,0.1,3.8c0.1,1.7,0.1,3.4,0.2,5.2
			c0.1,1.7,0.1,3.4,0.2,5.1c0,0.5,0.1,1,0.1,1.4c0.1,0.4,0.2,0.9,0.3,1.4c0,0.4,0,0.8,0,1.2c0,0.4,0,0.8,0.1,1.2
			c0.1,0.3,0.2,0.6,0.4,0.8c0.2,0.3,0.4,0.5,0.5,0.8l0.5-0.1c-0.1-1.3-0.2-2.6-0.3-3.8c-0.1-1.2-0.2-2.5-0.3-3.8l0.6-0.1l0.8,3.9
			c0.1,0.3,0.1,0.6,0.1,1c0,0.4,0.1,0.7,0.1,1c0.1,0.5,0.2,1,0.4,1.4c0.2,0.5,0,1-0.3,1.6c-0.2,0.1-0.2,0.6,0,1.2
			c0.4,1.2,0.7,2.4,1,3.6c0.3,1.2,0.6,2.4,1,3.6c-0.5-0.1-1.1-0.2-1.7-0.2l-0.3,0.5c0.5,0.3,0.9,0.6,1.3,0.8
			c0.4,0.2,0.9,0.5,1.5,0.9c-0.3,0.3-0.6,0.5-0.9,0.6c-0.2,0.1-0.5,0.3-0.9,0.6c0.9,0.2,1.5,0.6,1.8,1c0.3,0.4,0.5,1,0.4,1.7
			c0,0.2,0.2,0.4,0.4,0.6c0.2,0.2,0.5,0.4,0.7,0.5c0.1-0.2,0.1-0.5,0.2-0.7c0.1-0.3,0.1-0.5,0.1-0.7c-0.3-1.2-0.6-2.3-1-3.5
			c-0.3-1.2-0.6-2.3-1-3.5c-0.1-0.3-0.1-0.6,0-0.9c0-0.3,0-0.6,0-0.8c0-0.3,0-0.6-0.1-0.9c-0.1-0.3-0.2-0.5-0.2-0.7
			c-0.1-0.3-0.1-0.6-0.1-0.9c0-0.3-0.1-0.6-0.1-0.9c-0.2-1.4-0.4-2.8-0.7-4.2c-0.3-1.4-0.4-2.8-0.5-4.2c0-0.9,0.1-1.8,0.1-2.6
			c0.1-0.8,0.1-1.7,0-2.6c0-1.1-0.1-2.2-0.3-3.4c-0.1-1.1-0.3-2.4-0.3-3.8c0.4,0,0.8,0,1.2-0.1c0.4-0.1,0.9-0.1,1.4-0.1
			c0-0.3,0-0.6,0-0.9c-0.1-0.3-0.1-0.6-0.1-1.1c-0.1,0-0.2,0-0.2,0c-0.1,0-0.1,0-0.2,0c-0.1,0.2-0.3,0.4-0.4,0.5
			c-0.1,0.1-0.2,0.3-0.4,0.5c-0.7-1.1-1-2.2-1-3.2c0.1-1.1,0.5-1.7,1.3-1.9l0.6,2.9l0.3-0.1c0.1-0.6,0.2-1.2,0.3-1.8
			c0.1-0.6,0.2-1.3,0.3-2.1c-0.9-0.1-1.9-0.2-2.9-0.3c0.1-0.3,0.4-0.5,0.8-0.6c0.4,0,0.8-0.1,1.2-0.1c0.4,0,0.6-0.2,0.8-0.4
			c0.2-0.2,0.1-0.7-0.3-1.5c0.3-0.3,0.6-0.5,0.9-0.8c0.3-0.3,0.7-0.6,1.1-0.9c-0.4,0-0.8-0.1-1.3-0.2c-0.7,0.7-1.3,0.8-2,0.5
			c-0.6-0.3-1.3-0.5-1.9-0.6c-0.4,0.9-0.7,1.5-0.8,1.8c0.1,0.1,0.2,0.1,0.3,0.1c-0.1,0.5-0.1,1-0.2,1.4c0,0.4,0,0.9,0,1.4
			c-0.1,0.2-0.1,0.5-0.1,0.8c0,0.3,0,0.6-0.1,0.8l0,4.6c-0.1,1.1-0.2,2.2-0.3,3.3c-0.1,1-0.2,2.1-0.1,3.1c0,0.5,0.1,1,0.3,1.4
			c0.2,0.4,0.3,0.9,0.4,1.4c-0.1,0.2-0.1,0.5-0.2,0.7c-0.1,0.3-0.2,0.5-0.2,0.7c-0.5-0.5-0.8-0.9-0.9-1.3c-0.1-1.4-0.2-2.8-0.3-4.1
			c-0.1-1.4-0.1-2.7-0.1-4.2c0-1.8,0.1-3.7,0.1-5.5c0.1-1.8,0.2-3.6,0.3-5.5c0-0.5,0-0.9,0-1.3c0-0.4,0-0.8,0.1-1.2
			c0.1-0.2,0.2-0.4,0.3-0.5c0.2-0.1,0.3-0.3,0.5-0.6c0.1,0.1,0.2,0.1,0.3,0.1c0,0,0.1,0,0.3,0.1c0,0.3-0.1,0.9-0.1,1.7
			c0.8,0,1.4,0,1.7,0c0.1-1.3,0.2-2.6,0.3-3.8c0.6,0.2,1.4,0.3,2.4,0.4c1.3-1.1,0.8-2.4-1.4-3.9c-0.1,0.2-0.1,0.4-0.2,0.4
			c-0.1,0.1-0.1,0.2-0.1,0.3c0.2,0.8,0,1.3-0.4,1.5c-0.4,0.2-0.9,0.3-1.6,0.3c-1.1,0-1.6-0.6-1.5-2c0.3-1.6,0.6-3.2,0.9-4.7
			c0.3-1.5,0.6-3.1,0.9-4.7c0.1-0.3,0.2-0.6,0.1-0.9c-0.1-0.3-0.1-0.5-0.1-0.6c0.5-0.2,0.8-0.3,1.1-0.4c0.3-0.1,0.6-0.2,0.8-0.3
			c-0.2-0.2-0.5-0.4-0.7-0.6c-0.2-0.3-0.5-0.6-0.7-0.9c0.2-0.4,0.3-0.8,0.3-1.3c0-0.5,0-1,0-1.5c0-0.5,0-1,0.2-1.4
			c0.1-0.4,0.4-0.8,0.8-1.2c0-0.8,0.1-1.6,0.1-2.5c0-0.8,0.1-1.6,0.2-2.5c0.3-1.2,0.6-2.4,0.9-3.6c0.3-1.2,0.6-2.5,0.9-3.8
			c0.2-0.6,0.3-1.3,0.3-2c0.1-0.7,0.1-1.4,0.2-2.1c0.3-0.7,0.6-1.1,1-1.3l-0.6,3.8c0.1,0,0.2,0,0.2,0c0.1,0,0.2,0,0.4,0
			c0.1-0.2,0.1-0.4,0.2-0.6c0.1-0.2,0.2-0.4,0.3-0.6c0.1-0.5,0.2-1.1,0.4-1.6c0.2-0.5,0.3-1.1,0.4-1.6c0-0.3,0-0.8-0.2-1.5l-1.2,0.2
			L322,190c0.3-0.3,0.6-0.6,0.9-0.9c0.2-0.3,0.5-0.6,0.8-0.8c0.3-0.4,0.6-0.8,0.8-1.2c-0.3,0-0.8-0.2-1.5-0.6
			c0.3-0.7,0.5-1.4,0.7-2.2c0.2-0.8,0.5-1.6,0.8-2.5c0.2,0.2,0.4,0.2,0.5,0.3c0.1,0,0.3,0.1,0.5,0.3c-0.4-0.9-0.7-1.8-0.8-2.7
			c-0.1-0.9,0.5-1.6,1.8-2.2c-0.6-0.6-1-1.4-1-2.4c0-1,0.3-2.8,1-5.3c-0.2,0.4-0.5,0.7-0.9,1c-0.3,0.3-0.6,0.7-0.7,1.1
			c-0.6,2.4-1.2,4.7-1.8,7.1c-0.6,2.4-1.2,4.8-1.8,7.2c-0.2,0.8-0.5,1.5-0.9,2.1c-0.3,0.6-0.6,1.3-0.7,1.9c-0.3,1-0.5,1.9-0.6,2.9
			c-0.1,0.9-0.3,1.9-0.5,2.8c-0.1,0.3-0.3,0.7-0.4,1c-0.1,0.3-0.2,0.7-0.2,1.1c-0.2,0.9-0.4,1.8-0.4,2.8c0,1-0.2,2-0.3,3.2
			c-0.2-0.5-0.4-0.8-0.6-1c-0.2-0.2-0.3-0.4-0.2-0.6c0.1-0.8,0.3-1.6,0.4-2.4c0.1-0.7,0.3-1.5,0.4-2.2c0.4-2.2,0.9-4.5,1.3-6.7
			c0.4-2.2,0.9-4.5,1.5-6.7c0.5-2.1,1-4.3,1.6-6.4c0.6-2.1,1.1-4.2,1.7-6.4c1-3.6,1.9-7.1,2.8-10.6c0.9-3.5,1.8-7,2.8-10.5
			c0.9-3,1.9-6,3-8.9c1.1-2.9,2.2-5.8,3.4-8.7c0.3-1,0.8-1.8,1.4-2.6c0.7-0.7,1.4-1.2,2.3-1.3c0.7,0,1.5-0.2,2.3-0.5
			c0.8-0.3,1.6,0,2.4,0.9c0.3,0.3,0.7,0.3,1.2,0.3c0.5-0.1,1.1-0.1,1.6,0c1.5,0.4,3,0.8,4.5,1.3
			C352.9,131.6,354.1,132.4,355.2,133.5z M313,229.6c-0.1,1-0.2,2.1-0.4,3.3l-0.6-0.2c0.1-1,0.2-2.1,0.3-3.1c0.1-1,0.2-2.1,0.3-3.3
			l0.6,0.2C313.2,227.6,313.1,228.6,313,229.6z M314.9,214c-0.2,2-0.4,3.9-0.6,5.9c-0.2,1.9-0.5,3.9-0.9,5.8
			c-0.1-0.1-0.2-0.1-0.3-0.1c-0.1,0-0.2,0-0.3-0.1c0.3-2,0.6-3.9,0.8-5.8c0.3-1.9,0.5-3.8,0.8-5.8c0.1,0.1,0.2,0.1,0.2,0.1
			C314.7,213.9,314.8,213.9,314.9,214z M315.9,205.2c0.2,0.3,0.3,0.7,0.3,1.4c0,0.7,0,1.4-0.1,2.2c-0.1,0.8-0.2,1.6-0.4,2.3
			c-0.2,0.8-0.4,1.4-0.6,1.8c-0.2,0-0.4,0-0.5-0.1c0.3-1.2,0.5-2.4,0.7-3.7C315.5,207.9,315.7,206.6,315.9,205.2z M323.1,224.8
			c0.1-0.7,0.1-1.4,0.3-2c0.1-0.6,0.2-1.1,0.3-1.7l-0.4-0.2c-0.3,0.4-0.7,0.7-1,1.1c-0.3,0.4-0.7,0.8-1.1,1.3c0-0.2-0.1-0.4-0.3-0.6
			c-0.1-0.2-0.2-0.4-0.3-0.6l-0.9-4.1c-0.7,0.4-1,1-0.8,1.9c0.1,0.3,0,0.6-0.3,1c-0.2,0.4-0.4,0.6-0.6,0.9c-0.2,0.2-0.3,0.4-0.4,0.5
			c-0.1,0.1-0.3,0.3-0.4,0.5c0,0.1,0.1,0.2,0.2,0.3c0.4,0,1-0.1,1.8-0.2l0.5,2.3c-0.2-0.1-0.4-0.2-0.6-0.4c-0.2-0.2-0.4-0.4-0.6-0.5
			c-0.2-0.1-0.5-0.2-0.7-0.3c-0.3,0-0.6,0.1-0.9,0.5c0.3,0.5,0.6,0.9,0.7,1.4c0.2,0.4,0.4,0.9,0.7,1.4c2.1-0.2,3.2-1.2,3.2-3
			c0.2,0.2,0.5,0.3,0.7,0.3C322.5,224.5,322.8,224.6,323.1,224.8z M320.1,236.3c0-0.2,0-0.3,0-0.5c0-0.1,0-0.3,0-0.5
			c-0.1-0.5-0.3-0.9-0.6-1.3c0-0.1-0.2-0.1-0.4-0.1c-0.2,0.1-0.4,0.1-0.3,0.2c-0.1,0.2-0.1,0.5-0.1,0.8c0,0.3,0,0.6,0.2,0.9
			C318.9,236.1,319.3,236.2,320.1,236.3z M324.9,216.6c0.3-1.4,0.6-2.8,0.9-4.1c0.3-1.3,0.5-2.7,0.7-4.2c0.1-0.2,0-0.5-0.2-0.7
			c-0.2-0.3-0.4-0.5-0.6-0.6l-0.4,0.1c-0.3,0.1-0.4,0.2-0.4,0.4c-0.2,1.1-0.3,2.1-0.4,3.1c-0.1,1-0.2,2-0.4,3.1
			c-0.8,0.2-1.4,0.1-1.8-0.2c-0.4-0.3-0.6-0.9-0.4-1.7c0.1-1-0.2-1.5-0.9-1.5c-0.1,0.4-0.2,0.8-0.4,1.1c-0.1,0.3-0.3,0.7-0.4,1.1
			c-0.1,0.5-0.2,1-0.4,1.5c-0.2,0.5-0.3,1-0.4,1.5c0,0.4,0,0.8,0.2,1.2c0.1,0.4,0.2,0.8,0.4,1.3c0.9,0.2,1.4,0,1.6-0.6
			c0.2-0.7,0.6-1.2,1.1-1.8c0.3,0.3,0.5,0.7,0.7,1c0.2,0.3,0.4,0.7,0.7,1.2c0.2-0.2,0.3-0.4,0.5-0.6
			C324.7,217,324.9,216.8,324.9,216.6z M321.8,206c-0.1,0.2,0,0.4,0.1,0.6c0.1,0.2,0.2,0.4,0.2,0.6c0.1,0,0.2,0,0.2,0
			c0.1,0,0.1,0,0.2,0c0-0.3,0.1-0.6,0.3-0.8c0.2-0.2,0.4-0.4,0.6-0.5c0.2-0.1,0.4-0.3,0.5-0.6c0.1-0.2,0.1-0.6-0.1-1
			c-0.2-0.3-0.2-0.7,0-1.1c0.1-0.5,0.3-0.9,0.5-1.1c0.8-0.5,1.1-1,0.8-1.6c-0.3-0.6-0.3-1.2-0.1-1.7c0.1-0.2,0-0.4-0.2-0.6
			c-0.2-0.2-0.4-0.3-0.5-0.5l-0.7,1.1c-0.1,0.2-0.1,0.5-0.1,0.8c0,0.3-0.1,0.6-0.2,0.8c-0.3,1-0.6,1.9-0.8,2.8
			C322.2,204.1,322,205,321.8,206z M319.9,283.9l1.9-0.3l-0.3-0.8c-0.3,0.3-0.6,0.4-0.9,0.5c-0.2,0.1-0.5,0.2-0.9,0.5L319.9,283.9z
			 M326,227.4c0.3-0.5,0.6-0.9,0.8-1.3c0.2-0.4,0.5-0.9,0.8-1.5l-0.5-0.3c-0.2-0.2-0.4-0.1-0.6,0.1c-0.2,0.4-0.5,0.7-0.7,1
			c-0.2,0.3-0.5,0.6-0.7,1c-0.1,0.4-0.1,0.7,0.2,0.9c0.1,0.2,0.3,0.3,0.5,0.3C325.9,227.5,326,227.5,326,227.4z M327.7,221.7
			c1.1-0.3,1.3-1,0.8-2.1c-0.4,0.2-0.8,0.3-1.2,0.5c-0.4,0.1-0.9,0.4-1.5,0.7c0,0.2,0.1,0.4,0.1,0.7c0,0.3,0,0.7,0,1.2
			c0.3-0.3,0.7-0.5,0.9-0.7C327.1,221.8,327.4,221.7,327.7,221.7z M328.8,210.6c-0.1-0.1-0.2-0.1-0.3-0.1c-0.1,0-0.1,0-0.3-0.1
			c-0.2,0.5-0.4,0.9-0.6,1.3c-0.2,0.4-0.4,0.9-0.5,1.4c0,0.1,0.1,0.2,0.3,0.3c0.2,0.1,0.3,0.3,0.5,0.4c0.2-0.2,0.3-0.4,0.5-0.5
			c0.2-0.1,0.3-0.2,0.4-0.5L328.8,210.6z M328.2,209.8c0.9-0.2,1.5-1,2-2.5c0.5-1.5,0.5-2.7,0-3.8c-0.4,1.2-0.7,2.3-1,3.2
			C328.9,207.7,328.6,208.7,328.2,209.8z M330.5,201.2c1.1-1,1.7-1.7,1.6-2c0-0.3-0.5-0.6-1.4-1c-0.1,0.5-0.1,1-0.1,1.5
			C330.7,200.2,330.6,200.7,330.5,201.2z"/>
	</g>
	<path class="st0" d="M333.3,415.8c-0.1,0.3-0.3,0.6-0.5,0.9c-0.2,0.3-0.3,0.8-0.2,1.4c0.2,0.9-0.1,2-0.9,3.3
		c-0.1,0.4-0.4,1.1-0.8,2c0,0.4,0,0.8-0.1,1.3l0.1,0.2l0.1,1.3l0.2,0.1l-0.1,0.2c-0.3,0.3-0.5,0.7-0.7,1.2c-0.2,0.4-0.4,0.8-0.7,1.2
		c-0.5,0.8-0.9,1.6-1.4,2.3c-0.5,0.7-1,1.5-1.4,2.3c-0.1,0.3-0.3,0.5-0.4,0.7c-0.1,0.2-0.3,0.4-0.4,0.7c-0.3,0.3-0.5,0.7-0.6,1.1
		c-0.2,0.4-0.4,0.7-0.6,1.1c-0.7,0.9-1.5,1.8-2.3,2.7c-0.9,0.9-1.6,1.8-2.3,2.7c-0.4,0.6-0.9,1.2-1.4,1.8c-0.5,0.6-1,1.1-1.5,1.6
		c-0.1,0.3-0.3,0.5-0.3,0.6c-0.1,0.1-0.2,0.3-0.3,0.6l-0.5,0.6c-0.3,0.5-0.7,1-1.1,1.5c-0.4,0.5-0.7,1-1.1,1.5
		c-1,1.1-1.9,2.2-2.7,3.2c-0.8,1-1.6,2.2-2.4,3.5c-0.2,0.4-0.5,0.9-0.8,1.3c-0.3,0.4-0.7,0.9-1.2,1.4c-0.7,0.9-1.3,1.7-1.8,2.4
		c-0.5,0.8-1.1,1.7-1.6,2.7c-0.7,1.2-2,2.5-3.9,3.8c-0.5,0.4-0.9,0.8-1.2,1c-0.3,0.2-0.7,0.6-1.1,0.9L297,471
		c-0.2,0.2-0.4,0.4-0.8,0.7c-0.3,0.3-0.5,0.7-0.4,1.2c-0.1,0.8-0.4,1.5-1,2c-0.5,0.6-1.3,1.1-2.2,1.7c-0.2,0.2-0.4,0.4-0.7,0.5
		c-0.3,0.2-0.5,0.3-0.7,0.5c-0.1,0.1-0.2,0.3-0.4,0.3c-0.2,0.2-0.4,0.4-0.7,0.6c-0.3,0.2-0.6,0.5-0.8,0.9c-1.3,2.1-3,3.2-5.3,3.4
		c-0.4-0.1-0.9,0-1.5,0.2c-0.6,0.2-1.1,0.6-1.5,1.3c-0.4,0.6-0.9,1.1-1.5,1.4c-0.6,0.3-1.3,0.6-2.2,0.9c-0.6,0.2-1.1,0.4-1.7,0.6
		c-0.6,0.2-1.2,0.6-1.8,1c-1.1,0.9-2.7,1.6-4.8,2.1l-1.8,0.7l-0.7,0.2l-0.3,0.1c-1,0-2,0-2.9,0c-0.9,0-1.9,0.1-2.8,0.2
		c-2.2,0.2-4.4,0.3-6.6,0.3c-2,0-4.1-0.1-6.1-0.2c-2.1-0.1-4.1-0.5-6.1-1.2c-0.6,0-1.2-0.2-1.7-0.4c-0.5-0.2-1.2-0.5-1.9-0.9
		c-0.3-0.1-0.6-0.3-0.8-0.4c-0.2-0.1-0.5-0.2-0.8-0.4l-0.2-0.1c-0.1-0.1-0.3-0.2-0.6-0.3c-0.2-0.2-0.6-0.2-0.9-0.2
		c-1.1,0-2.1-0.2-3-0.6c-0.9-0.4-1.8-1-2.8-1.6c-1-0.8-2.3-1.4-3.8-1.8c0-0.1-0.1-0.1-0.2-0.1c-0.5-1.1-1.2-1.8-1.9-2.3
		c-0.8-0.5-1.6-0.9-2.5-1.2l-0.2-0.1c-0.3-0.1-0.6-0.4-0.9-0.7c-0.3-0.3-0.6-0.7-0.9-1.1c-0.3-0.3-0.6-0.5-0.9-0.8
		c-0.2-0.3-0.5-0.6-0.9-0.8c-1.5-1.3-2.8-2.8-4-4.4c-1.2-1.6-2.4-3.7-3.5-6.1c-0.3-0.4-0.5-0.8-0.6-1.3c-0.2-0.4-0.4-0.9-0.6-1.3
		c-0.8-1.5-1.5-2.9-2.2-4.4c-0.7-1.5-1.3-3-1.7-4.6l0.1-0.2c-0.4-1.7-0.8-3.5-1.2-5.2c-0.4-1.7-0.7-3.4-1-5.1
		c-0.4-2.8-0.7-5.7-1-8.7c-0.3-2.9-0.5-5.9-0.6-9c-0.1-1.3-0.1-2.6,0.1-3.9c0.2-1.2,0.4-2.6,0.6-4c0.1-0.8,0.2-1.6,0.3-2.3
		c0.1-0.8,0.1-1.5,0.1-2.3c0-0.6,0-1.2,0-1.7c0-0.5-0.1-1-0.2-1.6c0-0.3,0-0.5,0-0.6c-0.1-0.2-0.1-0.4,0-0.6c0-0.1,0-0.2,0-0.3
		c0-0.1,0-0.2,0-0.3c0.3-1.6,0.6-3.3,0.8-5c0.4-1.9,0.9-3.9,1.3-5.9c0.5-2,1-4,1.5-6c1.2-4.5,2.6-9.2,4-14c1.5-4.8,3-9.8,4.8-15.1
		c0.4-1.5,1-3,1.7-4.4c0.7-1.4,1.4-2.9,2.2-4.4c0-0.3,0.1-0.5,0.2-0.7c0.1-0.2,0.2-0.5,0.4-0.8c0.7-1.4,1.4-2.8,2.1-4.1
		c0.6-1.3,1.3-2.7,2.1-4.1c1.1-2.1,2.2-4.3,3.3-6.5c1.1-2.2,2.2-4.4,3.2-6.7c0.7-1.6,1.4-3.1,2.3-4.6c0.9-1.4,1.7-2.8,2.6-4.1
		l2.7-4.9c1-1.6,2.1-3.2,3.1-4.7c1-1.5,2-3.1,2.9-4.7c0.3-0.5,0.6-0.9,0.9-1.4c0.3-0.4,0.6-0.9,0.9-1.4c0.1-0.3,0.4-0.7,0.6-1.3
		c0.3-0.6,0.3-1.3,0-2.1l-0.2-0.5c0.6,0,1.2,0,1.7,0c0.5,0,1-0.2,1.5-0.4c1.9-0.6,4.2-0.5,7,0.1c0.9,0.3,1.7,0.6,2.6,0.9
		c0.9,0.3,1.7,0.6,2.6,0.9c0.9,0.3,1.7,0.7,2.6,1c0.9,0.4,1.7,0.7,2.6,1c0.8,0.9,1.8,1.7,2.8,2.3c1,0.6,2,1.1,2.9,1.7
		c0.7,0.4,1.4,0.7,2.1,1.1c0.6,0.4,1.2,0.8,1.7,1.2c0.1,0.1,0.2,0.2,0.3,0.3c0,0.1,0.1,0.2,0.3,0.3c1.1,1,2,1.9,2.8,2.7
		c0.8,0.8,1.5,1.8,2.1,2.8c0.1,0.6,0.3,1.1,0.6,1.5c0.3,0.4,0.7,0.8,1.1,1.2c0.3,0.3,0.6,0.5,0.8,0.7c0.2,0.2,0.4,0.4,0.6,0.6
		c0.4,1,0.7,2,1,2.9c0.3,0.9,0.6,2,0.9,3.1c0.2,0.3,0.4,0.6,0.4,1c0.1,0.4,0.2,0.7,0.3,1.2c-0.1,0.5,0,0.9,0.3,1.1
		c0.3,0.2,0.5,0.4,0.7,0.6c0.6,0.4,0.9,1.1,0.8,2.2c0,0.4,0,0.7,0,1c0,0.3,0.1,0.7,0.2,1.1l0.1,0.2c0,0.4,0.1,0.8,0.1,1.2
		c0.1,0.4,0.3,0.8,0.8,1.3c0.1,0.1,0.3,0.2,0.3,0.4c-0.7,0.6-1,1.3-1.1,2c-0.1,0.7-0.1,1.4-0.1,2c-0.1,0.1-0.1,0.3-0.1,0.3
		c0,0.1,0,0.2-0.1,0.3c0,0.7,0,1.5-0.1,2.4s-0.1,1.7,0,2.5c-0.1,1.4-0.2,2.7-0.2,4c0,1.2-0.1,2.5-0.2,3.8c-0.1,0.5-0.2,1-0.3,1.4
		c-0.2,0.4-0.3,0.8-0.4,1.3c-0.2,0.2-0.3,0.4-0.3,0.5c0,0.1-0.1,0.3-0.3,0.5c-2.2,0.4-3.5,2.1-3.8,5.1c0,0.1,0,0.4-0.2,0.8
		c-0.2,0.4-0.7,0.8-1.6,1.1c-0.1,0-0.3,0-0.5,0c-0.2-0.1-0.4-0.1-0.7-0.1c-0.3-3.7-0.7-7.3-1-10.8c-0.3-3.5-0.9-7.1-1.7-10.8
		c-0.4-2-1.1-4.1-1.9-6.5c-0.8-2.4-1.5-4.5-2.2-6.4c-0.2-0.8-0.4-1.6-0.6-2.3c-0.3-0.7-0.5-1.5-0.6-2.3c-0.4-1.1-0.8-1.9-1.2-2.4
		c-0.3-0.2-0.6-0.5-0.8-0.7c-0.2-0.2-0.4-0.5-0.7-0.8c-0.1-0.1-0.5-0.1-1,0c-0.5,0.1-0.9,0.1-1,0l-1.4-1.2l-1.1,1.1
		c-0.2,0.1-0.4,0.2-0.4,0.3c-0.6,0.5-1,0.9-1.3,1.2c-0.3,0.3-0.5,0.7-0.8,1c-0.3,0.3-0.5,0.7-0.8,1c-1.7,2.1-3.2,4.1-4.4,6
		c-1.3,2.2-2.7,4.5-4.2,6.9c-1.5,2.4-2.9,4.9-4.5,7.6c-2,3.7-4,7.6-5.9,11.6c-0.5,1-0.8,2.1-0.8,3.1c-0.4,0.9-0.6,1.6-0.6,2.1
		c-0.1,0.3-0.3,0.6-0.5,0.8c-0.2,0.3-0.4,0.6-0.7,0.9c-0.1,0.3-0.3,0.6-0.6,1c-0.3,0.3-0.5,0.7-0.7,1.2c-0.5,1.3-1,2.6-1.5,3.9
		c-0.5,1.3-1,2.6-1.5,3.9c-1,2.2-1.8,4.4-2.6,6.6c-0.8,2.2-1.6,4.4-2.4,6.7l-0.2,0.5c-0.1,0.3-0.2,0.7-0.3,1.2l0,0.4
		c-0.3,0.3-0.3,0.7-0.2,1c-0.1,0.3-0.3,0.6-0.3,0.9c-0.1,0.3-0.2,0.6-0.3,0.9l0.2,0.1c-0.1,0.3-0.2,0.8-0.2,1.4
		c0,0.6,0.2,1.2,0.8,1.6l-0.1,0.2l0.1,0.2c-0.1,0.3-0.2,0.5-0.3,0.7c-0.1,0.1-0.2,0.4-0.3,0.7c-0.2,0.8-0.5,1.3-0.8,1.4
		c-0.9,0.2-1.4,0.7-1.6,1.6c-0.1,0.9-0.3,1.4-0.4,1.7c0,0.6,0,1.2,0.1,1.6c0.1,0.5,0.1,1,0.1,1.5c0,0.4,0,0.7,0,1.1
		c0,0.4,0,0.8,0.1,1.3l0.1,0.2c-0.1,0-0.1,0.1-0.1,0.2c0,0.1,0,0.2-0.1,0.2c-0.7,0.8-1.2,1.5-1.5,2.2c-0.2,0.7-0.4,1.4-0.6,2.1
		c-0.1,0.8-0.2,1.4-0.5,1.8c-0.1,0.3-0.3,0.7-0.4,1.2c-0.1,0.5,0,1,0.5,1.6c0.2,0.6,0.1,1.3-0.2,2.1c-0.1,0.5-0.1,1-0.2,1.6
		c-0.1,0.5,0,1.1,0.2,1.6c-0.1,0-0.2,0.1-0.2,0.3c0,0.1-0.1,0.3-0.3,0.5c-0.1,0.3-0.2,0.6-0.1,0.9c0,0.3,0,0.6-0.1,0.9
		c0,0.6,0,1.2,0,1.6c0,0.4,0.1,0.9,0.1,1.4c-0.1,0.5,0,1.3,0,2.2c0,0.6-0.1,1.2-0.2,1.8c-0.1,0.6-0.2,1.2-0.2,1.7
		c-0.1,0.3-0.2,0.6-0.3,0.8c0,0.3-0.1,0.5-0.1,0.8c-0.3,1.2-0.5,2.5-0.7,3.7c-0.2,1.2,0,2.7,0.4,4.2c0.4,1,0.5,2.3,0.5,3.9
		c0,0.6,0,1.2,0.1,1.8c0.1,0.5,0.1,1.1,0.2,1.7c0.8,5.6,1.6,10.9,2.7,15.8c0.3,0.9,1,1.9,2.1,3.2c1.1,1.2,1.8,2.3,2.2,3.1
		c0.4,0.5,0.7,0.9,0.8,1.3c0.1,0.4,0.3,0.8,0.4,1.2c1,2.1,2.7,3.1,5.1,2.8c3.1-0.4,6.2-0.8,9.4-1.4c3.2-0.6,6.1-1.8,8.7-3.8
		c0.6-0.5,1.2-0.9,1.9-1.2c0.7-0.4,1.3-0.8,1.7-1.2c0.9-0.6,1.8-1.1,2.7-1.6c0.9-0.5,1.7-1.1,2.5-1.7c0.5-0.4,1-0.8,1.6-1.1
		c0.6-0.3,1.2-0.7,1.8-1.2c1.6-1.2,3.2-2.4,4.8-3.7c1.7-1.3,3.1-2.7,4.2-4.4c0.4-0.5,0.9-1,1.4-1.4c0.5-0.4,1.1-0.9,1.8-1.4
		c0.4-0.4,0.7-0.7,1.1-1.1c0.4-0.3,0.8-0.7,1.1-1.1l0.7-0.6c1.8-1.6,3.5-3.3,5.2-5c1.7-1.7,3.3-3.4,5-5.1c2.2-2.3,4.2-4.5,6-6.6
		c1.8-2.2,3.6-4.2,5.3-6.2c0.4-0.4,0.7-0.8,1-1.2c0.3-0.4,0.5-0.8,0.6-1.1c1.2,0.9,1.9,1.4,2.2,1.3c0.3-0.1,0.6-0.5,1.1-1.3
		c0.1-0.3,0.3-0.5,0.5-0.7c0.2-0.1,0.4-0.3,0.5-0.7c0.4-0.4,0.7-0.7,1.1-1c0.4-0.3,0.7-0.6,1-0.9c0.6-1.2,1.2-2.2,2-3.2
		c0.8-0.9,1.6-1.8,2.6-2.8c1.4-1.3,2.7-2.6,3.8-4.1c1.1-1.4,2.1-3,3-4.5c0-0.3-0.1-0.7-0.2-1.2c1.8,0.5,3.2-0.1,4.2-1.7
		c0.5-0.7,0.8-1.1,0.9-1.2c-0.3,0.1-0.3,0.2,0,0.4c-0.6,1.2-1.3,2.3-2.1,3.3c-0.8,1-1.6,1.9-2.4,2.8c-0.3,0.3-0.5,0.6-0.7,0.8
		c-0.2,0.2-0.5,0.5-0.7,0.8c-0.8,0.9-1.5,1.9-2.2,2.9c-0.7,1.1-1.4,2.1-2.2,3.1c-0.2,0.4-0.5,0.9-0.8,1.3c-0.3,0.4-0.5,0.8-0.8,1.3
		c-0.1,0-0.2,0.2-0.4,0.5c-1.1,0.8-2,1.6-2.7,2.6c-0.7,0.9-1.4,1.9-2.1,2.9c-1,1.5-2,2.8-3.1,3.9c-0.6,0.5-1,0.9-1.3,1.2
		c-1.4,1.3-2.8,2.7-4.2,4.3c-0.8,0.8-1.6,1.7-2.2,2.8c-0.4,0.4-0.7,0.7-0.9,1.1c-0.3,0.3-0.5,0.7-0.8,1c-0.5,0.7-1.3,1.4-2.2,2.1
		c0,0.3-0.3,0.6-0.9,1.1l-0.9,1.1l2.6,3l1.3-0.6l0.7-0.2c0.9-0.3,1.5-0.6,1.9-0.9c0.7-0.5,1.3-1,1.9-1.4c0.6-0.5,1.2-0.9,1.7-1.4
		c0.4-0.4,0.8-0.8,1.3-1.4c0.5-0.5,0.6-1.2,0.3-2l0.3-0.1c0.1-0.1,0.2-0.2,0.3-0.3c0.1,0,0.2-0.1,0.3-0.3c1.6-1.3,3.1-2.7,4.3-4.1
		c0.1-0.3,0.3-0.5,0.6-0.7c0.3-0.2,0.5-0.4,0.6-0.7c0.4-0.4,0.8-0.8,1.2-1.3c0.5-0.5,0.9-1,1.3-1.5c0.5-0.7,1-1.3,1.5-1.9
		c0.5-0.6,1-1.3,1.6-2c1-1.1,1.9-2.2,2.7-3.2c0.8-1,1.7-2.1,2.7-3.2c0.1-0.3,0.3-0.5,0.6-0.7c0.3-0.2,0.5-0.4,0.6-0.7
		c0.1,0,0.2-0.1,0.2-0.2c0-0.1,0.1-0.1,0.2-0.2c-0.4,0.4-0.7,0.8-0.9,1.2c-0.2,0.4-0.5,0.8-0.7,1.1c0.1,0.1,0.3,0.2,0.3,0.4
		c0.2-0.1,0.5-0.1,0.7-0.1c0.3,0,0.4,0,0.5-0.2c0.7-0.9,1.4-1.7,2-2.5s1.3-1.6,2-2.5c0.4-0.5,0.8-1,1-1.5c0.2-0.4,0.6-0.9,1-1.3
		c0.7-0.8,0.8-1.7,0.3-2.9c0.3-0.2,0.6-0.5,1-0.7c0.3-0.2,0.6-0.5,0.9-0.9c0.1-0.3,0.3-0.6,0.6-1c0.3-0.3,0.6-0.7,0.9-1.1l-0.2,0.4
		c1-0.5,1.8-1.2,2.5-2.1c0.7-0.9,1-1.9,0.9-2.9c0.4-0.4,0.6-0.6,0.6-0.8l0.4,0.2c1-0.4,1.6-0.8,1.9-1.3c0.3-0.5,0.4-0.8,0.3-0.8
		c-0.1,0-0.4,0.5-0.9,1.4c-0.5,1-1,2.9-1.6,5.7c-0.6,1.5-1.6,2.9-3.1,4.5c-0.3,0.3-0.5,0.7-0.8,1c-0.3,0.4-0.6,0.8-0.9,1.3
		L333.3,415.8z M207.4,450.6c0.1-0.3,0.3-0.6,0.3-0.9c0.1-0.3,0.3-0.8,0.5-1.5l-1.9-0.1c-0.1,0.3-0.2,0.6-0.1,1c0.1,0.4,0,0.7-0.1,1
		C206.3,450.4,206.7,450.6,207.4,450.6z M208,458.8c0.8-0.8,1.1-1.8,0.9-2.9c-0.2-1.2-0.9-2-2.1-2.6c0.2,0.9,0.4,1.8,0.7,2.7
		C207.6,456.8,207.8,457.7,208,458.8z M207.3,418.9c-1,1-1.5,1.8-1.6,2.4c0,0.6,0.4,1.3,1.3,2.1c0.7-1.2,1-2.1,1-2.6
		C208.1,420.4,207.8,419.7,207.3,418.9z M207.4,411.8c-0.1,0.8-0.1,1.6-0.1,2.4c0.1,0.9,0.1,1.7,0.2,2.6c0,0.1,0.2,0.2,0.5,0.4
		c0.5-2.4,1-4.8,1.4-7.1c0.4-2.3,0.9-4.7,1.4-7.1c-0.1-0.1-0.3-0.1-0.4-0.1c-0.1,0-0.3-0.1-0.4-0.1c-0.7,0.5-1.1,1.1-1.2,1.9
		c-0.1,0.8-0.1,1.6-0.1,2.4c-0.1,0.9-0.3,1.7-0.6,2.5C207.7,410.2,207.5,411,207.4,411.8z M209.9,401.2c0,0.1,0.1,0.2,0.3,0.4
		c0.2,0.1,0.3,0.3,0.5,0.5c0.2-0.2,0.4-0.3,0.6-0.4c0.2-0.1,0.3-0.2,0.4-0.5c0.2-1.1,0.4-2.1,0.4-3.1c0.1-0.3,0.2-0.6,0-0.9
		c-0.1-0.3-0.2-0.6-0.1-0.9c-0.2-0.1-0.3-0.1-0.4-0.1c-0.1,0-0.3-0.1-0.4-0.1c-0.3,1-0.5,1.9-0.7,2.7
		C210.3,399.4,210.1,400.2,209.9,401.2z M213.6,391.5c-1.5,1.1-2.2,1.9-2.4,2.2c-0.1,0.4,0.4,1,1.6,1.9
		C213,394.1,213.2,392.7,213.6,391.5z M310.5,420.3c-0.2,0.7-0.5,1.4-0.8,2c-0.3,0.6-0.6,1.2-1.1,1.7c-0.5,0.4-0.9,0.8-1.4,1.3
		c-0.5,0.4-0.9,0.8-1.4,1.3c0.1-0.3,0.3-0.6,0.5-0.8c0.2-0.3,0.4-0.5,0.5-0.8c0.4-0.6,0.8-1.3,1.3-1.9c0.5-0.6,0.9-1.2,1.4-1.7
		c0.7-0.9,1.3-1.7,2-2.6c0.6-0.8,1.3-1.7,2-2.6c0.4-0.5,0.9-1.1,1.4-1.7c0.5-0.6,1-1.2,1.5-1.8c0.5-0.7,0.8-1.1,0.8-1.4
		c0.3-0.6,0.7-1.1,1.1-1.5c0.5-0.4,1.1-1.2,1.8-2.3l1,0.6c-0.6,0.2-0.9,0.4-1.1,0.6c-0.5,0.6-1.1,1.2-1.7,1.8
		c-0.6,0.6-1.1,1.4-1.6,2.1c-0.6,1.1-1.2,2.2-1.9,3.3c-0.7,1.1-1.4,2.2-2.1,3.4C311.7,418.6,311,419,310.5,420.3z M329.4,402.7
		c-0.3,0.3-0.5,0.6-0.6,0.9c-0.2,0.2-0.4,0.5-0.6,0.9C328.4,403.8,328.8,403.3,329.4,402.7z"/>
	<path class="st0" d="M371.5,386.9c-0.8,2.5-1.7,5-2.6,7.3c-0.7,2-1.3,4-1.9,6c-0.6,2-1.3,4-1.9,6c-0.5,1.9-1,3.8-1.5,5.6
		c-0.5,1.8-1.1,3.6-1.7,5.5c-0.4,1.3-0.6,2.5-0.7,3.8c0,1.3-0.1,2.6-0.1,3.9c0,1.6-0.4,3.3-1.2,4.9c-0.7,1.6-1.4,3.3-1.9,5
		c-0.7,2.4-1.2,4.7-1.7,7c-0.4,2.3-0.1,4.7,1,7.2l0.2,0.7c-0.7,0.9-1.3,1.8-1.8,2.7c-0.5,0.9-1.1,1.8-1.8,2.7l-0.2,0.1
		c-0.2,0.2-0.4,0.4-0.6,0.6c-0.2,0.2-0.4,0.4-0.6,0.6c-0.2,0.1-0.3,0.2-0.4,0.2c0,0.1-0.2,0.2-0.4,0.2l-0.2-0.5
		c-1.6,0.3-3.1-0.2-4.3-1.6c-0.8-0.8-1.8-1.3-3-1.5c-2.1-0.6-3.8-1.7-5-3.1c-1.3-1.5-2.5-3.1-3.6-4.8c-3-5-4.9-10.6-5.6-16.7
		c-0.5-3.1-0.9-6.2-1.4-9.5c-0.5-3.3-0.8-6.5-0.9-9.7c-0.3-3.5-0.3-7-0.2-10.6c0.1-3.5,0.2-7.1,0.3-10.7c0-1.6,0.1-3.3,0.1-4.9
		c0-1.6,0.2-3.2,0.3-4.8c0.2-2.3,0.4-4.6,0.7-6.9c0.3-2.3,0.7-4.6,1.1-6.8c0.7-4.2,1.4-8.5,2.1-12.9c0.7-4.4,1.5-8.7,2.3-13
		c0.7-3.9,1.5-7.8,2.4-11.8c0.8-4,1.7-7.9,2.5-11.8c0.8-4.3,1.7-8.6,2.5-12.8c0.8-4.3,1.7-8.6,2.5-12.8c0.5-2.3,1-4.6,1.5-6.9
		c0.4-2.3,0.8-4.5,1.1-6.8c0.2-1.1,0.7-1.8,1.5-2.3c0.8-0.5,1.6-1,2.4-1.5c-0.1,0.4-0.1,0.8-0.1,1.1c0,0.3,0,0.6-0.1,1.1
		c0.9-0.3,1.7-0.6,2.4-0.9c0.7-0.3,1.5-0.5,2.3-0.6c1.1-0.4,2-0.2,2.8,0.5c0.8,0.7,1.6,1.2,2.4,1.6c0.7,0.2,1.4,0.6,2.1,1.1
		c0.7,0.5,1.3,0.8,2,0.8c1.8-0.2,3.2,0.4,4.2,1.7c0.9,1.2,1.8,2.4,2.8,3.6c0.9,1.2,1.3,2.7,1.1,4.6c-0.1,0.3-0.3,0.6-0.6,1
		c-0.3,0.3-0.4,0.7-0.6,1c-0.1,0.3-0.3,0.6-0.3,0.9s-0.1,0.5-0.2,0.8c-0.1,0.9-0.1,1.7-0.1,2.6c0,0.8-0.1,1.6-0.3,2.5
		c-0.6,1.9-1.1,3.9-1.7,5.8c-0.6,1.9-1.2,3.9-1.8,5.9c-0.3,1.1-0.7,2.2-1,3.4c-0.3,1.1-0.7,2.2-1,3.4c0,0.3-0.2,0.4-0.4,0.4
		c-0.2,0-0.4,0.2-0.4,0.4c-0.4,0.4-0.8,1-1.2,1.9c-0.1,0.3-0.2,0.7-0.2,1.1c0,0.4,0,0.7-0.2,0.9c-0.7,0.5-1,1-0.9,1.6
		c0.1,0.6,0.1,1.2-0.1,1.9c-0.1,0.5-0.2,1-0.5,1.6c-0.2,0.5-0.5,1.1-0.6,1.6c0,0.3-0.1,0.5-0.2,0.6c-0.1,0.1-0.1,0.3,0,0.6
		c0.5,2.3,0,4.7-1.4,7c-0.9,1.4-1.4,2.7-1.6,3.9c-0.1,0.9-0.1,1.8-0.1,2.6c0,0.9-0.4,1.6-1.1,2.3c0.1,0,0.1,0.2-0.2,0.6
		c0.2,1.3,0.1,2.6-0.5,3.9c-0.5,1.3-0.9,2.6-1.2,4c-0.1,0.1-0.1,0.4-0.2,0.6c-0.1,0.3-0.1,0.4,0,0.4c0.9,0.7,1.1,1.3,0.7,1.9
		c-0.4,0.6-0.7,1-0.8,1.3c-1.2,1.4-1.8,3-1.8,4.8c0,1.7-0.2,3.4-0.6,5.1c-0.6,2.2-1,4.3-1.3,6.4c-0.3,2.1-0.6,4.3-0.9,6.5
		c0,0.3,0,0.6,0.1,0.9c0.1,0.3,0.1,0.6,0,0.9c-0.1,0.4-0.2,0.8-0.4,1.2c-0.2,0.4-0.3,0.8-0.4,1.2c-0.1,0-0.2,0.1-0.4,0
		c-0.1,0-0.3,0-0.4,0c0.5,0.6,0.8,1.1,0.9,1.5c-0.8,0.9-1.3,1.7-1.6,2.3c-0.3,0.7,0.3,1.4,1.6,2.3c-0.2,0.1-0.5,0.2-0.7,0.4
		c-0.3,0.2-0.5,0.3-0.7,0.3c0,0.1,0,0.2,0,0.2c-0.1,0-0.1,0.1,0,0.2c0.2,0.6,0.4,1.1,0.7,1.6c0.3,0.5,0.4,1.1,0.5,1.7
		c0.1,0.6,0.1,1.1-0.1,1.6c-0.1,0.5-0.2,1-0.3,1.7c-0.1,0.5-0.1,1-0.2,1.5c-0.1,0.5-0.5,0.8-1.4,1c-0.2,0.1-0.4,0.3-0.4,0.6
		c-0.1,0.3-0.2,0.7-0.3,1c0.1,0.1,0.3,0.2,0.4,0.2c0.1,0.1,0.2,0.2,0.4,0.2c0.5-0.7,0.9-1.1,1.1-1.3l0.6,0c-0.2,1.1-0.4,2.2-0.6,3.2
		c-0.2,1.1-0.4,2.3-0.6,3.8c0.2,0.2,0.4,1,0.5,2.5c0.2,1.5,0.3,3.1,0.3,4.8c0.1,1.7,0,3.3,0,4.9c-0.1,1.5-0.3,2.4-0.7,2.7
		c0,0.7,0.1,1.5,0.1,2.2c0.1,0.7,0.2,1.4,0.3,2.1c0.2,1.2,0.4,2.3,0.6,3.4c0.2,1.1,0.4,2.3,0.6,3.4c0.1,0.6,0.1,1.1,0.1,1.6
		c0,0.5,0,1,0.1,1.6c0,0.6,0.1,1.2,0.3,1.9c0.2,0.6,0.3,1.2,0.3,1.9l0.1,0.2c0.2-0.8,0.4-1.7,0.5-2.5c0.1-0.9,0.4-1.7,0.7-2.6
		c0.5-1.8,1-3.6,1.6-5.3c0.6-1.8,1.3-3.5,2-5.3c0.1-0.3,0.3-0.6,0.6-0.8s0.3-0.4,0.2-0.6c0-2.7,0.3-5.4,0.8-7.9
		c0.5-2.5,1.4-5,2.7-7.5c0.7-1.5,1.4-3,2-4.5c0.7-1.5,1-2.9,1.2-4.3c0-1.7,0.2-3.4,0.7-4.8c0.5-1.5,1-2.9,1.6-4.4
		c0.5-1.2,1.1-2.2,1.8-3.3c0.8-1,0.9-2.3,0.3-3.8c0.9-0.3,1.5-0.7,1.8-1.3c0.3-0.5,0.5-1.1,0.6-1.7c0.1-0.6,0.1-1.2,0.1-1.9
		c0-0.7,0.1-1.3,0.3-1.9c0.9-2.4,1.8-4.9,2.7-7.4c0.9-2.5,1.9-5,2.9-7.5c0.8-1.6,1.6-3.3,2.5-4.9c0.9-1.6,1.5-3.3,1.9-4.9
		c0.4-1.5,1.1-2.8,2-3.8c0.9-1,1.9-2,3-2.9c-3.9,8.9-7.4,17.8-10.6,26.7c-3.2,9-6.1,18.1-8.8,27.2l1.3,0.6c1.1-3.2,2.2-6.4,3.3-9.5
		c1.1-3.1,2.3-6.2,3.4-9.3l0.8,0.1c-0.3,1.2-0.6,2.5-0.9,3.8C372.1,384.4,371.8,385.7,371.5,386.9z M334.3,421.8
		c0-0.6,0-1.3-0.1-1.9c-0.1-0.6-0.1-1.3-0.1-1.9c0.1-0.4,0.3-0.8,0.6-1.2c0.3-0.4,0.6-0.7,1-1.1c-0.7-0.2-1.2-0.4-1.5-0.5
		c-0.3-0.1-0.6-0.2-1-0.3c0-0.6,0.1-1.2,0.2-1.6c0.1-0.4,0.2-0.8,0.3-1.2c0-0.7-0.1-1.5-0.3-2.1c-0.2-0.7-0.3-1.4-0.3-2.1
		c0-1.6,0.1-3.2,0.1-4.8c0-1.6,0-3.1,0.1-4.8c0-2,0.1-4,0.1-5.9c0.1-1.9,0.1-3.9,0.3-6c0.1-1.1,0.2-2.3,0.3-3.4
		c0.1-1.1,0.3-2.2,0.5-3.3c0.1-1,0.3-2,0.4-3c0.2-0.9,0.3-1.9,0.4-3c0.2-1.5,0.4-2.9,0.6-4.2c0.2-1.4,0.4-2.8,0.6-4.2
		c0.1-0.4,0.2-0.8,0.4-1.2c0.2-0.4,0.2-0.7,0.1-1.1c-0.4-1.2-0.5-2.3-0.2-3.4c0.3-1,0.6-2.1,0.8-3.2c0.1-0.8,0.3-1.5,0.7-2.3
		c0.4-0.8,0.6-1.5,0.7-2.3c0.2-1.1,0.3-2.2,0.3-3.4c0-1.2,0.1-2.3,0.3-3.4c0.3-1.9,0.7-3.7,1-5.4c0.4-1.7,0.7-3.5,1.1-5.3
		c0.1-0.5,0.1-1,0.1-1.4c0-0.4,0-0.9,0.1-1.4c-1.3,0.2-2,0.6-2.3,1.3c-0.2,0.6-0.2,1.4,0,2.3c0.3,1.3,0.3,2.4,0,3.6
		c-0.3,1.1-0.6,2.3-0.8,3.5c-0.1,0.7-0.5,1-1,0.9c-1,0.1-1.4,0.4-1.4,1.1c0,0.6,0,1.2,0,1.9c0.9-0.6,1.4-1,1.7-1.4
		c0.3,1.6,0.2,2.7-0.5,3.3c-0.7,0.6-1.7,1-3.1,1.3c-0.1,0.4-0.1,0.8-0.1,1.3c0,0.4,0,0.8-0.1,1.3l0.6,0.2c0.4-0.4,0.7-0.7,1.1-1.1
		c0.4-0.3,0.8-0.7,1.3-1.1l0.2,0.1c-0.1,0.4-0.3,0.9-0.5,1.4c-0.2,0.5-0.3,1-0.5,1.4c-0.4-0.1-0.8-0.2-1-0.2c-0.3,0-0.5-0.1-0.8-0.3
		l-0.6,0.6c0.5,0.3,1.2,0.9,2.2,1.8c-0.2,0.2-0.5,0.4-0.8,0.6c-0.4,0.2-0.7,0.4-1,0.6c-0.3,0.3-0.6,0.6-0.9,0.8
		c-0.4,0.2-0.6,0.4-0.6,0.7c0.1,1.7-0.1,3.5-0.7,5.3c-0.2,1.1-0.5,2.1-0.7,3.1c-0.2,1-0.4,2-0.5,3.1c-0.1,0.9-0.1,1.7,0,2.5
		c0,0.8,0.1,1.6,0.1,2.3l0.6,0.5c0.6-0.5,1-0.7,1.2-0.8c0.3,0.1,0.5,0.3,0.7,0.5c-0.1,0.3-0.4,0.6-0.7,0.8c-0.3,0.2-0.5,0.6-0.5,0.9
		c-0.1,1-0.1,2-0.1,2.9c0.1,0.9,0.1,1.9,0.1,2.9c-0.1,0.5-0.2,1-0.4,1.6c-0.2,0.5-0.4,1.1-0.6,1.6l-0.7-0.3c0.2-0.7,0.5-1.4,0.7-2.1
		c0.2-0.7,0.4-1.4,0.6-2.1c0-0.3,0-0.5-0.2-0.9c-0.2-0.3-0.3-0.6-0.4-0.8c-0.1,0.3-0.3,0.5-0.5,0.6c-0.2,0.1-0.3,0.3-0.3,0.6
		c-0.2,0.8-0.3,1.6-0.4,2.4c0,0.8-0.1,1.5-0.2,2.3c0,0.3-0.1,0.6-0.2,1.1c-0.1,0.5,0,0.8,0.2,1c0.1,0.2,0.3,0.3,0.8,0.3
		c0.4,0,0.8,0,1.3,0.1c-0.1,0.7-0.2,1.3-0.3,2c-0.1,0.7-0.2,1.4-0.3,2.1c-0.3-0.1-0.7-0.2-1.1-0.2c-0.4,0-1,0-1.8-0.1l2.2,6.1
		c-0.3,0.2-0.6,0.5-0.9,0.7c-0.3,0.2-0.6,0.5-1,0.7c0,0.1,0.1,0.2,0.2,0.2c0.1,0,0.1,0.1,0.2,0.2l2.2-0.2c0,0.6,0,1.2-0.1,1.6
		c0,0.4-0.1,0.9-0.1,1.4c-1.2,0.5-1.8,1.1-2,1.6c-0.2,0.5-0.1,1.8,0.3,3.9c0.3-0.7,0.6-1.4,0.8-1.9c0.2-0.5,0.5-1.1,0.8-1.9
		c0.1,1.1,0.3,2,0.4,2.9c0.1,0.8,0.2,1.6,0.2,2.4c-0.3,0.5-0.6,1-0.9,1.5c-0.2,0.5-0.5,1-0.9,1.5l1.5,1.1c-0.4,0.4-0.7,0.7-1,0.8
		c-0.3,0.2-0.7,0.5-1.2,0.9c0.6,0.2,1,0.4,1.4,0.5c0.4,0.2,0.7,0.3,1,0.5c-0.1,0.3-0.2,0.6-0.1,0.9c0,0.3,0.1,0.6,0.2,0.9
		c0.1,0.3,0.1,0.6,0,0.9c-0.1,0.3-0.3,0.6-0.7,0.8c-0.3,0.2-0.5,0.5-0.6,0.9c-0.1,0.4,0.2,0.7,0.9,0.9c0.6,0.2,0.9,0.4,0.9,0.8
		c0.1,0.4-0.2,0.7-0.8,1c-0.4,0.2-0.7,0.6-0.7,1.2c-0.1,0.4-0.1,1.1,0,2.1c-0.3,1.1,0,1.6,1,1.3c1.1-0.3,1.5,0.2,1.1,1.5
		c-0.1,0.3-0.2,0.6,0,0.9c0.1,1,0.2,1.8,0.4,2.7c0.2,0.8,0.4,1.7,0.6,2.6c0.2,0.7,0.5,1.3,0.9,1.9c0.3,0.6,0.7,1.3,1.1,2l0.5-0.2
		c-0.2-0.8-0.4-1.6-0.7-2.3c-0.3-0.7-0.5-1.4-0.5-2.2c-0.1-2.1-0.2-4.1-0.4-6.2C334.6,426,334.4,423.9,334.3,421.8z M337.8,403.2
		c-0.5-0.3-0.9-0.6-1.3-0.7c-0.4-0.2-0.7-0.4-1.1-0.6c0.4-0.5,0.9-1,1.3-1.3c0.4-0.3,0.2-0.8-0.8-1.5c0,0.4-0.1,0.6-0.4,0.7
		c-0.3,0.1-0.5,0.2-0.8,0.4c-0.3,0.2-0.5,0.4-0.6,0.6c-0.2,0.2-0.1,0.6,0.2,1.1c0.3,0.5,0.6,1,0.9,1.4c0.3,0.4,0.6,0.9,0.9,1.4
		l0.5-0.2c-0.3,0.5-0.6,1-1,1.5c-0.3,0.5-0.7,1.1-1.1,1.7c0.4,0.1,0.8,0.1,1.1,0.1c0.4-0.1,0.7,0,1,0.1c0,0.5,0.1,0.9,0.1,1.4
		c0,0.4,0,0.8,0,1c-0.5,0.3-0.9,0.5-1.3,0.6c-0.3,0.1-0.7,0.3-1.1,0.6c0.6,0.4,1.2,0.7,1.6,0.9c0.4,0.2,0.9,0.5,1.4,0.8
		c0.1-0.3,0.3-0.6,0.5-0.8c0.2-0.3,0.3-0.5,0.4-0.8c0-1.4-0.1-2.8-0.2-4.1C338,405.9,337.9,404.6,337.8,403.2z M338.3,425.1
		c0-0.3,0-0.5-0.2-0.7c-0.2-0.2-0.2-0.3-0.2-0.5c0.6-1.2,0.7-2.4,0.4-3.6c-0.3-1.2-0.4-2.4-0.4-3.7c0-0.6,0-1.2-0.2-1.8
		c-0.1-0.6-0.3-1.2-0.3-1.7c-0.5,0.1-0.9,0.1-1.3,0.2c-0.4,0.1-0.9,0.2-1.5,0.3c0.4,0.5,0.9,0.9,1.4,1.4c0.5,0.4,0.8,0.9,0.7,1.4
		c-0.2,1.2-0.2,2.4,0,3.5c0.2,1.2,0.1,2.3-0.3,3.5c-0.1,0.3-0.1,0.7,0.1,1.2c0.2,0.5,0.3,1,0.5,1.4c0,0.1,0.4,0.2,1,0.2
		c0.1-0.1,0.2-0.3,0.3-0.5C338.4,425.5,338.4,425.3,338.3,425.1z M340.6,384.1c0.7-0.8,1.2-1.3,1.5-1.6c-0.2-0.4-0.4-0.7-0.6-0.9
		c-0.6,1.2-1.3,1.8-2.2,1.8c-0.9,0-1.9-0.3-2.9-0.8c0.3,0.5,0.5,0.9,0.6,1.3c0.1,0.3,0.3,0.7,0.5,1c-0.5-0.1-1.2-0.1-1.9-0.1
		c-0.1,0.5-0.1,1-0.2,1.5c-0.1,0.5-0.2,0.9-0.3,1.3c0,0.1,0.1,0.2,0.2,0.2c0.1,0,0.1,0.1,0.2,0.2c0.3-0.3,0.5-0.6,0.8-0.8
		c0.3-0.2,0.6-0.4,0.8-0.8c0.2,0.8,0,1.6-0.5,2.3c-0.4,0.4-0.7,0.7-1.1,0.9c-0.4,0.2-0.7,0.5-0.9,0.8c0.6,0.3,1.1,0.4,1.5,0.6
		c0.4,0.1,0.8,0.3,1.1,0.4c-0.5,0.4-1.1,0.8-1.8,1.2c0.2,0.6,0.6,1.2,1.1,2l-1.2,1.4c0.4,0.1,0.7,0.2,1,0.3s0.6,0.2,0.8,0.4
		c-0.3,0.2-0.5,0.4-0.8,0.6c-0.2,0.2-0.5,0.3-0.8,0.6c0.5,0.3,0.9,0.6,1.4,0.8c0.4,0.2,0.9,0.4,1.3,0.6c0.2-1.4,0.3-2.9,0.3-4.4
		c0-1.5,0.6-2.8,1.9-4.1c-0.3-0.1-0.5-0.2-0.7-0.3c-0.2-0.1-0.3-0.2-0.5-0.4c-0.4-0.4-0.6-0.7-0.6-1.1c0-0.3,0.1-0.5,0.3-0.8
		c0.2-0.2,0.3-0.3,0.5-0.3c0.8,0.1,1.3-0.1,1.4-0.5c0.2-0.4,0.3-0.9,0.4-1.3c-0.4-0.1-0.8-0.2-1.2-0.3c-0.4-0.1-0.7-0.2-1-0.4
		c0.1-0.3,0.4-0.5,0.7-0.7C340.3,384.6,340.5,384.4,340.6,384.1z M334.5,366c-0.2,0.9-0.2,2.1,0,3.6c-0.5-0.1-0.8-0.1-0.9,0
		c0-0.6,0-1.2,0-1.9c0-0.6,0-1.2,0-1.9C333.7,365.8,334,365.9,334.5,366z M336.5,380.8c0.2,0.2,0.3,0.4,0.4,0.7
		c0.1,0.3,0.3,0.5,0.6,0.6c0.3,0.1,0.6,0.2,0.8,0.3c0.3,0,0.5,0.1,0.8,0.1c0.3-0.5,0.6-0.9,0.9-1.4c0.3-0.4,0.6-0.9,0.9-1.4
		c0.1-1-0.2-1.7-1-2.1c-0.8-0.3-1.5-0.5-2.2-0.5c-0.6,0.1-0.9,0.3-0.9,0.5c0,0.3,0,0.6,0.1,1c0.1,0.4,0.1,0.8,0.1,1.2
		C337.1,380.2,336.9,380.5,336.5,380.8z M340.7,373.3c-0.2-1.3-0.4-2.6-0.6-3.9c-0.2-1.3-0.3-2.6-0.6-3.9c-0.3,0.1-0.6,0.2-0.9,0.1
		c0,0.3,0,0.6,0,0.9c0.1,0.4,0.1,0.7,0,0.9c-0.7,0.1-1.2,0.3-1.4,0.6c-0.2,0.3-0.3,0.6-0.2,1c0.1,0.4,0.2,0.8,0.4,1.3
		c0.2,0.4,0.2,0.8,0,1.1c-0.1,0.1,0.2,0.4,0.9,0.9c0.7,0.5,1.2,0.9,1.6,1.4c0.1,0,0.2-0.1,0.3-0.2
		C340.5,373.4,340.6,373.3,340.7,373.3z M337.9,333.6c-0.3,1-0.5,1.9-0.7,2.8c-0.2,0.9-0.4,2.1-0.6,3.4l1.7-1
		c0.1-0.9,0.1-1.7,0.1-2.6c0-0.8,0-1.6-0.1-2.5L337.9,333.6z M342.5,361.6c0-0.6-0.1-1.3-0.4-2c-0.3-0.7-0.5-1.4-0.7-2.1l-0.9,0
		c-0.3,0.9-0.6,1.7-0.8,2.4c-0.3,0.8-0.5,1.6-0.8,2.4c-0.1,0.3-0.1,0.6,0,0.9c0.1,0.3,0.1,0.7,0,1.1l1.7-0.6c0,0.7,0.1,1.4,0.3,1.9
		c0.2,0.6,0.3,1.2,0.3,1.9l0.7-0.2c0-0.5-0.1-1.2-0.2-2.2c1.3-0.3,1.7-0.8,1.4-1.5C342.7,363.1,342.5,362.3,342.5,361.6z M342.6,375
		c0.3-1,0.4-1.9,0.6-2.8c0.1-0.9,0.3-1.9,0.5-3C341.7,370.5,341.3,372.5,342.6,375z M349,441c0,0.1,0,0.2,0,0.2
		c-0.1,0-0.1,0.1,0,0.2c0-0.1,0-0.2,0-0.2C349.1,441.2,349.1,441.1,349,441z M346.2,354.7c0-0.1-0.2-0.3-0.3-0.4
		c-0.2-0.2-0.4-0.4-0.6-0.5c-0.2,1.4-0.4,2.7-0.7,3.9c-0.2,1.1-0.5,2.3-0.7,3.3c0.7-0.5,1.2-1.4,1.7-2.8
		C346.1,356.8,346.3,355.7,346.2,354.7z M420,320.6c0.1,0.2,0.1,0.4,0,0.5c-0.1,0.1,0,0.2,0.1,0.4c0.6,0.9,0.9,1.8,0.8,2.6
		c0,0.8-0.2,1.6-0.5,2.4c-0.3,0.8-0.7,1.6-1.2,2.3c-0.5,0.7-0.8,1.5-1.1,2.2c-0.4,1-0.8,2-1.2,2.9c-0.4,1-0.7,2-1,3.1
		c-1.4,4.5-2.6,8.8-3.6,12.9c-0.1,0.8-0.3,1.6-0.7,2.4c-0.4,0.8-0.3,1.6,0.2,2.4c0,0.1,0,0.3-0.2,0.6c-0.1,0.7-0.3,1.3-0.5,1.8
		c-0.2,0.6-0.4,1.2-0.6,1.9c-0.3,0.9-0.4,1.7-0.3,2.5c0.1,0.8-0.2,1.7-0.9,2.5c-0.3,0.3-0.3,0.8-0.2,1.3c0.1,0.5,0.2,1,0.1,1.6
		c-0.1,0.5-0.2,1-0.3,1.4c-0.2,0.4-0.2,0.9-0.2,1.4c0,2.5-0.6,5.1-1.9,7.8c-0.6,1.2-1.1,2.4-1.5,3.5c-0.5,1.2-0.4,2.5,0.1,3.9
		c0.1,0.2,0.1,0.5,0,0.7c-0.1,0.3-0.1,0.5,0,0.8c0.1,0.6,0.2,1.1,0.3,1.6c0.1,0.5,0.2,0.9,0.4,1.4c-0.5,1.2-0.9,2.3-1.3,3.4
		c-0.4,1.1-0.9,2.3-1.4,3.6c0.7,0,1.3,0,1.6,0.2c0.3,0.1,0.4,0.4,0.3,0.8c0.1,0.2,0,0.4-0.4,0.5c-0.8,0.4-1.4,1-1.7,1.7
		c-0.3,0.7-0.1,1.7,0.5,2.8c0.1-0.5,0.2-1,0.3-1.6c0.1-0.5,0.2-1.1,0.3-1.6c0.1,0.1,0.2,0.1,0.3,0.1c0.1,0,0.2,0,0.3,0.1
		c0,0.6-0.1,1.2-0.1,1.8c0,0.6-0.1,1.2,0,2c-0.6,0-1.3,0-2.1,0c-0.1,1.2-0.2,2.3-0.3,3.5c-0.1,1.2-0.2,2.3-0.4,3.5
		c1,0.1,1.7-0.1,1.9-0.8c0.2-0.6,0.3-1.3,0.3-1.9c1,1.4,0.7,2.5-0.9,3.3c-0.6,0.3-1.2,0.8-1.7,1.3c-0.5,0.5-1.1,1-1.6,1.4
		c0.2,0.3,0.5,0.4,0.8,0.3c0.3-0.1,0.6-0.2,0.9-0.3c0.3-0.1,0.5-0.1,0.8,0c0.2,0.1,0.4,0.5,0.5,1c-0.5,0.7-0.8,1.1-0.8,1.4
		c-0.2,1.3-0.2,2.6-0.2,3.8c0,1.2,0,2.5-0.1,3.8l-0.1,9c0.1,0.7,0.5,1.5,1,2.3c0.2-1.1,0.5-2.2,0.7-3.3c0.2-1.1,0.4-2.2,0.7-3.3
		c0.1,0.1,0.2,0.1,0.3,0.1c0.1,0,0.2,0,0.3,0.1c0,0.3,0,0.6,0.1,0.9c0.1,0.3,0.2,0.6,0.1,0.9c0,1.5,0.1,3,0.2,4.4
		c0.1,1.5,0.1,2.9,0,4.3c-0.1,0.9-0.2,1.7-0.6,2.5c-0.3,0.8-0.6,1.7-0.9,2.8l1.5-0.5c0.2,1.3,0.4,2.7,0.6,4.1
		c0.2,1.4,0.4,2.8,0.6,4.1c0.1,0.6,0.2,1.2,0.3,1.8c0.1,0.6,0.3,1.1,0.4,1.7c0.3,1.1,0.6,2.2,1,3.3c0.4,1,0.7,2.1,1.1,3.1
		c0.2,0.7,0.4,1.3,0.4,1.9c0,0.6-0.6,1-1.9,1.2c0.5,0.8,1,1.5,1.3,2.2c0.3,0.6,0.7,1.2,1.1,1.8c0.5,0.6,1,0.7,1.5,0.5
		c0.5-0.2,1-0.5,1.6-0.8c0.5-0.4,1-0.8,1.5-1c0.5-0.2,1-0.5,1.6-0.8c1.2,3.3,0.5,5.8-2,7.4c-0.6,0.2-0.9,0.2-1.1,0
		c-0.9-0.5-1.9-0.7-2.8-0.5c-0.9,0.2-1.9,0.3-2.9,0.3c-0.4,0-0.7-0.1-1.1-0.4c-0.4-0.3-0.7-0.5-1.2-0.6c-3.8-1.1-6.7-3.1-8.7-5.8
		c-2-2.8-3.7-5.9-5-9.4c-0.8-1.9-1.5-4-2.2-6c-0.6-2.1-1.2-4.2-1.7-6.2c-0.3-1.3-0.5-2.4-0.6-3.6c-0.1-1.1-0.3-2.4-0.5-3.7
		c-0.2-2-0.5-4.1-0.7-6.1c-0.2-2-0.4-4.1-0.5-6.2c-0.1-2.1-0.2-4.1-0.2-6.1c0-2,0-4-0.1-5.9c0.1-3.6,0.1-7.3,0.1-11
		c0-3.7,0.1-7.4,0.3-11c0.1-4.4,0.3-8.8,0.6-13.1c0.2-4.3,0.5-8.7,0.7-13.1c0.3-3,0.7-5.9,1.1-8.8c0.4-2.9,0.8-5.8,1.1-8.8
		c0.5-2.9,0.9-5.8,1.3-8.7c0.4-2.9,0.8-5.8,1.3-8.7c0-0.6,0.1-1.2,0.4-1.8c0.2-0.6,0.4-1.2,0.4-1.8l-0.1-0.2
		c-1.4,2.4-2.8,4.8-4.2,7.2c-1.4,2.4-2.7,4.8-4,7.1c-0.1,0-0.3,0-0.6-0.2c1.5-2.7,3-5.2,4.4-7.7c1.4-2.5,2.8-5.1,4.3-7.7
		c-0.1-0.2-0.1-0.4-0.1-0.4c0-0.1,0-0.2-0.1-0.4c0.3-1.1,0.6-2.3,0.9-3.5c0.3-1.2,0.6-2.4,1.1-3.6c0.6-1.5,1.4-2.9,2.4-4.2
		c1.4-2,3.2-2.5,5.5-1.4c0.3,0.1,0.6,0.2,0.9,0c1.3-0.2,2.5-0.1,3.5,0.3c1,0.4,2,1.1,2.9,1.9c0.7,0.6,1.5,1,2.5,1.2
		c0.9,0.2,1.8,0.4,2.7,0.7c0.3,0.1,0.5,0.2,0.6,0.2c0.1,0,0.3,0.1,0.5,0.3c0.6,0.4,1.3,0.8,1.9,1.3c0.6,0.5,1.2,0.9,1.7,1.4
		c0.2,0.2,0.3,0.4,0.5,0.8C419.7,320.2,419.9,320.4,420,320.6z M386.8,420.2c0,1,0,2.1-0.1,3.4c0.3-0.1,0.6-0.2,0.9-0.2
		c0.3,0,0.6-0.1,0.8-0.2c0.3-0.3,0.6-0.6,0.9-0.8c0.4-0.2,0.7-0.5,0.9-0.8c-0.1-0.2-0.1-0.4,0-0.6c-0.4,0-0.7,0.1-1.1,0.2
		c-0.3,0.1-0.7,0.2-1.1,0.2c-0.2-0.2-0.3-0.4-0.4-0.6c-0.1-0.2-0.2-0.4-0.4-0.6c-0.1,0-0.2,0-0.3,0
		C387,420.2,386.9,420.2,386.8,420.2z M396.6,414.9c-0.4,0-0.7,0-1,0c-0.3,0-0.6,0-1,0.2c-0.3,0.1-0.6,0.3-0.9,0.5
		c-0.3,0.2-0.6,0.5-0.9,0.7c0-0.6,0-1.2-0.1-1.6c-0.1-0.5-0.1-1-0.1-1.6c-0.1,0-0.2,0-0.3,0c-0.1,0-0.2,0-0.3,0
		c-0.3,1-0.6,1.9-0.9,2.8c-0.4,0.9-0.3,1.8,0.2,2.9c0.4,0.7,0.6,1.7,0.5,3c0,0.6-0.1,1.2-0.2,1.6c-0.1,0.5-0.2,0.8-0.3,1.1
		c-0.7-0.2-1.3-0.5-1.7-0.6c-0.4-0.2-0.9-0.3-1.3-0.6c0.2,1.2,0.4,2,0.4,2.5l-0.4,0.1c-0.2-0.3-0.4-0.6-0.5-0.8
		c-0.1-0.3-0.3-0.6-0.4-0.9c-0.1,0.8-0.2,1.6-0.4,2.3c-0.2,0.8,0.4,1.3,1.6,1.7c0.1,0,0.2,0.1,0.2,0.3c0,0.2,0,0.5,0,0.7
		c-0.1,0.5-0.2,1-0.3,1.4c-0.2,0.4-0.3,0.9-0.3,1.4l0.3-0.1c0.2,1,0.5,2.1,0.8,3.2c0.3,1.1,0.6,2.1,0.8,3.1l0.6,0
		c0.1-0.3,0.2-0.6,0.3-0.8c0-0.3,0-0.6,0-0.9l-0.6-9.3c-0.1-0.9,0.1-1.4,0.5-1.4c0.4,0,1,0.2,1.7,0.6c-1.2,0.2-1.7,0.6-1.5,1.2
		c0.2,0.6,0.3,1.2,0.3,1.9c0,0.3,0.1,0.6,0.3,1c0.2,0.4,0.3,0.7,0.5,1.1c0.3-0.2,0.5-0.4,0.8-0.6c0.2-0.1,0.6-0.4,0.9-0.6
		c0,0.2,0,0.5,0,0.7c0,0.3,0,0.5-0.1,0.6c-0.4,0.3-0.8,0.4-1.2,0.5c-0.4,0.1-0.6,0.3-0.5,0.5c0,0.7,0.1,1.4,0.3,2.1
		c0.2,0.7,0.3,1.4,0.4,2.3c0.2,0.6,0.3,1,0.3,1.4c-0.5,1.8-0.6,3.5-0.3,5.2c0.3,1.6,0.8,3.3,1.5,4.9l0.3,0.8c-0.6,1-0.7,1.8,0,2.3
		c0.6,0.6,0.9,1.3,0.9,2.2c0.1,0.1,0.3,0.1,0.6,0c0.2-0.4,0.4-0.9,0.7-1.3c0.3-0.4,0.5-0.8,0.8-1.3c-0.7-0.9-1.5-1.6-2.3-2.3
		l1.9-0.7c-0.2-0.2-0.4-0.4-0.6-0.7c-0.2-0.3-0.5-0.6-0.7-0.9c0.1-0.3,0.4-0.5,0.8-0.7c0.4-0.2,0.7-0.4,1-0.6
		c0.5-0.4,0.8-1.2,0.8-2.2c0.1-1.1-0.2-1.7-0.8-1.9c-1.2-0.5-1.8-1.1-1.9-1.8c-0.1-0.8-0.1-1.7,0.1-2.7c0.1-1,0.2-2.1,0.1-3
		c0-1,0-2.1,0-3.4c1.7-1.5,1.8-2.6,0.1-3.4c0.2-1.1,0.4-2.1,0.6-3.1c0.2-1,0.3-2,0.4-3c0.1-0.3,0.1-0.7,0-1.1
		c-0.2-0.4-0.3-0.7-0.5-0.8c-0.9-0.3-1.3-0.7-1.2-1.1c0.1-0.4,0.1-0.9,0.1-1.5c0.5-0.1,1.1-0.2,1.9-0.5L396.6,414.9z M395.1,409.4
		c0-0.5-0.1-0.9,0-1.4c0-0.4-0.1-0.8-0.3-1.1c-0.5-0.6-0.9-1.2-1.4-1.7c-0.5-0.6-0.7-1.3-0.7-2.2l-0.6-0.5c-0.2,1.1-0.3,2-0.4,2.9
		c-0.1,0.9-0.2,1.8-0.3,2.7c-0.2,0-0.4-0.1-0.4,0c0,0-0.2,0-0.4,0c0-0.5-0.2-1.2-0.5-2c-0.1-0.6-0.2-1.3-0.3-2.1
		c-0.1-0.8-0.3-1.2-0.5-1.2c-1.3-0.2-1.8-0.5-1.6-1c0.2-0.5,0.4-1.1,0.4-1.7c0-0.3,0-0.5-0.1-0.6c-0.1-0.1-0.2-0.3-0.3-0.5
		c-0.2-0.1-0.3-0.1-0.5,0c-0.2,0.1-0.4,0.1-0.8,0.1c0.1,0.9,0,1.7-0.1,2.6c-0.1,0.9,0,1.5,0.4,2c0.7,1,1.2,2,1.6,3.1
		c0.3,1.1,0.3,2-0.1,2.9c-0.3,0.6-0.5,1.4-0.6,2.3c-0.1,0.9,0,1.6,0.2,2c-0.7,0.4-1.1,1.2-1.2,2.4c-0.1,1.2,0.3,2.4,1.1,3.4
		c0-0.7-0.1-1.3-0.2-1.8c0.3,0.2,0.4,0.3,0.5,0.4l0.5,0.4c0.2,0.7,0.5,1.1,0.7,1.4c0,0.1,0.2,0.1,0.5,0c0.3-0.1,0.4-0.2,0.5-0.4
		c0.1-0.3,0.2-0.6,0.1-0.8c-0.1-0.2-0.1-0.5-0.1-0.7c0-0.3,0-0.5-0.1-0.7c-0.1-0.2-0.1-0.5-0.1-0.7c0-0.7,0-1.5-0.1-2.3
		c0-0.8,0-1.6,0.1-2.4c0-0.6,0.1-1.2,0.2-1.6c0.1-0.4,0.2-0.9,0.2-1.4c0.8,0.2,1.3,0.3,1.7,0.3c0.1,0.1,0.3,0.1,0.5,0l0.5-1.1
		C393.9,408.7,394.6,409.1,395.1,409.4z M392.2,449.5c-0.1-1.1-0.3-2.2-0.3-3.3c-0.1-1.1-0.2-2.3-0.4-3.3c0-0.1-0.4-0.3-1-0.6
		c0,0.3-0.1,0.5-0.3,0.6c-0.2,0.1-0.3,0.3-0.2,0.5c0.1,0.7,0.2,1.4,0.4,2.1c0.2,0.7,0.4,1.4,0.5,2.1c0.1,0.5,0.3,1.2,0.6,2.2
		L392.2,449.5z M386.7,395.5c-0.1,0.4-0.1,0.8,0,1.1c0.1,0.3,0.2,0.7,0.2,1.1c0.1,0.1,0.3,0.1,0.4,0c0.1,0,0.2,0,0.4,0
		c0-1,0.1-1.9,0.1-2.8c0.1-0.8,0.1-1.8,0.1-2.8c-0.1-0.2-0.3-0.4-0.6-0.5c-0.4,0.4-0.5,0.6-0.5,0.7c-0.1,0.5-0.1,1-0.1,1.5
		C386.8,394.4,386.8,394.9,386.7,395.5z M389.9,378.4c-0.9,4.9-1.2,10.2-0.9,15.8c0.8-0.3,1.2-0.5,1.1-0.8l-0.4-6
		c0-0.7,0.1-1.3,0.3-1.8C390.9,383.1,390.9,380.7,389.9,378.4z M394.9,398.5c0-0.4,0-0.7,0.1-1.1c0.1-0.3,0-0.6-0.2-0.8
		c-0.2-0.2-0.9-0.7-2.2-1.5l-0.4-1.2c-0.1,0.2-0.3,0.4-0.5,0.6c-0.2,0.2-0.2,0.3-0.1,0.4c0.5,0.8,0.6,1.6,0.3,2.3
		c-0.3,0.7-0.5,1.5-0.6,2.3c0,0.3,0,0.5,0.1,0.6c0.1,0.1,0.2,0.4,0.1,0.6c0.1,0.1,0.2,0.1,0.3,0.1c0.1,0,0.2,0,0.3,0.1
		c0.2-0.6,0.4-1.1,0.5-1.6c0.2-0.5,0.3-0.9,0.4-1.3c0.3,0.2,0.5,0.2,0.9,0.3C394.3,398.3,394.6,398.4,394.9,398.5z M395.5,390.3
		c-0.4,0.2-0.8,0.3-1.1,0.3c-0.3,0-0.6,0.1-0.8,0.2c0.1-1,0.2-2,0.2-2.9c0-0.9,0-1.9,0.2-3c-0.9,0.8-1.6,2.2-1.9,4.1
		c-0.3,1.9-0.2,3.2,0.3,3.9c0.4-0.2,0.9-0.3,1.4-0.4c0.5-0.1,1-0.3,1.5-0.5C395.1,391.9,395.2,391.3,395.5,390.3z M394.9,405.2
		c-0.1-0.6,0-1.2,0.3-1.9c0.3-0.7-0.1-1.2-1.2-1.5c0.2,0.6,0.2,1.2-0.1,1.9C393.7,404.4,394,404.9,394.9,405.2z M404.2,412.1
		c0.6,1.3,0.8,2.2,0.6,2.8c-0.2,0.6-0.8,0.9-1.9,1c0-0.3,0.1-0.5,0.1-0.8c0-0.3,0.1-0.5,0.1-0.8L404.2,412.1z"/>
	<g>
		<g>
			<path class="st1" d="M463.1,249c-0.4-0.1-0.7-0.2-1-0.3c-0.1,0-0.1,0-0.2,0c-0.4,0-0.8,0.4-1.3,0.9c-0.4,0.5-0.9,1-1.7,0.9
				c-0.6-0.1-0.9-0.5-1.3-1c-0.5-0.7-1-1.2-1.6-1.1c-0.1,0-0.2,0-0.3,0c0,0-0.2,0-0.3,0l-0.1,0l-0.3,0.1c-0.1,0-0.2,0-0.2,0.1
				c-0.8,0.2-1.5,0.5-2.1,0.8c-0.8,0.5-1.5,1.1-2,1.9c-0.9,1.4-1.3,3.2-1.2,5.2c0.6,10.8-3.3,19.2-6.2,25.4
				c-2.2,4.9-3.7,8.1-1.8,9.7c0.4,0.3,1,0.4,1.8,0.3c4.2-0.6,12.4-6.9,18.4-16l0,0c3.2-4.9,5.4-9.9,6.4-15c0.8-3.7,1.1-8.3-2.6-10.8
				C464.9,249.7,464,249.3,463.1,249z"/>
			<path class="st2" d="M460.8,241.3c0,1-0.3,2.2,0.2,3.1c0.6,0.9,2.2,1.7,3.1,2.3c1.6,1.4,3,3.5,1.5,2.6c-1.2-0.7-2.3-1.1-3.4-1.4
				c-1.7-0.4-2.5,1.8-3.2,1.7c-0.7-0.1-1.4-2.3-3.2-2.1c-0.8,0.1-1.7,0.2-3.3,1c-1.4,0.7,0.6-1.7,2.3-2.5c1.4-0.6,2.3-0.6,3.2-1.9
				c1.1-1.6,1.3-4.2,0.8-5.9c-0.2-0.7-0.5-2-0.9-2.8c-0.5-0.9,1.2-0.8,1.5-0.3c0.5,0.9,0.8,2.1,1.1,3.1
				C460.9,239.3,460.8,240,460.8,241.3z"/>
		</g>
		<path class="st0" d="M446,296.8c1.9,0.3,3.5,1,5,1.9c1.5,1,2.9,1.9,4.4,2.9c0.4,0.4,0.8,0.8,1.2,1.2c0.4,0.4,0.6,0.9,0.7,1.5
			c0.2,1.3,0.5,2.6,0.8,3.9c0.3,1.3,0.5,2.8,0.5,4.4c-0.4,2-0.9,3.9-1.6,5.8c-0.6,1.8-1.1,3.8-1.4,5.7c-0.1,1.8-0.2,3.6-0.4,5.5
			c-0.1,1.9-0.3,3.7-0.5,5.5c0,0.5,0,1,0,1.6c0,0.6-0.1,1.2-0.1,1.8c-0.2,0.7-0.4,1.5-0.4,2.3c0,0.8-0.2,1.6-0.6,2.3
			c0,1.4-0.2,2.8-0.7,4.4c-0.3,1-0.6,1.8-0.8,2.6c-0.3,0.8,0,1.6,0.8,2.4c0.3,0.3,0.4,0.8,0.3,1.6c-0.2,0.8-0.5,1.4-0.9,1.8
			c-0.9,1.4-0.8,2.7,0.2,3.7c0.9,0.7,1,1.3,0.3,1.7c-0.6,0.5-1,1.1-1.2,1.7c0.3,0.1,0.5,0.2,0.6,0.2c0.1,0,0.3,0,0.6,0.1
			c-0.1,0.7-0.3,1.4-0.5,2.1c-0.2,0.7-0.3,1.6-0.3,2.5c-0.4,1.8-0.6,3.8-0.8,6.1c-0.1,0.5-0.1,1.1,0,1.7c0.1,0.6,0.3,1,0.6,1.3
			c0.9,0.8,1.3,1.7,1.2,2.8c-0.4,0.9-0.5,1.8-0.2,2.7c0.1,0.7,0.2,1.3,0.3,1.8c0,0.5-0.3,1.1-1,1.9c-0.1,0.2,0,0.5,0.2,1
			c0.2,0.5,0.4,1,0.7,1.5c-0.4,0.8-0.5,1.4-0.5,1.9c0,0.5,0.4,1,1.2,1.6c0.1,0.2,0.1,0.5,0.2,1c0,0.4,0.1,0.9,0.3,1.3
			c0.2,1.3,0.5,2.6,0.8,3.9c0.3,1.3,0.5,2.6,0.8,3.9c-0.6,0.1-1.1,0.2-1.5,0.3c-0.4,0.1-0.8,0.2-1.3,0.3c0.1,0.2,0.1,0.4,0.1,0.4
			c0,0.1,0,0.2,0,0.3c0.4,0.1,0.8,0.2,1.3,0.2c0.4,0,0.9,0.1,1.4,0.1c0.1,1,0.3,2,0.7,3.1c0.4,1.1,0.3,2.4-0.1,3.8
			c-0.1,0.3-0.1,0.6,0.1,1c0.2,0.4,0.3,0.7,0.2,0.9c0,0.5,0.1,0.9,0.2,1.2c0.1,0.4,0,0.7-0.1,1c-0.7,1.1-0.8,2-0.3,2.7
			c0.5,0.7,1,1.4,1.5,2.2c0.3,0.5,0.7,1,1,1.6c0.4,0.5,0.7,1.2,0.9,1.8c0.8,1.5,0.3,2.2-1.3,2.1c-2.4,0-4.6-0.3-6.7-0.9
			c-2.1-0.6-3.7-1.9-5-4.1c-1-2-2.1-4-3.2-5.9c-1.2-1.9-2.1-4-2.8-6.3c-1-3.6-2-7.2-2.9-10.9c-0.9-3.7-1.6-7.4-2-11.2
			c-0.5-2-0.8-3.8-1-5.5c-0.2-1.7-0.4-3.6-0.6-5.7c-0.1-2-0.1-3.9-0.2-5.8c-0.1-1.9-0.2-3.9-0.3-6c-0.2-4.3-0.2-8.5-0.2-12.7
			c0-4.2,0-8.4,0.1-12.8c0.1-3.3,0.2-6.6,0.5-10c0.2-3.4,0.4-6.7,0.6-10c0.3-3,0.5-5.9,0.6-8.9c0.1-2.9,0.1-5.9,0.2-8.8
			c0-0.3,0.1-0.6,0.2-1c0.1-0.4,0.3-0.7,0.5-0.7C439.6,296.8,442.9,296.3,446,296.8z M438.4,392.3c0.1,0.6,0.2,1.2,0.2,1.7
			c0.1,0.5,0.1,1.1,0.2,1.7c0.3-0.1,0.8-0.1,1.3-0.1c-0.1-0.6-0.2-1.1-0.3-1.6c-0.1-0.5-0.2-1-0.3-1.6c0-0.1-0.2-0.2-0.4-0.1
			C438.9,392.3,438.6,392.3,438.4,392.3z M443,391.6c0-0.4-0.1-0.7-0.4-1.1c-0.2-0.3-0.5-0.7-0.8-1.1c-0.1,0.5-0.1,1-0.1,1.4
			c0,0.4-0.1,0.9-0.2,1.3l0.1,0.2c0.3,2.5,0.6,5,1,7.4c0.4,2.4,1.2,4.8,2.3,7.1c0.1,0.1,0.1,0.5-0.1,1.2c-0.5-0.7-0.9-1.4-1.4-2.2
			c-0.4-0.8-0.9-1.6-1.6-2.3c-0.2-0.3-0.3-0.7-0.3-1.1c0-0.4,0-0.9,0-1.3c0-0.4-0.2-0.8-0.4-1.1c-0.2-0.3-0.7-0.5-1.3-0.6
			c0.7,2.6,1.4,5.2,2.2,7.6c0.8,2.5,1.6,5,2.5,7.5c0.3,0.5,0.6,0.9,0.9,1.3c0.3,0.3,0.6,0.7,0.9,1.1c0.7-1.1,0.9-2,0.4-2.8
			c-0.4-0.7-0.9-1.4-1.2-2.2c-0.2-0.6-0.3-1-0.3-1.5c0-0.4,0.2-1,0.5-1.6c0.6-0.8,0.8-1.6,0.6-2.4c-0.1-0.8-0.6-1.4-1.3-2.1
			c0-0.6,0.1-1.3,0.3-1.9c0.2-0.6,0.2-1.2,0.1-1.6c-0.5-0.8-0.9-1.7-1.2-2.6c-0.3-0.9-0.3-1.9-0.2-2.9
			C444,394.2,443.7,392.9,443,391.6z M443.3,370.2c0.6-0.2,0.9-0.5,1-0.8c0.1-0.4,0.1-0.7,0.1-1.1c-0.1-0.4-0.1-0.7-0.2-1.1
			c-0.1-0.4,0-0.7,0.1-1.1c-1,0.1-1.6,0.1-1.9-0.1c-0.4,0-1.2-0.1-2.4-0.4c0,0.3-0.1,0.5-0.1,0.9c0,0.3,0,0.7,0,1
			c-0.1,1.5-0.1,3.1-0.2,4.7c0,1.6,0,3.3,0.1,5c0.1,1.6,0.2,3.2,0.4,4.8c0.2,1.6,0.4,3.3,0.5,5c0,0.3,0.1,0.5,0.3,0.7
			c0.2,0.2,0.4,0.4,0.6,0.6c0.2-0.2,0.4-0.4,0.7-0.6c0.3-0.2,0.4-0.5,0.3-0.7c-0.3-0.9-0.3-1.7-0.1-2.6c0.3-0.8,0.2-1.7-0.2-2.5
			c-0.2-0.3-0.3-0.7-0.1-1.4c0.2-0.6,0.3-1.2,0.3-1.7c0.6-1.2,0.9-1.9,0.9-2.2c-0.5-0.4-1-0.8-1.4-1.1c-0.4-0.3-0.7-0.5-0.7-0.8
			c0-1,0.1-2,0.2-3c0.1-1,0.2-1.9,0.1-2.8c0.3,0.1,0.6,0.3,0.9,0.6C442.8,370,443.1,370.1,443.3,370.2z M443.9,364.9
			c0.6-0.2,0.7-0.9,0.6-2c-0.2-1.1-0.5-2.1-1.1-3.1c-1.7,1.1-2.6,1.8-2.8,2.2c-0.1,0.4,0.1,0.9,0.8,1.7c0.3,0.4,0.7,0.7,1.2,0.9
			C443.1,364.8,443.5,364.9,443.9,364.9z M442.9,374.2c1.1-0.1,1.7-0.4,1.8-0.8c0.2-0.4,0-0.9-0.4-1.4c0-0.3-0.1-0.4-0.3-0.5
			c-0.2-0.1-0.5-0.1-0.8-0.3c-0.2,0.6-0.3,1.1-0.3,1.5C443,373.2,443,373.7,442.9,374.2z"/>
	</g>
	<path class="st0" d="M513.5,225.6c0.6,0.4,1.1,1,1.4,1.7c0.3,0.8,0.5,1.6,0.7,2.4c0.7,2.2,0.8,4.5,0.5,6.6
		c-0.3,2.2-1.1,4.3-2.2,6.5c-0.2,0.4-0.4,1.1-0.6,1.9c-0.3,0.9-0.5,1.7-0.7,2.6c-0.1,0.9-0.7,1.6-1.6,2.1c-0.2,0.1-0.3,0.2-0.4,0.5
		c0,0.3-0.1,0.5-0.3,0.8c-0.5,1.5-0.8,3.1-1.2,4.6c-0.3,1.5-0.6,3.1-1,4.6c-0.1,0.2-0.1,0.3,0,0.5c0.1,0.2,0.1,0.4,0,0.6
		c0,0.4,0,0.7,0,1.1c0,0.4-0.1,0.7-0.3,0.8c-1.5,1.3-2.2,2.7-2.1,4.3c0.1,1.6,0.2,3.1,0.2,4.6c0,0.6-0.1,1-0.2,1
		c-0.6,1.2-1.2,2.3-2,3.3c-0.1,0.2-0.1,0.3-0.1,0.3c0,0.1,0,0.2-0.1,0.3c-0.2,1.3-0.3,2.6-0.3,3.8c-0.1,1.2-0.2,2.5-0.3,3.9
		c0,0.3-0.1,0.5-0.3,0.8c-0.2,0.2-0.3,0.5-0.5,0.8c-0.3,1.1-0.5,2-0.6,2.6c-0.1,0.4-0.1,0.8,0,1.1c0.1,0.3,0.1,0.6,0,0.9
		c-0.1,1-0.3,2.1-0.4,3c-0.1,1-0.3,2-0.4,3c0,0.3,0,0.5,0,0.7c0,0.2,0,0.4-0.1,0.4c-1.5,1-1.3,2,0.5,2.8c-0.6,0.5-0.9,0.9-1,1.2
		c-0.1,0.3,0,0.9,0.1,1.6c0.3,0.8,0.3,1.6,0,2.5c-0.3,0.9-0.5,1.8-0.7,2.6c-0.1,0.4-0.2,0.8-0.2,1.1c0,0.3,0,0.7,0,1
		c0,0.4,0.1,0.8,0.1,1.2c0.1,0.4,0.1,0.9,0,1.4c-0.1,0.7-0.3,1.3-0.6,1.8c-0.2,0.5-0.1,1.2,0.4,2c0.4,0.5,0.5,1.1,0.1,2
		c-0.3,0.9-0.5,1.7-0.6,2.5c0,0.6,0,1.2-0.1,1.7c0,0.5,0,1.1-0.1,1.7c0,0.7-0.2,1.4-0.7,1.9c-0.1,0.3-0.3,0.7-0.6,1.1
		c-0.2,0.4-0.5,0.8-0.9,1.3c0.4,0.1,0.8,0.2,1.1,0.2c0.3,0,0.7,0,1.3,0.1c-0.3,0.3-0.5,0.7-0.8,0.9c-0.3,0.3-0.5,0.6-0.6,0.9
		c0.4,0.4,0.6,1,0.7,1.8c0.1,0.9-0.1,1.5-0.6,2.1c-0.4,0.6-0.5,1.4-0.3,2.3c0.2,0.9,0.7,1.6,1.4,1.9c-0.1,0.8-0.2,1.5-0.2,2.2
		c-0.1,0.7-0.2,1.4-0.3,2.1c-0.7,0.5-1.4,0.9-2,1.1c-0.7,0.2-1.2,0.6-1.7,1c-0.2,0.1-0.4,0.3-0.4,0.7c0,0.4,0,0.6,0.2,0.7
		c0.3,0.1,0.6,0.2,0.8,0.3c0.3,0,0.5,0.1,0.8,0.1c0.2-0.1,0.4-0.3,0.7-0.5c0.2-0.3,0.6-0.4,1-0.5c-0.3,1.2-0.5,2.5-0.7,3.8
		c0.2,0.6,0.3,1.1,0.4,1.7c0.1,0.6-0.3,1.2-1.2,1.7c0.6,0.2,1.1,0.4,1.7,0.7c-0.1,0.8-0.1,2.3,0.1,4.4c0.2,2.2,0.4,4.7,0.8,7.5
		c0.4,2.8,0.8,5.8,1.3,9c0.4,3.1,0.9,6,1.4,8.6c0.5,2.6,1,4.8,1.5,6.7c0.5,1.8,0.9,2.9,1.2,3.1l5.1,13.3l-0.3,0.3l0.5,0.9
		c0.3,0.9,0.6,1.5,0.9,1.9c0.5,0.6,0.9,1.2,1.5,2c0.5,0.7,0.9,1.5,1.3,2.3c0.3,0.8,0.6,1.5,0.7,2.1c0.1,0.6,0,0.9-0.3,1
		c-0.8,0.2-1.6,0.3-2.4,0.5c-0.8,0.1-1.5-0.2-2.1-0.9c-0.1-0.2-0.2-0.3-0.5-0.2c-2.3-0.2-4.3-1-6-2.4c-1.7-1.4-3.4-3-5-4.7
		c-0.5-0.6-0.9-1.2-1.4-1.7c-0.5-0.6-0.9-1.2-1.4-1.7l-0.2,0.1c-0.1-0.3-0.3-0.5-0.4-0.6c-0.3-0.4-0.4-0.8-0.5-1.3
		c0-0.5-0.1-1-0.1-1.4c-0.7,0.5-1.2,0.4-1.5-0.4c-0.3-0.8-0.6-1.4-0.9-1.9c-1.6-3.4-3-6.9-4.4-10.4c-1.3-3.5-2.4-7.1-3.2-10.8
		c-0.6-2.3-1.1-4.5-1.6-6.7c-0.5-2.2-0.9-4.4-1.2-6.7c-0.5-2.9-0.9-5.9-1.2-8.7c-0.4-2.9-0.7-5.7-1.2-8.5l0.7-0.2
		c0.2,0.7,0.5,1.3,0.7,2c0.2,0.7,0.4,1.3,0.5,2c0.1,0.9,0.1,1.6,0.2,2.4c0.1,0.7,0.1,1.5,0.2,2.4c0.2,1.5,0.4,3,0.6,4.4
		c0.2,1.4,0.5,2.9,0.8,4.4c0.4,2,0.7,4,1.1,6c0.4,2,0.7,4,1.1,6c0.1,0.6,0.2,1.1,0.4,1.6c0.2,0.5,0.4,1,0.6,1.6c0,0.5,0.1,1,0.1,1.4
		c0,0.5,0.2,0.9,0.3,1.4c0.1,0.3,0.3,0.6,0.6,0.9c0.3,0.3,0.5,0.6,0.7,0.9l0.6-0.2c-0.3-1.5-0.6-3-0.9-4.3c-0.3-1.4-0.6-2.8-0.9-4.3
		l0.7-0.2l1.6,4.5c0.1,0.3,0.2,0.7,0.3,1.1c0.1,0.4,0.2,0.8,0.3,1.1c0.2,0.6,0.4,1.1,0.7,1.6c0.3,0.5,0.2,1.2-0.2,1.9
		c-0.2,0.2-0.1,0.7,0.1,1.4c0.6,1.4,1.2,2.7,1.7,4c0.5,1.3,1.1,2.7,1.7,4c-0.6,0-1.3,0-2.1,0l-0.3,0.7c0.6,0.3,1.1,0.5,1.7,0.7
		c0.5,0.2,1.1,0.5,1.9,0.8c-0.4,0.4-0.7,0.6-0.9,0.8c-0.3,0.2-0.6,0.4-0.9,0.8c1,0.1,1.8,0.4,2.3,0.9c0.5,0.5,0.7,1.1,0.8,2
		c0.1,0.2,0.3,0.4,0.6,0.6c0.3,0.2,0.6,0.4,0.9,0.5c0-0.3,0.1-0.6,0.1-0.9c0.1-0.3,0.1-0.6,0-0.8c-0.6-1.3-1.1-2.6-1.7-3.9
		c-0.6-1.3-1.1-2.6-1.7-3.9c-0.1-0.3-0.2-0.7-0.2-1.1c0-0.4-0.1-0.7-0.1-0.9c0-0.4-0.1-0.7-0.3-1c-0.2-0.3-0.3-0.6-0.4-0.8
		c-0.1-0.3-0.2-0.7-0.3-1c-0.1-0.3-0.2-0.7-0.3-1c-0.4-1.6-0.9-3.2-1.4-4.8c-0.5-1.6-0.9-3.2-1.3-4.9c-0.1-1.1-0.2-2.1-0.3-3.1
		c0-1-0.2-2-0.4-3c-0.2-1.3-0.5-2.6-0.8-3.9c-0.3-1.3-0.7-2.8-1-4.4c0.5,0,0.9-0.1,1.4-0.3c0.5-0.2,1-0.3,1.6-0.4
		c0-0.4-0.1-0.7-0.2-1.1c-0.1-0.3-0.2-0.7-0.3-1.2c-0.1,0-0.2,0-0.3,0c-0.1,0-0.2,0-0.3,0c-0.1,0.3-0.3,0.5-0.4,0.7
		c-0.1,0.2-0.2,0.4-0.4,0.7c-1-1.1-1.5-2.3-1.6-3.6s0.3-2.1,1.3-2.4l1.2,3.3l0.3-0.1c0-0.7,0-1.5,0.1-2.2c0.1-0.7,0.1-1.5,0-2.5
		c-1.1,0-2.2,0-3.4,0.1c0.1-0.4,0.4-0.7,0.8-0.8c0.5-0.1,0.9-0.2,1.3-0.3c0.4-0.1,0.7-0.3,0.9-0.6c0.2-0.3,0-0.9-0.6-1.7
		c0.3-0.3,0.6-0.7,0.9-1.1c0.3-0.4,0.7-0.8,1.2-1.2c-0.5,0.1-1,0.1-1.5,0c-0.7,0.9-1.4,1.2-2.2,0.9c-0.8-0.3-1.5-0.4-2.3-0.3
		c-0.4,1.1-0.6,1.8-0.7,2.2c0.1,0.1,0.3,0.1,0.4,0c0,0.6,0,1.2,0,1.7c0,0.5,0.1,1,0.2,1.6c0,0.3,0,0.6,0,0.9c0.1,0.4,0.1,0.7,0,0.9
		l0.7,5.3c0.1,1.3,0.1,2.6,0.2,3.9c0,1.2,0.1,2.4,0.3,3.6c0.1,0.6,0.3,1.1,0.6,1.6c0.3,0.5,0.5,1,0.7,1.5c0,0.3-0.1,0.6-0.1,0.9
		c-0.1,0.3-0.1,0.6-0.1,0.9c-0.7-0.5-1.1-1-1.3-1.4c-0.3-1.6-0.7-3.2-1-4.8c-0.3-1.6-0.6-3.2-0.8-4.8c-0.3-2.1-0.5-4.3-0.7-6.4
		c-0.2-2.1-0.4-4.2-0.5-6.4c-0.1-0.6-0.2-1.1-0.3-1.5c-0.1-0.4-0.1-0.9-0.1-1.5c0-0.3,0.1-0.5,0.3-0.7c0.2-0.2,0.3-0.4,0.5-0.7
		c0.1,0.1,0.2,0.1,0.3,0.1c0.1,0,0.2,0,0.3,0.1c0,0.4,0.1,1,0.2,2c1-0.1,1.6-0.2,1.9-0.3c0-1.5-0.1-3-0.3-4.5
		c0.8,0.1,1.7,0.1,2.8,0.1c1.3-1.5,0.6-2.9-2.3-4.3c0,0.3-0.1,0.4-0.2,0.5c-0.1,0.1-0.1,0.2-0.1,0.3c0.3,0.9,0.3,1.5-0.2,1.8
		c-0.4,0.3-1,0.5-1.8,0.5c-1.3,0.2-2-0.5-2-2.1c0.1-1.9,0.2-3.8,0.3-5.6c0.1-1.9,0.3-3.7,0.3-5.6c0.1-0.4,0.1-0.8,0-1.1
		c-0.1-0.3-0.2-0.6-0.2-0.7c0.5-0.3,0.9-0.5,1.3-0.6c0.3-0.1,0.6-0.3,0.9-0.5c-0.3-0.1-0.6-0.3-0.9-0.6c-0.3-0.3-0.6-0.6-1-1
		c0.2-0.4,0.3-1,0.2-1.6c-0.1-0.6-0.2-1.2-0.3-1.8c-0.1-0.6-0.1-1.1,0-1.7c0.1-0.5,0.3-1,0.7-1.6c-0.1-1-0.2-1.9-0.3-2.9
		c-0.1-1-0.1-1.9-0.1-2.9c0.1-1.4,0.3-2.9,0.5-4.4c0.2-1.5,0.4-3,0.4-4.5c0.1-0.8,0.1-1.6,0.1-2.4c0-0.8-0.1-1.6-0.1-2.5
		c0.2-0.8,0.5-1.4,0.9-1.6l-0.1,4.5c0.1,0,0.2,0,0.3,0c0.1,0,0.2,0,0.4-0.1c0-0.3,0.1-0.5,0.1-0.7c0-0.2,0.1-0.5,0.3-0.8
		c0-0.6,0.1-1.3,0.2-2c0.1-0.7,0.2-1.3,0.2-2c0-0.4-0.1-0.9-0.4-1.7l-1.3,0.5l-0.4-0.2c0.4-0.4,0.7-0.8,0.9-1.2
		c0.2-0.4,0.5-0.8,0.7-1.1c0.3-0.5,0.6-1,0.8-1.6c-0.4,0-1-0.1-1.9-0.4c0.2-0.8,0.4-1.7,0.5-2.7c0.1-1,0.3-2,0.5-3.1
		c0.3,0.1,0.5,0.2,0.7,0.2c0.1,0,0.4,0.1,0.7,0.2c-0.6-1-1.1-2-1.4-3.1s0.3-2,1.8-2.9c-0.8-0.6-1.3-1.5-1.5-2.6
		c-0.2-1.2-0.1-3.3,0.4-6.3c-0.2,0.4-0.5,0.9-0.8,1.3c-0.3,0.4-0.5,0.9-0.6,1.4c-0.3,2.9-0.7,5.7-1,8.6c-0.3,2.8-0.6,5.7-0.9,8.7
		c-0.2,0.9-0.4,1.8-0.7,2.6c-0.3,0.8-0.5,1.6-0.6,2.3c-0.2,1.2-0.3,2.3-0.3,3.4c0,1.1,0,2.2-0.1,3.4c-0.1,0.4-0.2,0.8-0.3,1.2
		c-0.1,0.4-0.1,0.9-0.1,1.3c-0.1,1-0.1,2.1,0,3.3c0.1,1.1,0.1,2.4,0.1,3.8c-0.3-0.5-0.6-0.9-0.9-1.1c-0.3-0.2-0.4-0.5-0.3-0.7
		c0-1,0.1-1.9,0.1-2.8c0.1-0.9,0.1-1.8,0.2-2.7c0.2-2.7,0.3-5.3,0.5-8c0.2-2.7,0.4-5.4,0.7-8.1c0.2-2.6,0.5-5.1,0.8-7.7
		c0.3-2.5,0.7-5.1,1-7.7c0.6-4.3,1.1-8.6,1.6-12.8c0.5-4.2,1-8.4,1.6-12.6c0.6-3.7,1.2-7.3,2.1-10.8c0.9-3.5,1.7-7.1,2.6-10.6
		c0.2-1.2,0.6-2.3,1.3-3.3c0.6-1,1.5-1.6,2.5-1.8c0.8-0.2,1.7-0.5,2.6-0.9c0.9-0.4,1.9-0.2,2.9,0.6c0.3,0.3,0.8,0.3,1.4,0.1
		c0.6-0.2,1.3-0.2,1.9-0.2c1.8,0.2,3.6,0.5,5.4,0.9C510.5,223.8,512.1,224.5,513.5,225.6z M479.6,344.3c0.1,1.2,0.1,2.5,0.1,3.9
		l-0.8-0.1c-0.1-1.2-0.1-2.5-0.1-3.7c0-1.2-0.1-2.5-0.2-3.9l0.8,0.1C479.5,341.9,479.6,343.1,479.6,344.3z M479.4,325.7
		c0.1,2.3,0.2,4.6,0.2,6.9c0.1,2.3,0,4.6-0.2,6.9c-0.1-0.1-0.3-0.1-0.4,0c-0.1,0-0.2,0-0.4,0c0-2.4,0-4.7,0-6.9c0-2.2,0-4.5,0-6.9
		c0.1,0.1,0.2,0.1,0.3,0.1C479.1,325.6,479.2,325.7,479.4,325.7z M479.2,315.4c0.2,0.3,0.4,0.8,0.6,1.6c0.1,0.8,0.2,1.6,0.2,2.5
		c0,0.9,0,1.8-0.1,2.8c-0.1,0.9-0.3,1.6-0.4,2.2c-0.2,0.1-0.4,0.1-0.6,0c0.1-1.4,0.2-2.9,0.2-4.4C479.1,318.5,479.1,317,479.2,315.4
		z M490.7,337c-0.1-0.8-0.1-1.6,0-2.3c0.1-0.7,0.1-1.4,0.1-2l-0.4-0.2c-0.3,0.5-0.6,1-1,1.5c-0.3,0.5-0.7,1.1-1.1,1.7
		c-0.1-0.2-0.2-0.4-0.4-0.7c-0.2-0.2-0.4-0.5-0.4-0.7l-1.7-4.6c-0.8,0.5-1,1.3-0.7,2.3c0.1,0.3,0.1,0.7-0.1,1.2
		c-0.2,0.5-0.4,0.8-0.5,1.1c-0.1,0.3-0.3,0.5-0.4,0.7c-0.1,0.2-0.3,0.4-0.4,0.7c0,0.1,0.1,0.2,0.3,0.3c0.5,0,1.2-0.2,2-0.5l0.9,2.6
		c-0.3,0-0.5-0.2-0.8-0.4c-0.3-0.2-0.5-0.4-0.8-0.5c-0.3-0.1-0.6-0.2-0.9-0.2c-0.3,0-0.6,0.2-1,0.7c0.4,0.5,0.8,1,1.1,1.5
		c0.3,0.5,0.7,1,1.1,1.5c2.4-0.6,3.5-1.9,3.3-4c0.3,0.1,0.6,0.2,0.8,0.3C489.9,336.8,490.3,336.9,490.7,337z M491.4,327.2
		c0.2-1.7,0.3-3.3,0.4-4.9c0.1-1.6,0.2-3.3,0.2-5c0-0.3-0.1-0.5-0.3-0.8c-0.2-0.3-0.5-0.5-0.8-0.7l-0.5,0.2
		c-0.3,0.1-0.5,0.3-0.4,0.5c0,1.3,0,2.5,0,3.6c0,1.2,0,2.4,0,3.6c-0.9,0.3-1.6,0.3-2.1,0c-0.5-0.3-0.8-1-0.8-2
		c-0.1-1.2-0.5-1.7-1.3-1.6c-0.1,0.5-0.1,1-0.2,1.4c-0.1,0.4-0.2,0.9-0.2,1.4c0,0.6-0.1,1.2-0.2,1.8c-0.1,0.6-0.2,1.2-0.2,1.8
		c0,0.5,0.2,0.9,0.4,1.4c0.2,0.4,0.4,0.9,0.6,1.5c1,0.1,1.6-0.2,1.8-1c0.1-0.8,0.5-1.5,1-2.2c0.4,0.4,0.7,0.7,0.9,1.1
		c0.2,0.3,0.6,0.8,1,1.2c0.1-0.3,0.3-0.5,0.5-0.7C491.3,327.7,491.4,327.5,491.4,327.2z M488.9,350.9c-0.1-0.2-0.1-0.4-0.1-0.5
		c0-0.1,0-0.3-0.1-0.5c-0.2-0.5-0.5-1-0.9-1.4c0-0.1-0.2-0.1-0.5,0c-0.3,0.1-0.4,0.2-0.4,0.3c0,0.3,0,0.6,0,0.9c0,0.4,0.1,0.7,0.4,1
		C487.5,350.9,488.1,350.9,488.9,350.9z M486.1,315.3c0,0.3,0,0.5,0.2,0.7c0.1,0.2,0.2,0.4,0.3,0.6c0.1,0,0.2,0,0.3,0
		c0.1,0,0.2,0,0.3,0c0-0.4,0.1-0.7,0.2-0.9c0.2-0.2,0.4-0.5,0.6-0.7c0.2-0.2,0.4-0.5,0.5-0.7c0.1-0.3,0-0.7-0.3-1.2
		c-0.2-0.3-0.3-0.7-0.2-1.3c0.1-0.6,0.2-1,0.4-1.3c0.9-0.7,1.1-1.4,0.7-2c-0.4-0.7-0.6-1.3-0.4-2c0-0.3-0.1-0.5-0.3-0.6
		c-0.2-0.2-0.5-0.3-0.7-0.5l-0.6,1.4c0,0.3,0,0.6,0,0.9c0.1,0.4,0,0.7-0.1,1c-0.2,1.2-0.3,2.3-0.5,3.4
		C486.3,313,486.2,314.2,486.1,315.3z M496.3,406.5l2.2-0.6l-0.5-0.9c-0.4,0.4-0.7,0.6-1,0.7c-0.3,0.1-0.6,0.3-1,0.7L496.3,406.5z
		 M494.4,339.6c0.3-0.6,0.5-1.2,0.7-1.7c0.2-0.5,0.4-1.1,0.7-1.8l-0.7-0.3c-0.3-0.1-0.5-0.1-0.7,0.2c-0.2,0.4-0.4,0.9-0.7,1.3
		c-0.2,0.4-0.5,0.8-0.7,1.3c-0.1,0.5,0.1,0.9,0.4,1c0.2,0.2,0.4,0.3,0.6,0.2C494.3,339.8,494.4,339.7,494.4,339.6z M495.5,332.7
		c1.2-0.5,1.4-1.4,0.6-2.6c-0.4,0.3-0.8,0.5-1.3,0.8c-0.5,0.2-1,0.6-1.6,1c0.1,0.2,0.1,0.5,0.2,0.9c0.1,0.4,0.1,0.8,0.2,1.4
		c0.4-0.4,0.7-0.7,1-0.9C494.8,333,495.1,332.8,495.5,332.7z M495.1,319.6c-0.1-0.1-0.3-0.1-0.3-0.1c-0.1,0-0.2,0-0.3-0.1
		c-0.2,0.6-0.4,1.1-0.5,1.6c-0.2,0.5-0.3,1.1-0.3,1.7c0,0.1,0.2,0.2,0.4,0.3c0.2,0.1,0.4,0.3,0.6,0.4c0.1-0.3,0.3-0.5,0.5-0.6
		c0.2-0.1,0.3-0.3,0.3-0.6L495.1,319.6z M494.2,318.7c1-0.4,1.6-1.4,1.9-3.2c0.3-1.8,0.1-3.2-0.5-4.4c-0.2,1.5-0.4,2.7-0.7,3.9
		C494.7,316.2,494.5,317.4,494.2,318.7z M495.5,308.4c1.1-1.4,1.7-2.2,1.6-2.5c0-0.3-0.6-0.6-1.7-1c0,0.6,0,1.2,0.1,1.7
		C495.5,307.2,495.6,307.8,495.5,308.4z"/>
	<path class="st0" d="M597.5,325.3c0.2-0.7,0.7-1.3,1.3-1.9c0.6-0.5,1.5-0.7,2.7-0.5l-1.8,3.8c-0.8,1.7-1.5,3.2-2.1,4.7
		c-0.7,1.5-1.3,3-2,4.5c-0.1,0.3-0.3,0.5-0.6,0.7c-0.3,0.2-0.5,0.4-0.6,0.7c-0.1,0.3-0.3,0.6-0.3,0.9c-0.1,0.3-0.2,0.6-0.3,0.9l-1,2
		c0-0.1-0.2,0.1-0.4,0.5c-0.3,2.1-0.9,3.9-2.1,5.5c-1.1,1.6-2.1,3.3-2.9,5.1c-0.9,1.7-1.8,3.4-2.8,5.2c-1,1.8-2,3.5-3,5.3
		c-0.2,0.2-0.3,0.4-0.5,0.5c-0.1,0.2-0.3,0.4-0.5,0.5c-0.5,0.6-1.3,1.4-2.1,2.4c-0.9,1.1-1.7,2.2-2.6,3.4c-0.9,1.2-1.7,2.3-2.6,3.4
		c-0.8,1.1-1.5,1.9-1.9,2.5c-0.9,1.3-1.9,2.4-3.1,3.3c-1.2,0.9-2.4,1.7-3.8,2.5c-1.4,0.7-2.8,1.4-4.2,1.9c-1.4,0.5-2.9,0.5-4.5-0.1
		c-1.1-0.3-1.8,0-2,1.1c-0.1,0.9-0.4,1.4-1,1.7c-0.6,0.2-1.3,0.4-2,0.5c-0.7,0.2-1.3,0.3-1.9,0.2c-0.6-0.1-1.1-0.6-1.5-1.4
		c-0.1,0-0.2,0.1-0.2,0.2c0,0.1-0.1,0.1-0.2,0.2c0.1,0.2,0.1,0.5,0.2,0.8c0,0.3,0.1,0.7,0.3,1.1c-0.8-0.4-1.4-0.7-1.9-1.1
		c-0.5-0.4-1.1-0.8-1.7-1.2c0-0.1-0.1-0.2-0.3-0.3c0-0.1-0.1-0.2-0.3-0.3l-0.1-0.2l-0.9-0.8c-1.3-1.8-2.6-3-4.1-3.7
		c-0.6-0.2-1-0.5-1.4-0.9c-0.3-0.4-0.7-0.9-1.1-1.4c-0.5-0.4-1.1-0.9-1.7-1.3c-0.6-0.4-1.1-0.8-1.7-1.3c-0.5-0.4-1-0.9-1.3-1.4
		c-0.4-0.5-0.8-1-1.2-1.6c-1-1.4-1.9-2.8-2.7-4.2c-0.8-1.4-1.4-2.9-1.7-4.5c-0.3-1.1-0.5-2.2-0.7-3.3c-0.2-1.1-0.4-2.1-0.7-3.3
		c0.1-0.1,0.1-0.3,0-0.6c-0.8-1.8-1.1-3.7-1-5.5c0.1-1.8,0.1-3.6,0.1-5.4c0-0.4,0.2-0.8,0.7-1.2c-1.5-1-1.5-2,0-3.2
		c0.2-0.4,0.3-0.8,0.1-1.2c-0.8-1.1-0.7-2,0.1-2.8l-0.1-1.4c0.4-0.3,0.8-0.6,1.1-0.9c0.3-0.4,0-0.9-0.8-1.6
		c-0.1-0.1-0.1-0.4,0.1-1.1c0.2-0.6,0.4-1.1,0.7-1.5c0.1-0.3,0.3-0.5,0.4-0.7c0.1-0.2,0-0.4-0.3-0.6l1.1-1.5
		c-0.3-0.3-0.8-0.5-1.4-0.8c1.5-0.6,1.9-1.2,1-1.9c0.4-0.7,0.6-1.4,0.8-2.1c0.2-0.6,0.4-1.3,0.7-2c0.1-0.5,0.2-1,0.3-1.6
		c0.1-0.5,0.2-1.1,0.2-1.8c0.1,0,0.2-0.1,0.2-0.2c0-0.1,0.1-0.1,0.2-0.2c1-1,1.6-1.7,1.7-2c0.1-0.4-0.1-1-0.7-2.1
		c0.2-0.2,0.4-0.3,0.7-0.4c0.3-0.1,0.5-0.2,0.7-0.4c-0.3-0.1-0.6-0.3-0.9-0.5c-0.3-0.2-0.7-0.4-1-0.7c0.9-2.7,1.9-5.7,3-8.9
		c0,0.7,0,1.2,0,1.5c0.1,0,0.2,0,0.3,0c0.1,0,0.2,0,0.3,0c0.1-0.4,0.2-0.8,0.3-1.2c0.1-0.4,0.2-0.9,0.4-1.6c0.8-0.5,0.9-1.4,0.2-2.5
		c-0.3-0.6-0.2-1.5,0.3-2.7c0.6-1.2,1.3-2.1,2.1-2.6l0.7-0.2c-0.7-0.9-0.8-1.6-0.4-2.3c0.4-0.7,0.7-1.3,0.9-2c0.4-1.6,1-3.2,1.7-4.7
		c0.7-1.5,1.4-3.1,2.1-4.7c0.6-1.7,1.4-3.4,2.2-5c0.9-1.6,1.5-3.3,1.8-5c0.5-2,1.2-3.9,2.1-5.7c0.9-1.7,1.9-3.5,3-5.3
		c0.1-0.3,0.3-0.6,0.6-0.9c0.3-0.3,0.5-0.6,0.8-0.9c0.4-0.4,0.7-0.5,0.9-0.5l5.2,0.4c0.1,0,0.2,0,0.4,0c0.1,0,0.2,0,0.4,0
		c0.6,0,1.2,0.1,1.7,0.1c0.5,0.1,1,0.3,1.6,0.7c0.5,0.3,1,0.6,1.6,0.7c0.6,0.2,1.1,0.3,1.6,0.4c1.5,0.3,2.7,0.9,3.6,1.7
		c0.9,0.8,1.9,1.7,2.8,2.7c0,0.1,0.1,0.2,0.3,0.3c0.5,0.6,0.9,1.3,1.2,2c0.3,0.8,0.8,1.5,1.4,2.1c1,1,1.8,2,2.5,3
		c0.7,1,1.5,2,2.4,2.9c1,1,1.5,2.2,1.5,3.6c0,1.4,0.4,2.6,1.3,3.6c0,0.1,0,0.3,0,0.5c-0.1,0.2-0.1,0.4-0.1,0.7
		c1.2,0.3,1.7,0.8,1.5,1.6c-0.2,0.8-0.3,1.5-0.3,2.3c0.1,0.7,0.2,1.4,0.3,2c0.1,0.6,0.2,1.3,0.2,2.1c0,0.6,0,1.2,0.1,1.7
		c0.1,0.5,0,1.1-0.4,1.7c-0.1,0.3-0.2,0.6-0.1,0.9c0.1,0.3,0.1,0.5,0.1,0.8c-0.2,1.3-0.4,2.6-0.7,3.8c-0.4,2.1-0.9,4-1.5,5.8
		c-0.3,1.2-0.6,2.5-0.9,3.7c-0.3,1.2-0.6,2.4-1,3.5c-0.2,1.1-0.5,2.1-0.9,2.9c-0.4,0.9-0.7,1.9-0.9,2.9c-0.2,0.7-0.4,1.6-0.4,2.6
		c0,0.6-0.2,1.1-0.5,1.3c-0.9,0.9-1.5,2-1.8,3.2c-0.3,1.2-0.6,2.3-1.1,3.5c-0.4,0.8-0.8,1.5-1.4,2.4c-0.6,0.8-1.1,1.6-1.6,2.4
		c-0.4,0.6-0.8,1.3-1.1,1.9c-0.3,0.6-0.7,1.2-1.1,1.9c-0.5,0.8-1,1.5-1.5,2.2c-0.6,0.7-1.1,1.5-1.7,2.3c-0.2,0.1-0.4,0.2-0.4,0.3
		c-1.1,1.8-2.5,3.2-4,4.3c-1.6,1.1-3.2,2.3-4.7,3.5c-0.6,0.5-1,0.7-1.4,0.9l-0.2,0.1c-1.3,0.8-3.2,1.8-5.6,2.7
		c-2.4,1-4.4,1.6-5.9,1.7l-0.2-0.1l-0.8,0.9c0.6,1,0.4,2.1-0.5,3.2c-0.2,0.2-0.3,0.4-0.2,0.6c0,0.2,0,0.5,0,0.8
		c-0.1,0.3-0.2,0.5-0.2,0.7c0,0.2-0.1,0.4-0.2,0.7c-0.4,0.8-0.3,1.1,0.1,1.2c0.4,0,0.8,0.1,1.1,0.3c0,0.6,0,1.2,0.1,1.8
		c0.1,0.6,0.2,1.2,0.3,1.8c-0.1,0.5-0.2,0.9-0.4,1.1c-0.6,1.3-0.3,2.5,0.9,3.6c0.5,0.4,0.7,1.1,0.5,1.9c-0.2,0.9,0.2,1.6,1,1.9
		c0.4,0,0.8,0.3,1.3,1l0.9,0.8c0.3,0.5,0.6,1.1,0.9,1.7c0.3,0.6,0.7,1.1,1.2,1.5c1,0.8,2.2,1,3.5,0.8c2.3-0.5,4.7-1.5,7.2-3.2
		c2.5-1.7,4.5-3.5,5.9-5.4c0.8-1,1.7-2.2,2.8-3.7c1.1-1.4,2.2-3,3.4-4.6c1.2-1.6,2.3-3.2,3.3-4.7c1-1.5,1.9-2.8,2.6-3.8
		c1.8-2.7,3.4-5.5,5-8.3c1.6-2.8,3.2-5.6,4.8-8.4c1.4-2.5,2.7-4.9,3.9-7.4c1.2-2.4,2.5-4.9,3.7-7.5c1.1-2,2.3-4,3.3-6
		c1.1-2,2.1-4.1,3.1-6.2c0.3-0.5,0.6-1,0.7-1.6c0.2-0.6,0.3-1.1,0.5-1.7c0.1,0.1,0.3,0.1,0.4,0.1c0.1,0,0.3,0.1,0.5,0.3
		c-1.6,3.8-3.3,7.6-5,11.3c-1.7,3.7-3.4,7.4-4.9,11.1c-0.1,0.4-0.2,0.8-0.3,1.1c-0.1,0.3-0.2,0.7-0.3,1c-0.4,1-0.8,2-1.3,3
		c-0.5,1-0.9,1.9-1.3,2.8c-0.1,0.1-0.2,0.3-0.2,0.4c-0.1,0.1-0.2,0.2-0.2,0.4c-0.2,0.2-0.3,0.4-0.3,0.5c0,0.1-0.1,0.3-0.2,0.6
		c0.2-0.1,0.5-0.1,0.8-0.1c0.3,0,0.6-0.1,0.7-0.3c0.3-0.3,0.5-0.7,0.6-1.1c0.2-0.4,0.4-0.7,0.6-1.1c1.2-1.9,2.3-3.9,3.3-5.9
		C595.7,329.5,596.7,327.5,597.5,325.3z M526.5,344.7c0.3-0.4,0.7-0.8,1.1-1.3c-1.2-0.6-1.4-1.5-0.6-2.8c0.1-0.1,0-0.3-0.1-0.5
		c-0.1-0.2-0.2-0.4-0.2-0.7c-0.1,0-0.2,0-0.3,0c-0.1,0-0.2,0-0.3,0c-0.2,1.1-0.4,2.1-0.6,3.1c-0.1,1-0.3,2-0.6,3.1l0.4,0.2
		C525.9,345.4,526.2,345.1,526.5,344.7z M527.2,348.4c0-0.1,0-0.2,0-0.2c0.1,0,0.1-0.1,0-0.2c-0.5-0.6-0.9-1.1-1.3-1.4
		c-0.2-0.1-0.3-0.1-0.6,0c0.1,0.2,0.1,0.5,0.1,0.7c0,0.3,0,0.5,0.2,0.7C525.8,348.1,526.3,348.2,527.2,348.4z M525.8,338.2
		c0.3,0.1,0.6,0.2,1,0.3c0.4,0,0.8,0.1,1.2,0.2c0.1-0.4,0.2-0.8,0.2-1.2c0-0.4,0-0.8,0-1.3c0-0.3-0.1-0.6-0.2-0.9
		c-0.2-0.4-0.3-0.7-0.5-1c0.3,0,0.4,0.1,0.5,0.1c0.1,0,0.2,0.1,0.5,0.1c0.4-0.7,0.6-1.4,0.8-2.1c0.2-0.6,0.4-1.3,0.7-2
		c0-0.3,0.1-0.4,0.1-0.5c0-0.1,0.1-0.2,0.1-0.5c0-0.1-0.2-0.2-0.4-0.2c-0.2,0-0.3,0-0.4,0.1c-0.2,0.1-0.4,0.3-0.6,0.8
		c0,0.3,0,0.5,0,0.7c0,0.2,0,0.4,0,0.7c-0.1,0-0.3,0-0.6-0.2c0.1-0.5,0.2-1,0.3-1.6c0.1-0.5,0.4-1,0.7-1.4c0.8-0.8,1.3-1.3,1.4-1.6
		c0.1-0.3-0.3-0.8-1.2-1.6l0.8-0.9c0.4-0.4,0.8-0.8,1.2-1.2c0.4-0.4,0.6-0.7,0.7-1c-0.3-1.1-0.2-2,0.4-2.7c0.5-0.6,1-1.3,1.3-2.1
		c-0.6-1-1-1.7-1.3-2c0.6-0.7,1.1-1.4,1.5-2.2c0.3-0.5,0.6-1,0.7-1.6c0.2-0.6,0.3-1.1,0.5-1.7c0.5-1.2,0-1.8-1.4-1.9
		c-2.3,4.8-3.9,9.7-5,14.8C527.7,327.9,526.7,333.1,525.8,338.2z M531.4,333.6c0.1-0.7,0.5-1.3,1-1.9c0.5-0.6,0.5-1.3-0.2-2.2
		c-0.6,0.2-0.9,0.4-0.9,0.5c-0.3,0.6-0.5,1.2-0.6,1.7c-0.1,0.5-0.3,1.1-0.4,1.7c-0.2,0.4-0.1,0.6,0.3,0.4
		C531,334.2,531.2,334.1,531.4,333.6z M533.4,359.4c0.3-0.3,0.3-0.8,0.1-1.4c-0.2-0.6-0.4-1.1-0.8-1.5c-0.1,0.5-0.1,1-0.1,1.3
		c0,0.4,0,0.8-0.1,1.3c0,0.1,0.1,0.2,0.2,0.3c0.1,0.1,0.2,0.2,0.2,0.3C533.3,359.7,533.4,359.5,533.4,359.4z M533.3,354
		c0.2-1.2,0.3-2.3,0.3-3.5c0-1.1,0.1-2.3,0.3-3.5c-0.2,0.1-0.4,0-0.4-0.2c-0.4,0.4-0.5,0.7-0.4,0.9c0,0.7-0.1,1.5-0.2,2.2
		c-0.2,0.7-0.3,1.5-0.4,2.3c-0.1,0.4,0,1.1,0.3,1.9L533.3,354z M535,337.9c0.3-1.1,0.7-2.1,1-3.1c0.3-0.9,0.6-1.9,1-3.1
		c-1,0.5-1.6,1.3-2.1,2.5C534.4,335.6,534.5,336.8,535,337.9z M535.7,303.9c-1.1,0.3-1.8,1.3-1.9,2.9c0.5,0.1,1.2,0.2,2,0.4
		c-0.2-0.2-0.4-0.4-0.5-0.6c-0.1-0.2-0.3-0.4-0.5-0.7c0.2-0.1,0.4-0.1,0.7-0.2c0.2,0,0.4-0.1,0.6-0.3c0.2-0.1,0.5-0.4,0.7-1.1
		c-0.3,0-0.5-0.2-0.6-0.3C536.1,303.9,536,303.8,535.7,303.9z M536.2,300.9c-0.2,0.2-0.4,0.5-0.5,0.8c-0.2,0.4-0.3,0.7-0.5,1
		c0.4,0.2,1.1,0.4,1.9,0.6c0.1,0.2,0.2,0.3,0.4,0.2c0.1-0.4,0.2-0.8,0.3-1.1c0.1-0.3,0.1-0.8,0.2-1.3c-0.2-0.1-0.4-0.1-0.6-0.2
		c-0.3,0-0.5-0.1-0.7-0.1C536.5,300.9,536.3,300.9,536.2,300.9z M538.3,297.4c-0.1,0.3-0.3,0.7-0.4,1.1c-0.2,0.4-0.3,0.8-0.4,1.1
		c0.1,0.2,0.2,0.4,0.3,0.4c0.2-0.2,0.4-0.3,0.6-0.4c0.2-0.1,0.3-0.2,0.4-0.5c0.1-0.3,0.2-0.6,0.1-0.9c-0.1-0.3-0.1-0.5-0.1-0.8
		C538.5,297.4,538.4,297.4,538.3,297.4z M549.4,316c-0.4,1.3-0.8,2.5-1.1,3.8c-0.3,1.3-0.6,2.6-1.1,3.8c-0.1,0.2-0.2,0.3-0.4,0.5
		c-0.2,0.2-0.3,0.3-0.5,0.2c-0.6,0.1-0.9,0.3-0.9,0.6c0,0.3,0,0.7,0.1,1.2c0.1,0.3,0.2,0.9,0.2,1.6c-0.1,0.5-0.1,1-0.2,1.5
		c-0.1,0.5-0.2,1-0.2,1.5l-0.5,1.1c-0.1,0.4-0.3,0.8-0.5,1.3c-0.2,0.4-0.4,0.9-0.4,1.5c-0.2,1.3-0.2,2.6-0.2,3.8
		c0,1.2-0.3,2.5-1,3.7l-0.2,0.4l-1,3.9c0.9-0.3,1.9-0.5,2.9-0.7c1.1-0.1,2-0.5,2.8-1.2c0.5-0.4,0.9-0.8,1.3-1c0.4-0.3,0.8-0.6,1.3-1
		c0.6-0.3,1.1-0.6,1.4-0.8c0.3-0.2,0.6-0.4,1-0.8c0.3-0.3,0.5-0.6,0.9-0.9c0.3-0.2,0.7-0.6,1.1-0.9c0.2-0.1,0.4-0.3,0.5-0.6l3.7-5.2
		c0.4-0.5,0.9-1,1.3-1.5c0.5-0.5,0.9-1,1.3-1.7c1.1-1.7,2.1-3.3,2.9-5.1c0.8-1.7,1.4-3.5,1.9-5.4l0.4-0.9c0.5-1.2,0.9-2.3,1.3-3.4
		c0.4-1.1,0.8-2.3,1.1-3.4c0.5-1.4,1-2.8,1.5-4.3c0.5-1.4,1-2.8,1.5-4.3c0.1-0.3,0.2-0.6,0-0.9c0-0.3,0-0.6,0-0.9
		c-0.1-0.4,0-0.7,0.1-1c0.7-3.2,1.2-6.5,1.4-9.6c0.2-3.2,0-6.5-0.7-9.8c-0.2-1.2-0.5-2.3-0.9-3.4c-0.5-1.1-0.9-2.2-1.3-3.3
		c-0.1-0.2-0.3-0.5-0.5-0.7c-0.3-0.3-0.5-0.4-0.8-0.3c-0.6,0.2-1,0.6-1.3,1.2c-0.1,0.3-0.4,0.9-0.9,1.8c-0.4,0.9-0.7,1.4-0.9,1.6
		c-0.3,0.6-0.6,1.1-0.8,1.6c-0.3,0.5-0.6,0.9-0.9,1.4c-0.5,0.7-0.9,1.4-1.3,2.1c-0.4,0.8-0.8,1.5-1.5,2.2c-0.7,0.9-1.2,1.9-1.5,3
		c-0.3,1.1-0.8,2.2-1.3,3.3c-0.2,0.4-0.5,0.9-0.8,1.3c-0.3,0.4-0.7,0.8-1.1,1.2c-0.3,0.6-0.4,1-0.5,1.3c-0.3,1-0.5,1.9-0.6,2.8
		c-0.1,0.9-0.3,1.9-0.6,2.8c-0.3,1-0.6,1.9-1.1,2.9c-0.5,1-0.9,1.9-1.3,2.8c-0.5,1.3-1,2.7-1.4,4c-0.4,1.4-1.2,2.5-2.5,3.5
		c0.1,0.3,0.3,0.6,0.4,0.9C549.4,315.5,549.4,315.7,549.4,316z M564.3,330.1c0.1-0.3,0.2-0.7,0-1.2c-0.1-0.5-0.2-1-0.3-1.5
		c-0.9,0.3-1.3,1-1.3,2c-0.1,0.4-0.3,0.8-0.5,1.3c-0.2,0.5-0.4,0.9-0.5,1.3l-1.5,2.2l0.7,0.3c0.6-0.7,1.2-1.4,1.8-2.1
		C563.4,331.6,563.9,330.9,564.3,330.1z M565.6,326.4c0.2-0.1,0.4-0.4,0.4-0.9c0.1-0.1,0-0.3-0.1-0.3c-0.1-0.1-0.3-0.1-0.4,0
		c-0.5-0.1-0.9,0.1-1.1,0.6c-0.1,0.3-0.2,0.5-0.2,0.7c0,0.2-0.1,0.4-0.2,0.7C564.8,326.9,565.4,326.7,565.6,326.4z M613.9,285.9
		l0.2,0.7c-0.1,0.7-0.2,1.4-0.3,2.3c-0.1,0.8-0.4,1.5-0.8,1.9c-0.5,0.6-0.9,1.1-1,1.7c-0.1,0.6-0.3,1.2-0.6,1.8
		c-0.3,0.9-0.6,1.8-0.9,2.7c-0.3,1-0.6,1.9-0.8,2.9c-0.1,0.5-0.1,1.1-0.1,1.6c0,0.6,0,1-0.1,1.5c-0.2,1.1-0.6,2.1-1.1,3
		c-0.5,0.9-0.8,1.9-1.1,3c-0.4,0.8-0.7,1.4-1,2.1c-0.3,0.6-0.6,1.3-0.8,2.2c0,0.6-0.2,1.3-0.6,1.9c-0.4,0.6-0.7,1.3-1,2l-0.3,0.7
		c0.1,1.1-0.1,1.9-0.7,2.6c-0.6,0.6-1.2,1.3-1.8,2c-0.9-0.4-1.4-0.7-1.4-0.9s0.2-0.7,0.8-1.5c0.1-0.3,0.3-0.7,0.4-1.1
		c0.1-0.4,0.3-0.8,0.5-1.1c0.2-0.4,0.5-0.9,0.7-1.4c0.3-0.5,0.6-0.9,0.9-1.4c0.3-0.9,0.7-1.7,1.1-2.6c0.4-0.8,0.8-1.7,1.1-2.6
		c0.3-0.9,0.6-1.7,0.9-2.5c0.3-0.8,0.6-1.6,0.9-2.5c0.2-1.1,0.4-2.1,0.6-3.1c0.1-1,0.4-2,0.6-2.9c0.2-0.7,0.6-1.4,1-2
		c0.4-0.6,0.8-1.3,1.1-2.1l-0.6-0.2c0-0.2,0-0.6-0.1-1c-0.1-0.4-0.1-0.6,0-0.7c1.2-0.4,1.6-1,1.3-1.7c-0.4-0.7-0.5-1.3-0.5-2
		c0.1-0.5,0-0.9-0.1-1.3c0.1,0,0.2,0,0.3,0c0.1,0,0.2,0,0.3,0c-0.3-0.1-0.5-0.3-0.7-0.4c-0.2-0.1-0.4-0.3-0.7-0.4
		c-0.9,3.3-1.9,6.6-2.9,9.7c-1,3.2-2.2,6.3-3.5,9.4l-0.4-0.2c0.1-0.3,0.2-0.6,0.2-0.8c0-0.2,0-0.5,0.2-0.8c0.7-2,1.3-3.9,1.9-5.8
		c0.6-1.9,1.3-3.8,2-5.7c0.4-1.6,0.7-3.2,1-4.6c0-0.6,0.1-1.3,0.3-1.9c0.2-0.6,0.4-1.2,0.6-1.8c0.3-0.6,0.6-1.2,0.9-1.8l1.3,0.6
		c0.3,0.1,0.7,0.3,1.1,0.4c0.4,0.2,0.8,0.3,1.1,0.4c0.1,0.2,0.2,0.5,0.3,0.7C613.7,285.4,613.8,285.6,613.9,285.9z"/>
	<g>
		<g>
			<path d="M435.4,445.3c0.6-0.1,1.7-0.2,2.7-0.2c1.5,0,2.4,0.3,3.2,0.8c0.6,0.4,1,1.1,1,2c0,1.1-0.7,2.1-1.9,2.5v0
				c1.1,0.3,2.4,1.2,2.4,2.9c0,1-0.4,1.7-1,2.3c-0.8,0.7-2.1,1.1-4,1.1c-1,0-1.8-0.1-2.3-0.1V445.3z M436.9,450h1.3
				c1.6,0,2.5-0.8,2.5-1.9c0-1.3-1-1.9-2.5-1.9c-0.7,0-1.1,0.1-1.3,0.1V450z M436.9,455.5c0.3,0.1,0.7,0.1,1.2,0.1
				c1.5,0,2.9-0.6,2.9-2.2c0-1.6-1.3-2.2-3-2.2h-1.2V455.5z"/>
			<path d="M446.9,456.7v-4.9l-3.6-6.6h1.7l1.6,3.2c0.4,0.9,0.8,1.6,1.1,2.4h0c0.3-0.8,0.7-1.5,1.2-2.4l1.7-3.2h1.7l-3.9,6.6v4.9
				H446.9z"/>
		</g>
		<g>
			<g>
				<g>
					<polygon class="st0" points="462.8,444.1 465.7,444.1 470.4,456.4 467.5,456.4 					"/>
					<polygon class="st0" points="471.5,444.1 474.3,444.1 479.1,456.4 476.2,456.4 					"/>
					<polygon class="st0" points="458.9,456.4 462.8,444.1 465.7,444.1 461.8,456.4 					"/>
					<polygon class="st0" points="471.1,452.7 458.2,453 457.3,450.2 470.2,450 					"/>
					<polygon class="st0" points="467.5,456.4 471.5,444.1 474.3,444.1 470.4,456.4 					"/>
					<polygon class="st0" points="476.2,456.4 480.1,444.1 483,444.1 479.1,456.4 					"/>
				</g>
			</g>
			<g>
				<path class="st0" d="M486.7,452.6c0.1,1.1,1.2,1.5,2.4,1.5c1,0,2.3-0.3,2.3-1.5c0-1.3-1.4-1.5-2.6-1.6c-2.1-0.2-4.3-0.9-4.3-3.4
					c0-2.6,2.1-3.7,4.5-3.7c2.2,0,4.5,0.9,4.5,3.6h-2.4c-0.1-1-1.1-1.4-2.1-1.4c-1,0-2,0.5-2,1.4c0,1,1,1.3,2.3,1.4
					c2.5,0.2,4.6,0.8,4.6,3.5c0,2.8-2.4,3.6-4.7,3.7c-2.4,0-4.8-1.2-4.8-3.7H486.7z"/>
				<path class="st0" d="M501.5,456.4c-3.2,0-6.1-2.1-6.1-6.2c0-4,2.9-6.1,6.1-6.1c3.1,0,6.1,2.1,6.1,6.1
					C507.6,453.8,505.1,456.4,501.5,456.4z M501.5,454c1.9,0,3.5-1.2,3.5-3.8c0-2.5-1.7-3.8-3.5-3.8c-1.9,0-3.5,1.3-3.5,3.8
					C498,452.8,499.6,454,501.5,454z"/>
				<path class="st0" d="M516.8,452h-4.4v4.4h-2.6v-12.3h7.5v2.3h-4.9v3.3h4.4V452z"/>
				<path class="st0" d="M518.2,446.3v-2.3h9.1v2.3h-3.3v10h-2.5v-10H518.2z"/>
				<path class="st0" d="M537.2,444.3l2.6,7.6h0.1l1-4.1l1.2-3.7h2.7l0.1,0l-0.1,0.4l-4.2,11.9h-1.6l-2.4-6.6h-0.1l-2.4,6.6h-1.6
					l-4.2-11.9l-0.1-0.4l0.1,0h2.7l1.2,3.7l1.1,4h0.1l2.5-7.6H537.2z"/>
				<path class="st0" d="M548.1,454.3l-0.9,2h-2.7l-0.2,0l0.2-0.3l5.6-12h1.2l5.6,12l0.2,0.3l-0.2,0h-2.7l-1-2H548.1z M548.9,452.1
					h3.4l-1.7-4.1L548.9,452.1z"/>
				<path class="st0" d="M568.3,456l0.3,0.4l-0.3,0h-2.8l-2.5-4.1h-2.2v4.1h-2.6v-12.3c1.8,0,3.5,0,5.3,0c2.8,0,4.3,2,4.3,4.2
					c0,1.6-0.8,2.9-2.2,3.6L568.3,456z M563.4,450.1c1.1,0,1.8-0.9,1.8-1.9c0-1-0.7-1.9-1.8-1.9h-2.6v3.8H563.4z"/>
				<path class="st0" d="M577.8,446.4h-4.9v2.5h4.6v2.3h-4.6v2.8l4.9,0v2.4l-7.5,0v-12.3h7.5V446.4z"/>
			</g>
			<g>
				<g>
					<path class="st0" d="M581.5,446.5c-0.7,0-1.2-0.6-1.2-1.2c0-0.7,0.6-1.2,1.2-1.2c0.7,0,1.2,0.6,1.2,1.2
						C582.7,446,582.2,446.5,581.5,446.5z M581.5,444.2c-0.6,0-1.1,0.5-1.1,1.1c0,0.6,0.5,1.1,1.1,1.1c0.6,0,1.1-0.5,1.1-1.1
						C582.6,444.7,582.1,444.2,581.5,444.2z"/>
				</g>
				<g>
					<path class="st0" d="M581.5,445.4h-0.2v0.5H581v-1.1h0.5c0.1,0,0.2,0,0.3,0.1c0.1,0.1,0.1,0.1,0.1,0.2c0,0.1,0,0.1-0.1,0.2
						c0,0.1-0.1,0.1-0.2,0.1l0.3,0.5h-0.2L581.5,445.4z M581.2,445.3h0.3c0.1,0,0.1,0,0.2,0c0,0,0.1-0.1,0.1-0.1
						c0-0.1,0-0.1-0.1-0.1c0,0-0.1,0-0.2,0h-0.3V445.3z"/>
				</g>
			</g>
		</g>
	</g>
</g>
</svg>
