<?xml version="1.0" encoding="utf-8"?>
<!-- Generator: Adobe Illustrator 22.0.1, SVG Export Plug-In . SVG Version: 6.00 Build 0)  -->
<svg version="1.1" id="Capa_1" xmlns="http://www.w3.org/2000/svg" xmlns:xlink="http://www.w3.org/1999/xlink" x="0px" y="0px"
	 viewBox="0 0 792 612" style="enable-background:new 0 0 792 612;" xml:space="preserve">
<style type="text/css">
	.st0{fill:#000000;}
	.st1{fill:#D41D29;}
	.st2{fill:#4FA735;}
	.st3{fill:#F7F7F8;}
	.st4{fill:#020002;}
</style>
<g>
	<g>
		<g>
			<path class="st0" d="M396.8,132c0.9-0.1,1.9-0.1,3-0.2c1.1,0,1.5,0.7,1.3,2.2c-0.2,1.3-0.3,2.6-0.3,3.7c0,1.2-0.6,2.6-1.9,4.2
				c-0.1,0.4-0.3,0.7-0.4,1c-0.2,0.3-0.2,0.6-0.2,1c-0.6,2.6-1.3,5.1-1.8,7.5c-0.6,2.4-1.2,4.7-1.9,7.2c-0.8,3.2-1.5,6.4-2.3,9.6
				c-0.8,3.2-1.4,6.4-2,9.5c-1.1,4-2,7.9-2.8,11.8c-0.8,3.9-1.6,7.8-2.5,11.8c-0.3,2.1-0.8,4.1-1.3,6c-0.5,2-1,4-1.3,6
				c-0.5,2.1-0.9,4.2-1.1,6.4c-0.2,2.2-0.7,4.5-1.4,6.7c-0.5,2.2-1.1,4.6-1.7,7c-0.7,2.4-1.3,4.9-2,7.3c-0.9,3.8-1.7,7.4-2.3,10.9
				c-0.6,3.5-1.5,7.2-2.6,11l-4.7,25.7c-0.2,1.5-0.5,2.6-0.8,3.4c-0.2,1.5-0.4,3.1-0.6,4.7c-0.2,1.7-0.5,3.3-0.9,4.8
				c-0.2,1.5-0.5,2.8-0.9,4.1c-0.4,1.2-0.8,2.6-1.2,4.1c0,0.2-0.2,0.6-0.7,1.2c-2.4,1.5-2.6,2.4-0.6,2.5c0.9,0.3,0.9,1.2,0,2.7
				c-0.4-0.1-0.8-0.2-1.3-0.1c-0.5,0-0.9,0-1.3-0.1c-0.4-0.3-0.7-0.5-1-0.7c-0.3-0.2-0.4-0.4-0.2-0.6c0.5-0.8,0.8-1.5,0.9-2.1
				c0.1-0.7,0.2-1.3,0.2-1.9c0-0.6,0.1-1.3,0.4-2c0.2-0.7,0.8-1.4,1.8-2.2c0.2,0,0.2-0.5,0.1-1.4c0.1-0.9,0.1-1.8,0-2.6
				c-0.1-0.8,0-1.7,0.2-2.6c0.3-0.8,0.5-1.5,0.8-2.3c0.3-0.8,0-1.3-0.7-1.6c-0.2-0.2-0.2-0.4-0.1-0.8c0.1-0.4,0.3-0.8,0.4-1.1
				c0.2-0.9,0.4-2,0.6-3.1c0.1-1.1,0.2-2.1,0.1-3l4.4-21.3c0.8-3,1.4-5.9,1.9-8.6c0.4-2.7,0.6-5.3,0.6-7.9l-1.1,0.4
				c-0.3,1.1-0.5,2.4-0.7,3.9c-0.3,0.9-0.5,1.7-0.7,2.4c-0.2,0.7-0.4,1.4-0.5,2.1c-0.3,0.9-0.5,1.7-0.6,2.4
				c-0.1,0.7-0.2,1.3-0.4,1.8c-0.1,0.9,0,2.3,0.2,4.1l-4.3,19.9c-0.3,0.9-0.4,1.7-0.3,2.2c0.1,0.5-0.1,1-0.4,1.4
				c-1.4,2.2-2.1,3.9-2.1,5.2c0,1.3,0.2,2.6,0.7,4c0.1,0.7-0.3,1.6-1.1,2.6c-1.7,1.5-2.2,2.6-1.3,3.4c0.2,0.3,0.2,0.7-0.2,1.1
				c-0.4,3.3-1.2,7.1-2.2,11.2c-0.3,1.1-0.6,2.2-0.9,3.3c-0.4,1.1-0.8,2.2-1.2,3.4c-0.3,1.1-0.4,1.8-0.4,1.9
				c-0.1,0.7-0.2,1.5-0.3,2.2c-0.1,0.7-0.3,1.5-0.6,2.2c0.1,0.9-0.1,1.9-0.5,3l0.3,0c1.1-0.1,2.2,0,3.3,0.5
				c-0.1-1.3,0.1-2.3,0.8-3.1c0.6-1,1-1.7,1-2.3c0-0.6,0.1-1.2,0.2-1.9c0.1-2.6,0.4-5.3,0.8-8c0-0.4,0.2-0.7,0.6-1
				c0.4-0.3,0.8-0.7,1.1-1.1c0.1,0.5,0.1,1.2,0.1,1.9c0,0.7,0.1,1.1,0.2,1.1c1.8-0.5,2.6-0.4,2.4,0.3c-0.2,0.8-0.4,1.5-0.7,2.3
				c-0.3,0.9-0.4,1.9-0.5,2.8c-0.1,0.9-0.3,1.9-0.5,2.8c0.1,0.9-0.1,1.7-0.4,2.4c-0.4,0.7-1.5,1.3-3.2,1.8c1.4,1.1,2.1,2.3,2,3.4
				c0.4,0.1,0.7,0.2,0.8,0.2c0.2,0,0.5,0,0.8,0.2c1.8,0.2,3.4,0.7,4.5,1.5c1.2,0.8,2.3,1.7,3.3,2.7c1.2,1.2,2.4,2.3,3.5,3.5
				c1.1,1.2,2.3,2.3,3.5,3.5c0.2,0.3,0.4,0.7,0.7,1.2c0.2,0.4,0.4,0.8,0.4,1.2c0.1,1.1,0.1,2.2,0.1,3.4c-0.1,1.2,0.4,2.2,1.4,3
				c0.2,0,0.3,0.2,0.4,0.8c-0.7,1.7-1.4,3.4-2.1,5.2c-0.6,1.7-1.3,3.3-2.1,4.9c-0.3,0.4-0.8,0.7-1.4,1c-0.6,0.2-1.2,0.5-1.7,0.7
				c-0.2-0.5-0.5-1-0.7-1.6c-0.2-0.5-0.4-1.1-0.4-1.6c0.1-0.9,0.2-1.7,0.4-2.4c0.2-0.7,0.4-1.5,0.7-2.4c0.6-4.5-1.4-6.4-6.1-6
				c-1.2,0.3-2.5,0.4-3.7,0.2c-1.2-0.2-2.4-0.2-3.7,0c-0.4-0.1-1.1-0.2-2.2,0l-0.2,0.3c-0.2,2-0.5,4-1,5.9c-0.6,2.6-1.2,5.1-1.7,7.4
				c-0.5,2.3-1.1,4.8-1.7,7.4c-0.7,2.4-1.2,4.8-1.7,7c-0.5,2.2-1,4.6-1.5,7c-0.7,0.1-1.2-0.1-1.4-0.7c-0.2-0.5-0.4-1.2-0.3-2
				c0-0.8,0.1-1.7,0.3-2.6c0.2-0.9,0.5-1.7,1-2.3c0.4-3.2,0.7-6.2,1-9c0.3-2.9,0.5-5.7,0.8-8.5c2.9-1.9,4.5-3.8,4.7-5.4
				c-0.3-0.9-0.5-1.6-0.6-2.3c-0.2-0.6-0.4-1.3-0.6-2c-0.7-0.1-1.6-0.2-2.5-0.2c-0.9,0-1.8,0.1-2.7,0.4c-0.1,0.4-0.2,0.7-0.2,0.8
				c0,0.2,0,0.5-0.2,0.8c-0.2,1.8-0.4,3.7-0.7,5.6c-0.3,1.9-0.6,3.7-0.9,5.6c-0.7,2.4-1.3,4.8-1.9,7.1c-0.6,2.3-1.2,4.6-1.9,7.1
				c-0.5,1.9-0.9,3.7-1.2,5.5c-0.3,1.8-0.6,3.6-0.9,5.5c-0.4,1.5-0.9,3.1-1.4,4.7c-0.6,1.6-0.8,3.1-0.6,4.6c0.1,0.9,0.1,1.8,0,2.6
				c-0.1,0.8-0.3,1.7-0.5,2.7c-0.3,0.4-0.6,0.9-0.8,1.5c-0.2,0.6-0.5,1.1-0.8,1.5c-0.5,1.9-0.9,3.7-1.2,5.5
				c-0.3,1.8-0.7,3.7-1.2,5.7c-0.3,0.9-0.6,2-0.9,3.1c-0.3,1.1-0.7,2.3-1.2,3.4c-0.6,1.5-1.1,3.2-1.7,5.1c-0.4,1.5-0.7,3-1,4.6
				c-0.3,1.6-0.5,3.1-0.8,4.6c-0.1,0.4-0.3,0.7-0.6,1c-0.2,0.3-0.4,0.6-0.6,1c-0.1,0.4-0.3,0.9-0.4,1.4c-0.1,0.6-0.1,1,0.1,1.4
				c0.3,1.1,0.5,2.2,0.5,3.4c0,1.2-0.9,2.8-2.7,4.8c-0.9,1.6-1.7,2.6-2.4,3.3c-0.3,0.4-0.7,0.7-1.1,0.9c-0.4,0.2-0.9,0.5-1.4,1
				c0.1-0.4,0.2-0.7,0-1c-0.1-0.3-0.1-0.6,0-1c0.5-2.4,1.2-5.1,2.2-7.9c-0.8,0.8-1.4,1.6-1.8,2.2c-0.4,0.7-0.9,1.4-1.6,2.2
				c-0.3,0.4-0.7,0.8-1,1.2c-0.3,0.4-0.6,0.8-1,1.2c-0.2-0.3-0.3-0.7-0.4-0.9c0-0.3-0.2-0.6-0.4-0.9c0.3-0.8,0.4-1.3,0.4-1.7
				c0.2-1.7,0.3-3.3,0.4-5c0.1-1.7,0.5-3.3,1.3-5.1c0.6-2.6,1.2-5.1,1.6-7.4c0.4-2.3-0.2-4.1-1.8-5.4c-0.1-0.5,0-1,0.1-1.4l4.1-16.1
				c0.7-3.7,1.1-7.5,1.3-11.4c-0.1-1.1-0.3-1.7-0.5-1.9c-1.7-0.9-2.2-2.7-1.4-5.3c0.9-0.1,1.6-0.3,2.1-0.5c-0.1-0.5-0.2-0.9-0.4-1.1
				c-0.2-0.2-0.3-0.4-0.4-0.8c-0.4-0.7-0.8-1.4-1-2.1c-0.3-0.7-0.2-1.3,0.1-1.9c0.8-1,1.2-1.8,1.1-2.3c-0.1-0.5,0-1.2,0.1-1.9
				c-0.2-0.3-0.3-0.7-0.2-1.1c0.1-0.4,0.1-0.8,0-1.4c0.5-2.2,1-4.5,1.6-6.9c0.6-2.3,0.2-4.3-1-5.8c-0.5-0.9-0.7-1.9-0.9-3.2
				c-0.1-1.3,0.4-2.8,1.4-4.5c0.8-1,1.3-2.1,1.6-3.5l-0.3,0c-0.9,0.1-1.8,0.3-2.6,0.5c-0.8,0.3-1.6,0.4-2.6,0.5c-3,0.7-6,1.2-9,1.6
				c-3,0.4-6,0.9-9,1.6c-1.1,0.3-2.1,0.6-3.2,0.9c-1.1,0.3-2.1,0.7-3.2,1.2c-3.5,1.1-7.2,2.3-11,3.6c-3.8,1.3-7.5,2.2-11.1,2.8
				c-3.1,0.5-5.9,1.3-8.4,2.5c-2.5,1.2-5.1,2.1-7.8,2.7c-2,0.6-4,1.1-6,1.7c-2,0.6-4,1.2-6,1.7c-0.6,1-1.3,1.9-1.9,2.8
				c-0.6,0.9-1.3,1.8-1.9,2.8c-1.1,1.6-2.2,3.2-3.2,5c-1,1.8-2.1,3.5-3.2,5.3c-1.4,2.2-2.8,4.4-4.1,6.6c-1.3,2.2-2.6,4.4-3.8,6.6
				c-0.5,0.8-0.9,1.6-1.3,2.3c-0.4,0.8-0.8,1.6-1.3,2.3c-1.3,1.6-2.6,3.1-3.8,4.6c-1.2,1.5-2.5,3-3.8,4.6c-1.3,1.8-2.4,3.5-3.3,5.3
				c-0.9,1.7-1.9,3.5-3,5.3c-0.8,1.2-1.6,2.4-2.5,3.6c-0.9,1.2-1.7,2.3-2.5,3.3l-1.1,0.1c0.3-0.6,0.6-1.2,0.8-1.7
				c0.2-0.6,0.5-1.1,0.8-1.5c0.9-1.6,1.9-3,3-4.3c1.1-1.3,2-2.6,2.7-4c0.6-0.8,1.2-1.6,1.7-2.4c0.5-0.8,0.8-1.6,1.1-2.3
				c1.1-1.6,2.2-3,3.4-4.3c1.1-1.3,2.2-2.7,3.1-4.3c1.7-2.7,3.3-5.4,4.8-8c1.5-2.6,3.1-5.3,4.8-8c2-3.1,3.9-6.2,5.5-9.2
				c1.6-3,3.4-6.1,5.5-9.2c-1.2,0.5-2.4,0.9-3.4,1.2c-1.1,0.3-2.2,0.7-3.4,1.2c-0.3,0.2-0.8,0.4-1.3,0.4c-0.7,2.1-2,3.7-3.9,4.8
				c-0.2,0.2-0.3,0.4-0.3,0.7c-0.1,0.3-0.2,0.5-0.3,0.7c-0.8,1.5-1.6,3.1-2.5,4.7c-0.9,1.6-1.9,3.3-2.8,5.2
				c-0.4-0.7-0.7-1.3-0.7-1.7c0-0.4-0.2-0.8-0.4-1.2c-1.2,1-2,1.9-2.6,2.7c-0.6,0.8-0.5,1.5,0.1,2.2c1.6,1.5,0.8,3.7-2.3,6.6
				c-2.5,2.1-4.3,4.5-5.3,7.1c-0.7,2.1-1.4,4.1-2.2,6.1c-0.8,2-2.4,4-4.7,6.1c-0.9,0.6-1.5,1.5-2.1,2.5c-0.5,1.1-1.1,2.1-1.7,3.1
				c-0.9,1.6-1.7,3-2.4,4.4c-0.7,1.3-1.6,2.8-2.7,4.4c-1.8,2.4-3.5,4.8-5.3,7.1c-1.8,2.4-3.5,4.8-5.3,7.1c-0.3,0.4-0.5,0.8-0.6,1.2
				c-0.1,0.4-0.2,0.8-0.6,1.2c-0.9,1.6-1.8,3.2-2.7,4.8c-0.8,1.6-1.8,3.2-2.9,4.8c-1.3,1.4-2.6,2.7-4,4c-1.3,1.2-2.6,2.6-4,4.3
				c-0.5,0.8-0.9,1.6-1.3,2.3c-0.4,0.8-0.7,1.5-1,2.3c-0.3,0.4-0.5,0.7-0.6,1c-0.1,0.3-0.3,0.6-0.6,1c-0.8,1-1.6,1.9-2.5,2.7
				c-0.8,0.8-1.6,1.7-2.5,2.7c0.2,0.2,0.3,0.3,0.3,0.4c0,0.1,0.1,0.2,0.3,0.4c0.9-0.5,1.6-0.8,2.2-1.1c0.6-0.2,1.4-0.6,2.2-1.1
				c1.7-0.9,3.3-1.9,4.6-2.9c1.6-0.7,2.6-1.8,2.9-3.3c0.3-1.1,0.7-2.3,1.4-3.4c0.7-1.2,1.4-2.3,2-3.5c0.3-0.4,0.8-0.8,1.5-1.3
				c0.5-0.1,0.8,0.2,0.9,0.7l0.4,3.5c-1.4,0.9-2.5,1.8-3.3,2.8c-1.8,2-3.6,4-5.4,6c-1.8,2-3.6,4-5.4,6c-4.4,5.2-8.7,7.6-13,7.1
				c-0.2-0.2-0.4-0.6-0.5-1.2c-0.2-0.6-0.1-1.1,0.3-1.5c0.8-1.4,1.6-2.6,2.5-3.8c0.9-1.2,1.7-2.5,2.5-3.8c0.5-0.8,0.8-1.6,1.1-2.4
				c0.3-0.9,0.7-1.7,1.4-2.5c1.6-2.4,3.2-4.7,4.8-6.9c1.6-2.3,3.2-4.5,4.8-6.7c0.8-1.4,1.5-2.7,2.1-3.9c0.6-1.3,1.2-2.5,1.8-3.9
				c0.8-1.4,1.4-2.7,1.9-4c0.5-1.3,1.1-2.8,1.9-4.3c1.2-2.1,2.6-4.2,4-6c1.5-1.9,2.8-3.9,4-6c1.1-1.6,2.1-3.1,2.9-4.7
				c0.8-1.5,1.6-3.1,2.4-4.6c-0.2-0.2-0.5-0.2-1-0.2c-0.4,0-0.9,0-1.2,0c-0.4-0.1-0.6-0.2-0.6-0.4c0-0.2,0.3-0.8,0.9-1.7
				c1-1.4,1.9-2.7,2.7-4c0.9-1.3,1.7-2.6,2.5-4c0.9-0.6,1.2-1.4,1.1-2.3c0-2.2,0.5-4.4,1.5-6.6c1-2.2,2.5-4.5,4.2-6.9
				c0.6-0.8,1.1-1.5,1.4-2.1c0.8-1.5,1.5-3.2,2.2-4.9c0.7-1.7,1.6-3.5,2.5-5.2c0.1-0.4,0.4-0.7,0.7-0.9c0.3-0.2,0.7-0.5,1-0.9
				c-0.3,0.2-0.7,0.4-1.2,0.4c-0.5,0-0.9,0.2-1.2,0.4l-9.6,5.4c-0.5,0.4-1.1,0.7-1.7,0.7c-0.6,0.1-1.2,0.2-1.7,0.5
				c-0.9,0.5-1.8,0.8-2.8,1.1c-1,0.3-1.9,0.7-2.8,1.1c-0.2,0-0.4,0.1-0.5,0.3c-0.2,0.2-0.4,0.3-0.8,0.4c-0.7,0.1-1.8-0.5-3.3-1.7
				c-1.5-1.2-2.2-2.2-2.1-2.9c-0.2-0.3-0.4-0.9-0.4-1.6c-0.5-1.4-1.1-2.7-1.6-3.9c-0.6-1.2-1.1-2.5-1.6-3.9
				c-0.9-1.7-0.8-3.3,0.3-4.7c0.8-0.8,1.2-2.1,1-3.9c-0.1-1.1,0.1-1.9,0.6-2.4c0.5-0.5,1-1.1,1.5-1.7c0.9-0.6,1.7-1.2,2.6-1.8
				c0.9-0.5,1.6-1.2,2.3-2c1.9-1.1,4.1-2.3,6.6-3.6s5-2.4,7.5-3.4c2.8-1,5.7-2.1,8.7-3.4c3.3-1.3,6.7-2.4,9.9-3.5
				c3.3-1.1,6.5-2.1,9.7-3.2c0.9-1.9,1.8-3.8,2.8-5.6c1-1.8,1.9-3.7,2.8-5.6c0.3-0.6,0.6-1.2,0.8-1.9c0.2-0.7,0.4-1.4,0.5-2.1
				c1.6-4.4,4.2-8.9,7.9-13.7c3.6-4.2,5.6-8.4,6.1-12.4c0.2-1.5,1-3.1,2.4-4.8c1.4-1.7,2.9-2.8,4.5-3.3c1.9-0.8,2.8-1.8,2.7-3.3
				c-0.7-2.9-0.5-5.5,0.5-8c0.7-1.9,1.5-3.7,2.5-5.5c0.9-1.7,1.7-3.6,2.5-5.5c1.2-2.7,2.4-5.3,3.7-7.8c1.3-2.5,3.1-5.1,5.4-7.7
				c0.3-0.4,0.5-0.8,0.6-1.3c0-0.5,0.2-0.9,0.6-1.3c0.3-0.8,0.6-1.5,0.9-2.1c0.3-0.7,0.6-1.5,0.8-2.4c0.5-1,1-1.8,1.6-2.6
				c0.6-0.8,1.1-1.6,1.4-2.3c0.7-1.7,1.6-3.4,2.6-5.1c1-1.7,1.8-3.3,2.4-5c0.4-1.5,1.2-3.1,2.4-4.8c1.2-1.7,2.3-3.3,3.2-4.9
				c1.2-2.3,2-4.3,2.4-6c0.9-5.2,3.6-10.2,8.1-14.8c0.5-0.4,0.9-1,1.3-1.6c0.4-0.7,0.5-1.2,0.3-1.5c-0.2-1.6,0.2-3.4,1.3-5.2
				c1-1.8,2-3.7,2.9-5.6c0.8-1.5,1.5-3,2.2-4.5c0.7-1.4,1.4-2.9,2.2-4.5c0.8-1,1.3-1.7,1.4-2.1c0.5-0.6,1-1.2,1.5-1.7
				c0.5-0.5,0.9-1.1,1.2-1.6c0.8-1.5,1.6-3,2.4-4.4c0.9-1.4,1.6-2.8,2.2-4.3c1-2.7,2.3-5.2,3.9-7.5c1.6-2.4,3.8-4.5,6.5-6.4
				c0.3-0.2,0.6-0.4,0.8-0.6c0.2-0.2,0.4-0.5,0.7-0.9c3.3-3.5,6.6-6.2,9.8-8.3c3.2-2.1,6.6-2.9,10.3-2.6c1.3,0.2,2.5-0.2,3.7-1.2
				c1.5-1.1,2.8-1.7,3.7-1.7c0.9-0.1,1.8,0,2.8,0.3c0.2,0,0.2,0,0.1,0.1c-0.1,0.1,0,0.1,0.2,0.1c1.5-1.8,3.1-3.2,5.1-4.1
				c1.4-0.7,2.8-1.4,4.3-2.2c1.5-0.8,2.9-1.6,4.3-2.5c0.2,0,0.4-0.2,0.8-0.6c1.8-2.4,3.6-3.9,5.6-4.6c1.9-0.7,3.8-1.4,5.5-2.1
				c2.1-0.8,4.1-1.2,5.9-1.4C393.2,132.1,395,132,396.8,132z M207.9,403.7c-0.1-0.7-0.4-1.1-0.9-1c-0.4,0-0.7,0.2-0.9,0.4
				c-0.3,0.2-0.6,0.4-0.9,0.6c-0.6,1-1.2,2-1.6,2.9c-0.4,1-1,1.9-1.6,2.9c-0.1,0.4-0.2,0.8-0.2,1.1c0,0.4,0.1,0.5,0.3,0.5
				c0.4,0,0.8-0.2,1.3-0.4c0.5-0.2,0.9-0.6,1.3-1c0.5-1,0.9-2,1.5-3C206.7,405.7,207.3,404.7,207.9,403.7z M255,344
				c-0.3,0.6-0.7,1.2-1,1.9c-0.4,0.7-0.7,1.3-1,1.9l5.6-1.4c0.2,0,0.3-0.1,0.4-0.2c0.1-0.1,0.2-0.2,0.4-0.2c0.3-0.4,0.6-0.8,0.7-1.3
				c0.1-0.5,0.4-0.9,0.7-1.3c1.5-1.6,2.6-3.1,3.4-4.5c0.8-1.4,1.4-2.8,2-4.3c0.7-1.7,1.7-2.6,3-2.5c0.4,0,0.7-0.1,0.9-0.2
				c0.3-0.1,0.7-0.2,1.2-0.3c-0.2-0.5-0.5-0.9-0.7-1.2c-0.2-0.3-0.4-0.5-0.6-0.9c0.2-0.2,0.4-0.3,0.8-0.4c0.1-0.6,0.2-1.1,0.1-1.7
				c-0.1-0.5,0.1-1.2,0.3-2c-0.1-0.5,0.1-1,0.4-1.4c0.8-1,1.5-2,2.1-3.1c0.6-1.1,1.3-2.2,2.1-3.4c-0.4-0.7-0.5-1.5-0.1-2.5
				c0.4-0.9,0.9-2,1.7-3.2c1-1.4,1.9-2.7,2.8-3.9c0.9-1.2,1.7-2.5,2.5-3.8c0.3-0.6,0.6-1.2,0.9-1.9c0.3-0.7,0-1-0.9-0.9
				c-1.3,0-2.6,0.9-3.8,2.9c-2.2,3.9-4.2,7.8-6.2,11.8c-2,4-4.4,7.9-7.3,11.9c-2.1,2.6-3.9,5.2-5.5,7.8
				C258.3,338.6,256.7,341.3,255,344z M265.2,344.6c-0.1-0.7,0-1.3,0.1-1.7c-0.3,0.4-0.7,0.8-1,1.1c-0.3,0.3-0.7,0.7-1,1.1
				C264.2,345,264.8,344.8,265.2,344.6z M318,343c0.9-0.3,1.8-0.4,2.8-0.4c1,0,2-0.1,3.1-0.2l1.9-0.2c0.3-0.9,0.5-1.8,0.6-2.5
				c0.1-0.7,0.2-1.5,0.3-2.2l-0.3,0c-2.6,0.1-5,0.4-7.5,0.9c-2.4,0.5-4.9,1.1-7.4,1.7c-0.4,0-0.7,0-1,0c-0.3-0.1-0.6-0.1-1,0
				c-2.2,0-4.4,0-6.6,0c-2.2,0-4.3,0.5-6.4,1.6c-1,0.5-2.1,0.9-3.2,1.2c-1.1,0.3-2,0.6-2.9,0.9c-1.4,0.3-2.8,0.6-4,0.8
				c-1.3,0.2-2.6,0.4-4.1,0.6c-1.6,0.4-3.2,0.6-4.9,0.8c-1.6,0.2-3.2,0.4-4.9,0.8l-6.5,0.7c-0.1,0.4-0.2,0.9-0.1,1.7
				c0.7-0.1,1.5-0.1,2.2-0.1c0.7,0,1.5,0,2.5-0.1c0.5-0.1,1.1-0.1,1.6,0c0.6,0,1.1,0,1.6,0c0.9,0.1,1.8,0.2,2.5,0.3
				c0.7,0.1,1.6,0.1,2.5,0c1.1-0.1,2.2-0.3,3.4-0.5c1.2-0.2,2.3-0.5,3.4-0.8c1.1-0.3,2.2-0.6,3.3-0.9c1.2-0.3,2.3-0.6,3.3-0.9
				c0.4,0,0.7-0.1,0.9-0.2c0.3-0.1,0.6-0.1,1,0c1.5,0.2,2.9,0.2,4.4,0c1.4-0.2,2.9-0.6,4.3-1c1.4-0.4,2.8-0.7,4.2-0.8
				c1.4-0.1,2.7,0,4,0.4l0.5-0.1c0.9-0.3,1.9-0.5,2.9-0.7C315.8,343.2,316.9,343.1,318,343z M289.1,304.8c-0.8,1.4-1.4,2.7-1.9,3.9
				c-0.5,1.2-1.2,2.5-1.9,3.9c-0.8-0.3-1.3-0.4-1.7-0.4c-0.4,0-0.9-0.1-1.7-0.4c-1.3,2.9-2.6,5.9-3.7,8.9c1-1,1.8-1.9,2.3-2.7
				c0.6-0.8,1.2-1.5,1.8-2.1c-0.3,4.1-3.2,7.4-8.6,9.9c1.3,0.1,2.1,0.2,2.4,0.6c0.3,0.3,0.4,0.7,0.4,1.2c0,0.5-0.3,0.9-0.8,1.5
				c-0.5,0.5-0.9,1.1-1.2,1.6c-0.3,0.4-0.6,0.8-0.7,1.3c-0.1,0.5-0.4,0.9-0.7,1.3c-1.1,1.8-2.1,3.5-3,5.3c-0.9,1.7-1.8,3.5-2.7,5.2
				c-0.2,0-0.3,0.1-0.3,0.3c5.7-1.5,11.3-2.6,16.7-3.4c6.3-1,12.6-2,18.7-3c6.1-1,12.3-1.8,18.5-2.5l6.3-0.6
				c0.3-0.8,0.5-1.5,0.7-2.1c0.2-0.7,0.4-1.5,0.7-2.4c-0.9,0.6-1.6,1.1-2.2,1.5c-0.6,0.3-1.2,0.7-1.7,1.1c0-0.4-0.1-0.8-0.3-1.2
				c-0.1-0.4-0.1-0.9,0-1.2c0.2-1.1,0.5-2.2,0.6-3.4c0.2-1.1,0.4-2.2,0.6-3.4c0.3-0.4,0.8-0.9,1.5-1.5c-0.4,1.5-0.5,2.6-0.2,3.3
				c-0.1,0.4,0.3,0.9,1.3,1.5c0.3-0.2,0.6-0.4,0.6-0.5c0.1-0.1,0.3-0.3,0.6-0.5c0-1.5,0-2.8,0-4c0-1.2,0.1-2.5,0.3-4
				c0.1-0.6,0.2-1.2,0.1-1.8c-0.1-0.6,0-1.3,0.3-2.1c0.1-0.7,0.2-1.4,0.2-2.1c0-0.6-0.4-1-1.3-1.1c-0.2,0-0.8-0.4-1.8-1.2l3.9-1.8
				c-0.3-0.7-0.4-1.3-0.5-1.9c-0.1-0.5-0.2-1-0.4-1.3c-0.4-0.7-0.7-1.3-0.9-2c-0.2-0.6,0.4-1.6,1.8-2.8c-1.2-1-0.9-2.3,1-3.9
				c1-0.8,1.5-1.5,1.6-1.9c0-0.5-0.1-0.9-0.5-1.2c-0.4-0.7-0.8-1.3-1.2-1.9c-0.3-0.6-0.6-1.2-0.9-1.7c-0.4-0.5-0.6-0.9-0.4-1.3
				c0.1-0.4,0.7-0.9,1.8-1.6c0.3-0.4,0.8-0.9,1.4-1.5c0.6-0.6,0.8-1.1,0.8-1.5c-0.1-0.7-0.2-1.4-0.4-2.2c-0.2-0.7-0.5-1-1.1-1
				c-1.8,0-1.8-0.8,0-2.5c2.2-1.7,2.8-3.2,1.7-4.6c-0.4-0.5-0.7-1.5-0.9-2.9c2-1.5,3.1-2.4,3.3-2.7c0.2-0.3-0.4-0.7-1.8-1.3
				c-0.6-0.3-0.9-0.7-0.9-1.1c0-0.4,0.6-1.2,2-2.3c0.9-0.1,1.3-0.5,1.2-1.2c-0.1-0.9-0.1-1.8,0-2.6c0.1-0.8-0.1-1.4-0.7-1.7
				c-0.8-0.5-1.1-1.2-1-2.1c0.1-0.9,0.2-1.9,0.2-3c0.3-0.9,0.6-1.8,1-2.6c0.4-0.8,1.4-1.5,3.2-2.3c-0.3-1.1-0.6-2.1-0.9-3.1
				c-0.3-1-0.5-2-0.6-3.1c0-0.4-0.1-0.7-0.1-1.1c0-0.4,0.1-0.7,0.4-1.1c1.3-1.6,2-3,2.2-4.1c0.2-1.1,0.5-2.3,1.1-3.7
				c1.1-2.1,0.6-3.1-1.4-2.9c-0.5,0.1-0.8-0.1-0.9-0.5c0.2-1.3,0.5-2.6,0.7-3.8c0.2-1.2,0.5-2.5,0.7-3.8c0.7-2.4,0.9-4.7,0.7-6.7
				c0.1-0.4,0.2-1,0.1-1.9c-0.3,0.6-0.6,1.1-0.8,1.6c-0.2,0.5-0.5,0.9-0.8,1.3c-1.2,2.1-2.4,4.3-3.6,6.5c-1.1,2.2-2.3,4.4-3.6,6.5
				c-1.1,1.6-2.2,3.2-3.4,4.7c-1.1,1.6-2.1,3.2-3.1,4.7c-1.1,1.9-2.1,3.9-3.1,5.8c-1,1.9-2.1,3.9-3.4,5.8
				c-3.5,6.4-7.3,12.8-11.2,19.3c-0.3,0.9-0.8,1.8-1.5,2.6c-0.7,0.8-1.3,1.6-1.5,2.4c-1.3,3.6-3,7.1-5.2,10.6
				c-2.2,3.4-4.4,6.8-6.6,10.2c-0.9,1.9-1.9,3.8-3,5.7C291,301.3,290,303.1,289.1,304.8z M285.4,296.1c0.2,0.2,0.4,0.2,0.6,0.2
				l0.5-0.1c0.7-0.1,1.2-0.5,1.5-1.3c0.4-1,0.8-1.9,1.1-2.7c0.3-0.9,0.6-1.8,1.1-2.7c-0.4,0-0.6,0-0.8-0.2c-0.8,1.2-1.5,2.3-2,3.4
				C286.9,293.8,286.2,294.9,285.4,296.1z M329.7,403.2c1.2-6,2.3-11.8,3.4-17.5c1.1-5.7,2.2-11.5,3.4-17.5c-1.5,1.3-2.4,2-2.8,2.2
				c-0.3,1.1-0.7,2.3-1.4,3.4c-0.7,1.2-0.6,2.2,0.2,3c0.2,0.5,0,1.4-0.6,2.5c-0.3,1.1-0.5,1.9-0.9,2.3c-0.1,0.4-0.3,0.7-0.4,1
				c-0.2,0.3-0.3,0.6-0.4,1c-0.3,0.8-0.7,1.5-1.1,2.3c-0.5,0.8-0.6,1.3-0.4,1.7c0.5,1,0.5,2.3,0.1,3.7c-0.4,1.4-0.7,2.8-1,4.1
				l-0.2,0.6c0.1,1.1,0.4,2.1,0.9,3.1c0.5,1,0.2,2.2-0.7,3.8c0.2,0.2,0.4,0.2,0.6,0.2c0.2,0,0.4,0,0.6,0.1
				C329.1,403.2,329.3,403.2,329.7,403.2z M329.1,439.5c0.2,0.3,0.4,0.5,0.6,0.6c0.2,0.1,0.2,0.3,0.1,0.7c-0.5,1-0.9,2-1.5,3.2
				c-0.5,1.2-1.1,2.3-1.7,3.5l-0.8,0.1c0.3-0.9,0.5-1.9,0.7-2.9c0.2-1,0.4-2,0.7-3c0.1-0.4,0.4-0.7,0.9-1
				C328.4,440.3,328.7,439.9,329.1,439.5z M348.4,321.7c-0.7,0.6-1.4,1.2-2.1,1.9c-0.8,0.6-1.3,1.2-1.6,1.8
				c-0.3,0.4-0.2,0.8,0.4,1.2c0.6,0.4,1.1,0.8,1.5,1.1l1.5-1.8C348.4,324.5,348.6,323.2,348.4,321.7z M344.2,333.9
				c0.6,0.1,1.1,0.2,1.5,0.1c0.4,0,0.9,0,1.2,0.1c0.3-0.2,0.5-0.5,0.5-0.9c0.1-0.4-0.1-1-0.7-1.8c0-0.4-0.4-0.5-1.1-0.4
				c-0.5,0.4-0.9,1-1.2,1.8c0,0.4,0,0.6-0.1,0.7C344.2,333.6,344.2,333.8,344.2,333.9z M342.5,394.7c0.1-0.4,0.4-0.9,0.7-1.4
				c0.3-0.6,0.6-1.1,0.9-1.5l1.1-0.1c-3.4,15-8.1,30.3-14.2,45.9c-0.6-0.3-1.1-0.6-1.5-0.9c-0.4-0.3-0.5-0.6-0.4-0.8
				c1.3-1.6,2-3,2.2-4.1c0.2-1.1,0.5-2.2,0.9-3.4c0.6-1.3,1.1-2.7,1.5-4c0.4-1.3,0.8-2.6,1.2-4c0.7-1.9,1.3-3.7,1.8-5.5
				c0.5-1.8,1-3.7,1.7-5.8c0.2-1.1,0.6-2.3,1.2-3.4c0.5-1.1,0.9-2.2,1.2-3.1c0.4-1.5,0.7-2.9,1-4.1
				C342.1,397.3,342.3,396.1,342.5,394.7z M352.3,305.4c1-2.8,1.6-5.6,1.9-8.2c0.3-2.6,0.6-5.3,1.1-8.1c-1.7,1.5-2.6,2.7-2.8,3.7
				c-0.2,1-0.3,2.1-0.4,3.2c-0.2,1.5-0.4,3-0.5,4.6c-0.1,1.6-0.3,3.1-0.5,4.6c0,0.2,0,0.3-0.1,0.4c-0.1,0.1-0.1,0.2-0.1,0.4
				c0.3-0.2,0.6-0.3,0.6-0.3C351.7,305.7,351.9,305.6,352.3,305.4z M364.1,340.9c-1-0.6-2-1.2-3.2-1.7c-1.2-0.5-2.3-0.9-3.4-1.2
				l-0.3,0c-0.3,0.4-0.6,0.9-0.7,1.4c-0.1,0.6-0.3,1.1-0.6,1.7c0.9,0.1,1.9,0.2,2.9,0.2c1,0.1,2,0.2,2.9,0.2c0.6,0.1,1.3,0.1,2.2,0
				c0-0.2,0-0.3,0.1-0.4C364.1,341.3,364.2,341.1,364.1,340.9z"/>
			<path class="st0" d="M479.3,154c0.8,0.8,1.3,1.9,1.4,3.1c0.1,1.3,0.2,2.5,0.1,3.8c0.2,3.6-0.4,7-1.7,10.2c-1.3,3.2-3.2,6.1-5.7,9
				c-0.5,0.6-1,1.5-1.6,2.6c-0.8,1.2-1.4,2.4-2,3.6c-0.5,1.2-1.6,2.1-3.2,2.7c-0.4,0-0.6,0.2-0.8,0.6c-0.1,0.4-0.4,0.8-0.7,1.2
				c-1.2,2.1-2.4,4.3-3.4,6.5c-1.1,2.2-2.1,4.4-3.2,6.5c-0.2,0.2-0.2,0.4-0.2,0.7c0,0.3,0,0.6-0.2,1c-0.1,0.6-0.3,1.1-0.4,1.7
				c-0.1,0.6-0.4,1-0.7,1.2c-2.8,1.4-4.4,3.3-4.8,5.7c-0.4,2.4-0.8,4.8-1.3,7c-0.3,0.9-0.5,1.4-0.7,1.4c-1.3,1.6-2.7,3-4.2,4.3
				c-0.2,0.2-0.2,0.3-0.2,0.4c0,0.1-0.1,0.2-0.2,0.4c-0.7,1.9-1.4,3.8-1.9,5.5c-0.5,1.8-1.2,3.7-1.9,5.8c-0.1,0.4-0.4,0.7-0.7,1
				c-0.3,0.3-0.7,0.7-1,1.1c-0.9,1.6-1.5,2.8-1.8,3.8c-0.3,0.6-0.4,1.1-0.4,1.7c0.1,0.5-0.1,1-0.4,1.4c-0.6,1.5-1.2,3-1.7,4.4
				c-0.6,1.4-1.2,2.9-1.7,4.4c-0.1,0.4-0.2,0.8-0.3,1.1c-0.1,0.4-0.2,0.6-0.4,0.6c-2.6,1-2.8,2.5-0.4,4.4c-1,0.5-1.7,1-1.9,1.4
				c-0.2,0.5-0.4,1.3-0.4,2.4c0.1,1.3-0.2,2.5-1,3.8c-0.8,1.3-1.5,2.5-2.1,3.6c-0.3,0.6-0.5,1.1-0.7,1.6c-0.1,0.5-0.3,1-0.4,1.6
				c-0.1,0.6-0.2,1.2-0.2,1.8c0,0.6-0.2,1.3-0.5,2.1c-0.5,1-1,1.8-1.5,2.5c-0.6,0.7-0.6,1.8-0.1,3.2c0.5,0.9,0.3,1.9-0.5,3.1
				c-0.8,1.2-1.4,2.3-1.9,3.5c-0.3,0.9-0.5,1.8-0.7,2.5c-0.2,0.8-0.4,1.6-0.7,2.5c-0.3,1.1-0.8,2-1.7,2.6c-0.3,0.4-0.8,0.9-1.3,1.4
				c-0.5,0.5-1.1,1.1-1.8,1.7c0.6,0.3,1.1,0.5,1.6,0.7c0.5,0.1,1.1,0.3,1.8,0.6c-0.5,0.4-1,0.8-1.5,1.1c-0.5,0.3-0.9,0.7-1.3,1.1
				c0.4,0.7,0.5,1.7,0.3,3c-0.2,1.3-0.8,2.3-1.6,2.9c-0.8,0.8-1.3,2-1.3,3.4c0,1.5,0.4,2.6,1.5,3.4c-0.4,1.1-0.8,2.2-1.2,3.3
				c-0.4,1-0.7,2-1.2,3c-1.2,0.5-2.4,0.8-3.5,0.9c-1.1,0.1-2.1,0.4-2.9,0.9c-0.4,0-0.6,0.3-0.9,0.9c-0.2,0.6-0.2,0.9,0,1.1
				c0.4,0.3,0.8,0.6,1.2,0.7c0.4,0.1,0.8,0.3,1.1,0.4c0.4,0,0.8-0.2,1.2-0.5c0.4-0.3,1-0.4,1.7-0.3c-0.9,1.7-1.7,3.6-2.5,5.5
				c0.1,0.9,0.1,1.8,0,2.7c-0.1,0.9-0.9,1.7-2.5,2.2c0.8,0.5,1.6,1,2.4,1.7c-0.4,1.1-0.9,3.4-1.5,6.7c-0.6,3.4-1.1,7.2-1.5,11.7
				c-0.5,4.4-0.9,9.1-1.4,14c-0.5,4.9-0.9,9.4-1.1,13.6c-0.2,4.1-0.3,7.7-0.3,10.6c0,2.9,0.2,4.6,0.7,5.1l2.8,21.9l-0.5,0.3l0.4,1.6
				c0.1,1.4,0.4,2.5,0.6,3.2c0.5,1,1,2.2,1.5,3.6c0.5,1.3,0.9,2.7,1.1,4c0.2,1.3,0.3,2.5,0.4,3.4c0,0.9-0.3,1.4-0.8,1.5
				c-1.3,0-2.5-0.1-3.7-0.2c-1.2-0.1-2.2-0.8-2.9-2.2c0-0.4-0.2-0.5-0.6-0.5c-3.4-1.1-6.2-3.1-8.2-5.9c-2-2.8-4-5.8-5.8-8.9
				c-0.5-1-1-2.1-1.4-3.1c-0.5-1-1-2.1-1.4-3.1l-0.3,0c-0.1-0.5-0.2-0.9-0.4-1.1c-0.3-0.7-0.3-1.4-0.2-2.2c0.1-0.7,0.2-1.5,0.3-2.2
				c-1.3,0.5-2,0.1-2.2-1.1c-0.1-1.3-0.3-2.3-0.6-3.2c-1.1-5.7-2.1-11.5-2.7-17.3c-0.7-5.8-1-11.6-0.8-17.5c0-3.7,0-7.2,0.1-10.7
				c0.1-3.5,0.3-7,0.6-10.5c0.4-4.6,0.9-9.1,1.4-13.6c0.5-4.4,1-8.9,1.4-13.3l1.1-0.1c0.1,1.1,0.2,2.2,0.3,3.3
				c0.1,1.1,0.1,2.2,0.1,3.3c-0.2,1.3-0.4,2.5-0.6,3.6c-0.2,1.1-0.3,2.3-0.6,3.6c-0.3,2.4-0.5,4.7-0.7,6.9c-0.2,2.2-0.4,4.5-0.5,6.9
				c-0.2,3.1-0.4,6.3-0.6,9.4c-0.2,3.1-0.4,6.3-0.6,9.4c-0.1,0.9-0.1,1.8,0,2.6c0.1,0.8,0.2,1.7,0.3,2.6c-0.1,0.7-0.2,1.5-0.3,2.2
				c-0.1,0.7-0.1,1.5,0,2.2c0.1,0.5,0.2,1.1,0.5,1.6c0.3,0.5,0.5,1,0.8,1.6l0.9-0.1c0.1-2.4,0.2-4.7,0.2-6.9c0-2.2,0.1-4.5,0.2-6.9
				l1.1-0.1l0.8,7.3c0.1,0.5,0.1,1.1,0,1.8c0,0.6,0,1.2,0,1.8c0.1,0.9,0.2,1.8,0.4,2.7c0.2,0.9-0.1,1.8-0.9,2.8
				c-0.3,0.2-0.4,1-0.3,2.2c0.4,2.3,0.8,4.6,1.1,6.7c0.3,2.2,0.7,4.4,1.1,6.7c-0.9-0.3-2-0.5-3.1-0.8l-0.7,0.9
				c0.8,0.7,1.5,1.2,2.2,1.7c0.7,0.5,1.5,1.1,2.5,1.9c-0.7,0.4-1.3,0.7-1.7,0.9c-0.4,0.1-1,0.4-1.7,0.9c1.5,0.6,2.6,1.3,3.1,2.1
				c0.5,0.9,0.7,1.9,0.5,3.2c0,0.4,0.3,0.8,0.7,1.2c0.4,0.4,0.8,0.8,1.2,1.1c0.1-0.4,0.3-0.8,0.6-1.3c0.2-0.5,0.3-0.9,0.3-1.3
				c-0.4-2.2-0.7-4.3-1.1-6.5c-0.4-2.2-0.7-4.3-1.1-6.5c-0.1-0.5,0-1.1,0.1-1.7c0.1-0.6,0.2-1,0.1-1.4c0.1-0.6,0.1-1.1,0-1.6
				c-0.1-0.5-0.2-1-0.3-1.3c-0.1-0.5-0.1-1.1,0-1.6c0-0.6,0-1.1,0-1.6c-0.1-2.6-0.2-5.1-0.4-7.8c-0.2-2.6-0.2-5.2-0.1-7.8
				c0.2-1.7,0.4-3.2,0.7-4.7c0.3-1.5,0.5-3.1,0.5-4.7c0.2-2,0.2-4.1,0.2-6.2c0-2.1,0-4.4,0.1-7c0.7,0.1,1.4,0.1,2.2,0
				c0.8-0.1,1.6-0.1,2.5,0c0.1-0.6,0.1-1.1,0.1-1.7c-0.1-0.5,0-1.2,0.1-1.9c-0.2,0-0.3,0-0.4-0.1c-0.1-0.1-0.2-0.1-0.4-0.1
				c-0.3,0.4-0.6,0.7-0.8,0.9c-0.2,0.2-0.5,0.5-0.8,0.9c-1.1-2.1-1.5-4.1-1.1-6.1c0.3-2,1.3-3,2.8-3.2l0.6,5.4l0.5-0.1
				c0.3-1.1,0.6-2.2,1-3.3c0.4-1,0.7-2.3,0.9-3.8c-1.6-0.4-3.3-0.8-5.2-1.1c0.3-0.6,0.8-0.9,1.6-0.8c0.7,0,1.4,0,2.1,0.1
				c0.7,0,1.2-0.2,1.5-0.6c0.3-0.4,0.3-1.3-0.3-2.7c0.5-0.4,1.1-0.8,1.7-1.3c0.6-0.4,1.4-0.9,2.2-1.3c-0.7-0.1-1.5-0.3-2.2-0.5
				c-1.4,1.1-2.6,1.2-3.6,0.6c-1.1-0.7-2.2-1.1-3.3-1.4c-0.9,1.5-1.6,2.5-1.9,3.1c0.2,0.2,0.4,0.2,0.6,0.2c-0.3,0.9-0.5,1.8-0.6,2.5
				c-0.1,0.7-0.2,1.6-0.3,2.5c-0.1,0.4-0.2,0.8-0.3,1.4c0,0.6-0.1,1-0.3,1.4l-0.9,8.3c-0.4,2.1-0.8,4-1.1,5.9
				c-0.4,1.9-0.7,3.7-0.9,5.6c-0.1,0.9,0,1.8,0.3,2.6c0.3,0.8,0.4,1.6,0.5,2.6c-0.1,0.4-0.3,0.8-0.6,1.3c-0.2,0.5-0.4,0.9-0.6,1.3
				c-0.8-1-1.3-1.9-1.4-2.6c0.1-2.6,0.2-5.1,0.3-7.6c0.1-2.5,0.3-5,0.6-7.6c0.4-3.3,0.8-6.6,1.3-9.9c0.5-3.2,1-6.5,1.6-9.8
				c0.1-0.9,0.1-1.6,0.2-2.4c0-0.7,0.2-1.4,0.5-2.2c0.1-0.4,0.4-0.7,0.7-0.9c0.3-0.2,0.7-0.5,1-0.9c0.2,0.2,0.3,0.2,0.4,0.2
				c0.1,0,0.2,0.1,0.4,0.2c-0.1,0.6-0.3,1.6-0.5,3.1c1.5,0.2,2.5,0.3,3,0.2c0.5-2.3,0.9-4.6,1.2-6.9c1.1,0.4,2.6,0.9,4.2,1.2
				c2.6-1.8,1.9-4.2-1.9-7.4c-0.1,0.4-0.3,0.6-0.5,0.7c-0.2,0.1-0.2,0.3-0.2,0.4c0.2,1.5-0.2,2.4-1,2.7c-0.8,0.4-1.7,0.4-2.9,0.2
				c-2-0.2-2.8-1.4-2.3-3.9c0.8-2.8,1.7-5.6,2.6-8.4c0.9-2.7,1.8-5.5,2.6-8.4c0.3-0.6,0.4-1.1,0.4-1.7c-0.1-0.5-0.1-0.9-0.1-1.1
				c0.9-0.3,1.6-0.4,2.1-0.5c0.5-0.1,1.1-0.2,1.6-0.4c-0.4-0.3-0.8-0.7-1.1-1.3c-0.3-0.5-0.7-1.1-1.1-1.8c0.5-0.6,0.8-1.4,0.9-2.3
				c0.1-0.9,0.2-1.8,0.3-2.8c0.1-0.9,0.3-1.8,0.6-2.5c0.3-0.8,0.9-1.5,1.7-2.1c0.2-1.5,0.4-3,0.6-4.5c0.2-1.5,0.5-3,0.9-4.5
				c0.7-2.1,1.5-4.2,2.4-6.4c0.9-2.2,1.6-4.4,2.3-6.7c0.4-1.1,0.8-2.3,1-3.5c0.2-1.2,0.5-2.5,0.7-3.8c0.6-1.2,1.3-1.9,2-2.1
				l-1.8,6.8c0.2,0,0.3,0,0.4,0.1c0.1,0.1,0.3,0.1,0.7,0.1c0.1-0.4,0.3-0.7,0.4-1c0.1-0.3,0.4-0.6,0.7-1c0.3-0.9,0.6-1.9,1.1-2.9
				c0.5-1,0.8-1.9,1.1-2.9c0.1-0.6,0.1-1.5,0-2.7l-2.2,0.2l-0.6-0.5c0.7-0.4,1.3-0.9,1.8-1.4c0.5-0.5,1-1,1.5-1.4
				c0.7-0.6,1.3-1.3,1.8-2.1c-0.6-0.1-1.5-0.6-2.7-1.4c0.6-1.2,1.2-2.5,1.7-3.9c0.5-1.4,1.2-2.9,1.9-4.4c0.4,0.3,0.7,0.5,0.9,0.6
				c0.2,0.1,0.5,0.3,0.9,0.6c-0.6-1.8-0.9-3.5-1-5.1c-0.1-1.6,1.2-2.9,3.7-3.7c-1-1.2-1.5-2.7-1.3-4.5c0.2-1.8,1.1-5,2.9-9.4
				c-0.5,0.6-1.1,1.2-1.7,1.7c-0.7,0.5-1.2,1.2-1.4,1.9c-1.6,4.2-3.1,8.4-4.6,12.5c-1.5,4.2-3,8.5-4.6,12.8c-0.6,1.3-1.2,2.6-2,3.6
				c-0.7,1.1-1.3,2.2-1.7,3.3c-0.7,1.7-1.3,3.4-1.7,5.1c-0.4,1.7-0.8,3.4-1.4,5.1c-0.3,0.6-0.6,1.2-0.9,1.7c-0.3,0.6-0.5,1.2-0.6,2
				c-0.6,1.5-1,3.2-1.3,4.9c-0.3,1.8-0.7,3.7-1.2,5.7c-0.3-0.9-0.6-1.5-0.9-2c-0.3-0.4-0.4-0.8-0.3-1.2c0.4-1.5,0.8-2.9,1.2-4.2
				c0.4-1.3,0.8-2.6,1.2-4c1.2-4,2.5-7.9,3.7-11.9c1.2-4,2.6-7.9,4-11.9c1.3-3.8,2.6-7.5,4-11.3c1.4-3.7,2.9-7.5,4.3-11.3
				c2.5-6.3,4.8-12.5,7.1-18.7c2.3-6.2,4.7-12.3,7.1-18.4c2.2-5.3,4.6-10.5,7.2-15.6c2.6-5,5.2-10,7.8-15.1c0.7-1.7,1.8-3.2,3.1-4.4
				c1.3-1.2,2.8-1.8,4.5-1.8c1.3,0.1,2.7-0.1,4.2-0.4c1.5-0.3,2.9,0.3,4.2,2c0.4,0.5,1.1,0.8,2.1,0.7c1,0,2,0.1,2.9,0.4
				c2.7,1,5.3,2.1,7.9,3.3C475.5,150.1,477.6,151.8,479.3,154z M384.3,320.5c-0.4,1.9-0.8,3.8-1.3,5.9l-1.1-0.4
				c0.4-1.9,0.8-3.7,1.2-5.6c0.4-1.9,0.8-3.8,1.2-5.9l1.1,0.4C385,316.8,384.7,318.7,384.3,320.5z M390.7,292.4
				c-0.7,3.6-1.5,7.1-2.2,10.5c-0.7,3.5-1.7,6.9-2.8,10.3c-0.2-0.2-0.4-0.2-0.6-0.2c-0.2,0-0.4,0-0.6-0.2c0.9-3.6,1.8-7,2.6-10.4
				c0.8-3.4,1.7-6.9,2.6-10.4c0.2,0.2,0.3,0.2,0.4,0.2C390.4,292.2,390.5,292.3,390.7,292.4z M394.3,276.7c0.2,0.5,0.3,1.4,0.3,2.6
				c-0.1,1.2-0.2,2.5-0.6,3.9c-0.3,1.4-0.7,2.8-1.2,4.1c-0.5,1.3-1,2.4-1.5,3.2c-0.4,0-0.6,0-0.8-0.2c0.7-2.1,1.3-4.3,1.9-6.5
				C393,281.5,393.6,279.2,394.3,276.7z M403.6,313.6c0.2-1.3,0.5-2.5,0.9-3.5c0.3-1,0.7-2,0.9-3l-0.6-0.5c-0.7,0.6-1.3,1.2-2,1.9
				c-0.7,0.6-1.4,1.3-2.2,2.2c0-0.4-0.2-0.8-0.4-1.2c-0.2-0.4-0.4-0.8-0.4-1.2l-0.8-7.6c-1.4,0.5-2,1.6-1.9,3.2
				c0.1,0.5-0.2,1.1-0.6,1.7c-0.5,0.6-0.9,1.1-1.2,1.5c-0.3,0.4-0.6,0.7-0.9,0.9c-0.3,0.2-0.5,0.5-0.9,0.9c0,0.2,0.1,0.4,0.3,0.5
				c0.7,0.1,1.8,0.1,3.3-0.1l0.4,4.3c-0.4-0.1-0.7-0.4-1-0.9c-0.3-0.4-0.7-0.8-1.1-1.1c-0.4-0.3-0.8-0.5-1.3-0.6
				c-0.5-0.1-1,0.1-1.7,0.7c0.5,0.9,0.8,1.8,1.1,2.6c0.3,0.8,0.6,1.7,1.1,2.6c3.8,0,6-1.6,6.4-4.8c0.4,0.3,0.8,0.6,1.2,0.7
				C402.6,313.1,403,313.3,403.6,313.6z M395.8,333.9c0-0.4,0-0.6,0.1-0.8c0.1-0.2,0.1-0.5,0.1-0.8c-0.1-0.9-0.4-1.7-0.8-2.4
				c0-0.2-0.3-0.2-0.7-0.2c-0.5,0-0.7,0.2-0.6,0.3c-0.1,0.4-0.3,0.9-0.4,1.4c-0.1,0.6-0.1,1.1,0.2,1.6
				C393.8,333.4,394.5,333.7,395.8,333.9z M408.4,299.1c0.8-2.5,1.6-4.9,2.4-7.2c0.8-2.4,1.5-4.9,2.1-7.5c0.1-0.4,0.1-0.8-0.1-1.4
				c-0.2-0.5-0.6-0.9-1-1.3l-0.8,0.1c-0.5,0.1-0.8,0.3-0.8,0.6c-0.5,1.9-1,3.7-1.4,5.5c-0.4,1.8-0.8,3.6-1.4,5.5
				c-1.5,0.1-2.5-0.1-3.2-0.8c-0.7-0.7-0.9-1.7-0.5-3.2c0.4-1.9-0.1-2.8-1.4-2.9c-0.3,0.8-0.6,1.4-0.9,2c-0.3,0.6-0.6,1.3-0.9,2
				c-0.3,0.9-0.6,1.8-1,2.7c-0.4,0.9-0.7,1.8-1,2.7c-0.1,0.7-0.1,1.5,0.1,2.2c0.2,0.7,0.3,1.5,0.4,2.4c1.5,0.6,2.5,0.3,3.1-0.9
				c0.5-1.2,1.3-2.1,2.3-3c0.4,0.7,0.8,1.3,1,2c0.2,0.6,0.6,1.4,1.1,2.2c0.3-0.4,0.7-0.7,1-0.9C408,299.8,408.3,299.5,408.4,299.1z
				 M404.7,279.2c-0.1,0.4-0.2,0.7,0,1.1c0.1,0.4,0.2,0.7,0.2,1.1c0.2,0,0.3,0,0.4,0.1c0.1,0.1,0.2,0.1,0.4,0.1
				c0.1-0.6,0.4-1,0.7-1.3c0.3-0.3,0.7-0.6,1.2-0.8c0.4-0.2,0.8-0.5,1-0.9c0.2-0.4,0.2-1-0.1-1.9c-0.2-0.5-0.2-1.2,0.2-2.1
				c0.4-0.9,0.7-1.5,1-1.9c1.6-0.7,2.2-1.6,1.8-2.8c-0.4-1.1-0.4-2.2,0.1-3.2c0.1-0.4,0.1-0.7-0.2-1.1c-0.3-0.3-0.6-0.7-0.8-1
				l-1.5,1.8c-0.1,0.4-0.2,0.8-0.3,1.4c0,0.6-0.2,1-0.5,1.4c-0.7,1.7-1.4,3.4-2,5C405.8,275.8,405.3,277.5,404.7,279.2z
				 M386.4,420.5l3.5-0.1l-0.4-1.6c-0.7,0.4-1.3,0.7-1.7,0.7c-0.5,0-1,0.3-1.7,0.7L386.4,420.5z M408.3,318.9
				c0.6-0.8,1.2-1.5,1.7-2.2c0.5-0.7,1-1.5,1.7-2.5l-0.9-0.7c-0.4-0.3-0.8-0.3-1.1,0.1c-0.5,0.6-1,1.2-1.5,1.7
				c-0.5,0.5-1,1.1-1.5,1.7c-0.3,0.8-0.2,1.3,0.2,1.6c0.2,0.3,0.5,0.5,0.9,0.6C408.1,319.1,408.3,319.1,408.3,318.9z M412.5,308.8
				c2-0.4,2.6-1.6,1.8-3.8c-0.7,0.3-1.5,0.5-2.3,0.6c-0.8,0.2-1.7,0.5-2.8,1c0,0.4,0,0.8,0,1.4c0,0.6-0.1,1.3-0.2,2.2
				c0.7-0.4,1.3-0.8,1.8-1C411.4,309.1,411.9,308.9,412.5,308.8z M416.7,288.9c-0.2-0.2-0.3-0.2-0.4-0.2c-0.1,0-0.2-0.1-0.4-0.2
				c-0.5,0.8-0.9,1.5-1.4,2.2c-0.5,0.7-0.8,1.5-1.1,2.4c0,0.2,0.2,0.4,0.5,0.6c0.3,0.2,0.6,0.5,0.8,0.9c0.3-0.4,0.7-0.7,1-0.8
				c0.4-0.1,0.6-0.4,0.7-0.8L416.7,288.9z M415.7,287.4c1.6-0.2,3-1.5,4.1-4.1c1.1-2.6,1.4-4.9,0.8-6.8c-0.9,2.1-1.7,4-2.4,5.6
				C417.4,283.7,416.6,285.5,415.7,287.4z M421.6,272.2c2.2-1.7,3.3-2.8,3.4-3.2c0-0.5-0.7-1.2-2.3-2.1c-0.3,0.9-0.5,1.8-0.5,2.7
				C422,270.4,421.8,271.3,421.6,272.2z"/>
		</g>
		<g>
			<path class="st0" d="M582.1,184.3c0.9-0.5,1.1-1.2,0.6-2.2c-0.5-1-1.2-1.3-2-0.9c-0.8,0.4-1,1.2-0.6,2.2c1,2,0.7,3.4-1,4.3
				c-1.8,0.8-3.2,0.3-4.2-1.7c-1-2-0.6-3.4,1.2-4.3l0.6,1.1c-1,0.5-1.2,1.4-0.6,2.6c0.6,1.2,1.4,1.6,2.3,1.1
				c0.9-0.5,1.1-1.3,0.5-2.6c-0.8-1.8-0.4-3.1,1.1-3.9c1.6-0.8,2.8-0.3,3.7,1.5c0.9,1.8,0.5,3.1-1.1,3.9L582.1,184.3z"/>
			<path class="st0" d="M587.8,193.5c-0.1-0.1-0.2-0.2-0.3-0.1l-7.7,3.2l-0.5-1.2l7.7-3.2c0.1-0.1,0.2-0.2,0.1-0.3l-0.9-2.3l1.2-0.5
				l2.6,6.2l-1.2,0.5L587.8,193.5z"/>
			<path class="st0" d="M587.2,207.3l6.2-2.1l0.4,1.2l-6.2,2.1c-0.9,0.3-1.7,0.2-2.5-0.2c-0.8-0.4-1.4-1.1-1.7-1.9
				c-0.3-0.9-0.2-1.7,0.2-2.5c0.4-0.8,1.1-1.4,1.9-1.7l6.2-2.1l0.4,1.2l-6.2,2.1c-0.5,0.2-0.9,0.5-1.2,1c-0.3,0.5-0.3,1-0.1,1.6
				c0.2,0.5,0.5,0.9,1,1.2C586.2,207.4,586.7,207.5,587.2,207.3z"/>
			<path class="st0" d="M586.6,217.3l-0.9-3.5l9.6-2.5l0.9,3.5c0.2,0.8,0.1,1.6-0.3,2.3c-0.4,0.7-1,1.2-1.8,1.4l-3.7,1
				c-0.8,0.2-1.6,0.1-2.3-0.3C587.3,218.7,586.8,218.1,586.6,217.3z M594.9,215.2l-0.6-2.1c0-0.1-0.1-0.1-0.2-0.1l-6.8,1.7
				c-0.1,0-0.1,0.1-0.1,0.2l0.6,2.1c0.1,0.5,0.4,0.8,0.8,1.1c0.4,0.2,0.8,0.3,1.3,0.2l3.7-1c0.5-0.1,0.8-0.4,1.1-0.8
				C595,216.1,595.1,215.6,594.9,215.2z"/>
			<path class="st0" d="M598.7,226.7l-9.7,1.8l-0.2-1.3l9.7-1.8L598.7,226.7z"/>
			<path class="st0" d="M593.5,235.1l3.2-0.4c0.9-0.1,1.7,0.1,2.5,0.7c0.7,0.6,1.1,1.3,1.2,2.2c0.1,0.9-0.1,1.7-0.7,2.5
				c-0.6,0.7-1.3,1.1-2.2,1.2l-3.2,0.4c-0.9,0.1-1.7-0.1-2.5-0.7c-0.7-0.6-1.1-1.3-1.2-2.2c-0.1-0.9,0.1-1.7,0.7-2.4
				C591.8,235.6,592.5,235.2,593.5,235.1z M596.8,236l-3.2,0.4c-0.6,0.1-1,0.3-1.4,0.8c-0.4,0.4-0.5,0.9-0.4,1.5
				c0.1,0.6,0.3,1,0.8,1.4c0.4,0.4,0.9,0.5,1.5,0.4l3.2-0.4c0.6-0.1,1-0.3,1.4-0.8c0.4-0.4,0.5-0.9,0.4-1.5c-0.1-0.6-0.3-1-0.8-1.4
				S597.4,235.9,596.8,236z"/>
			<path class="st0" d="M598.9,255.7c0.2-0.1,0.4-0.2,0.6-0.4c0.4-0.4,0.6-0.9,0.6-1.5c0-0.6-0.2-1-0.6-1.4
				c-0.4-0.4-0.9-0.6-1.5-0.6l-3.2,0c-0.6,0-1,0.2-1.4,0.6c-0.4,0.4-0.6,0.9-0.6,1.5c0,0.6,0.2,1.1,0.6,1.4c0.2,0.2,0.4,0.3,0.6,0.4
				l0,1.4c-0.5-0.1-1-0.4-1.5-0.8c-0.7-0.6-1-1.4-1-2.3c0-0.9,0.3-1.7,0.9-2.4c0.6-0.7,1.4-1,2.3-1l3.2,0c0.9,0,1.7,0.3,2.4,0.9
				c0.7,0.6,1,1.4,1,2.3c0,0.9-0.3,1.7-0.9,2.4c-0.4,0.4-0.9,0.7-1.4,0.9L598.9,255.7z"/>
			<path class="st0" d="M595.6,266c0-0.1-0.1-0.1-0.2-0.1l-4.3,2.3l0.1-1.5l4.4-2.3l0.1-1.2c0-0.1,0-0.1-0.1-0.1l-4.2-0.2l0.1-1.3
				l9.9,0.5l-0.2,3.5c0,0.8-0.3,1.4-0.9,1.9c-0.6,0.5-1.2,0.8-2,0.7c-0.8,0-1.4-0.3-1.9-0.9C595.9,266.9,595.7,266.4,595.6,266z
				 M598.2,266.9c0.4,0,0.8-0.1,1.1-0.4c0.3-0.3,0.5-0.6,0.5-1l0.1-2c0-0.1,0-0.1-0.1-0.1l-2.8-0.1c-0.1,0-0.1,0-0.1,0.1l-0.1,2
				c0,0.4,0.1,0.8,0.4,1.1C597.5,266.7,597.8,266.9,598.2,266.9z"/>
			<path class="st0" d="M598.4,280.3l0.6-5.2c0-0.1,0-0.2-0.1-0.2l-2.7-0.3c-0.1,0-0.2,0-0.2,0.1l-0.5,3.9l-1.3-0.2l0.5-3.9
				c0-0.1,0-0.2-0.1-0.2l-2.7-0.3c-0.1,0-0.2,0-0.2,0.1l-0.6,5.2l-1.3-0.2l0.8-6.6l9.8,1.2l-0.8,6.6L598.4,280.3z"/>
			<path class="st0" d="M589.2,283.6l9.2,4.6l-0.2,1.2l-10.2,0.7l0.2-1.2l1.4-0.1c0.1,0,0.2-0.1,0.3-0.2l0.5-2.8
				c0-0.1,0-0.2-0.2-0.3l-1.2-0.6L589.2,283.6z M591.7,286.3c-0.1,0-0.1,0-0.2,0c0,0-0.1,0.1-0.1,0.1l-0.4,2.1c0,0.1,0,0.1,0,0.1
				c0,0,0.1,0,0.1,0l3.9-0.3c0.1,0,0.2-0.1,0.2-0.1c0-0.1,0-0.2-0.1-0.2L591.7,286.3z"/>
			<path class="st0" d="M594.1,300.7c0-0.1,0-0.2-0.2-0.3l-8.1-2.2l0.3-1.2l8.1,2.2c0.2,0,0.3,0,0.3-0.2l0.6-2.4l1.2,0.3l-1.7,6.4
				l-1.2-0.3L594.1,300.7z"/>
			<path class="st0" d="M591.9,312l-9.3-3.2l0.4-1.2l9.3,3.2L591.9,312z"/>
			<path class="st0" d="M588.6,320.5l-6.6-0.8c-0.5-0.1-0.6,0.1-0.2,0.4l5.1,4.2l-0.5,1.2l-8-6.4l0.5-1.2l10.1,1.4L588.6,320.5z"/>
			<path class="st0" d="M578.5,327.1l2.9,1.5c0.8,0.4,1.4,1.1,1.6,1.9c0.3,0.9,0.2,1.7-0.2,2.5c-0.4,0.8-1.1,1.4-1.9,1.6
				c-0.9,0.3-1.7,0.2-2.5-0.2l-2.9-1.5c-0.8-0.4-1.4-1.1-1.6-2c-0.3-0.9-0.2-1.7,0.2-2.5c0.4-0.8,1.1-1.4,1.9-1.6
				C576.9,326.6,577.7,326.6,578.5,327.1z M580.8,329.7l-2.9-1.5c-0.5-0.3-1-0.3-1.6-0.1c-0.5,0.2-0.9,0.5-1.2,1
				c-0.3,0.5-0.3,1-0.1,1.6c0.2,0.5,0.5,0.9,1,1.2l2.9,1.5c0.5,0.3,1,0.3,1.6,0.1c0.5-0.2,0.9-0.5,1.2-1c0.3-0.5,0.3-1,0.1-1.6
				C581.6,330.3,581.3,329.9,580.8,329.7z"/>
		</g>
		<g>
			<path class="st1" d="M422.5,415.4c1.3-2.1,1.3-4.6,2-6.9c3.7-10.8,9.4-20.6,14.8-30.5c10.9-20,21.4-40.1,29-61.7
				c8.4-23.8,12.9-48.3,13.4-73.6c0.2-12.7,4.2-24,14.9-32c6.5-4.8,14.1-6.7,22-7.3c2.4-0.2,4.2,1,5.6,2.8c1.6,2,3.1,4,4.7,6
				c3.8,4.6,7.6,4.9,12.2,1c1.7-1.5,3.4-3,5.1-4.5c1.4-1.1,2.9-1.7,4.7-1.1c9.6,3.1,18.4,7.5,24.7,15.7c3.9,5,6.1,10.8,7.1,17.1
				c0.1,0.5-0.2,1.2,0.6,1.4c0,4.9,0,9.9,0,14.8c-0.6,0.1-0.5,0.7-0.6,1.1c-2.1,14.5-6.4,28.4-12.2,41.8
				c-19.5,45.2-50,81.5-89.7,110.3c-10.5,7.6-21.7,14.2-34.1,18.4c-3.2,1.1-6.4,1.7-9.7,2.6c-1.9,0-3.8,0-5.7,0
				c-3.8-1.6-6.8-3.9-8.1-8.1c-0.3-0.9,0-2.1-1-2.7C422.5,418.4,422.5,416.9,422.5,415.4z M504.5,350c0.7-0.2,1.4,1,2.2,0
				c0.6-0.7,0-1.2-0.2-1.8c-0.5-1.2,1.6-2.1,0.5-3.5c0.3,0,0.5-0.1,0.8-0.1c1,0,1.7,0.4,1.9,1.2c2.6-1.9,2.9-4.6,3.2-7.3
				c0.1-0.5,0.5-1.2-0.2-1.5c-0.6-0.2-1.1,0.2-1.4,0.7c-0.3,0.5-1.1,0.8-0.6,1.8c0.2,0.5-1,2.5-1.1,2.2c-1.5-2.1-1.1,0-1.7,0.5
				c-0.9,0.8-1,2.3-1.4,2.5C503.9,346.1,504.5,348.1,504.5,350c-1.5,1-0.6-1.5-1.7-1.2c-0.8,2.4-0.5,2.8,2,3.6
				C505.4,351.5,502.9,351.1,504.5,350z M552.6,293.3L552.6,293.3L552.6,293.3c0.1,0.1,0.3,0.3,0.5,0.5c-1.6,0.9-1.1,3.9-3.8,3.8
				c-0.7,0-0.4,0.7-0.5,1c-0.2,0.6,0.3,1.8-1,1.5c-0.8-0.2-1.2-1-1-2c0.2-1.4,0.6-2.4,1.9-2.9c-0.2-1.1-3-1-1.2-2.5
				c2.5-2.1,3.2-5.1,4.8-7.6c1.2-1.8,2.5-3.9,0.1-5.9c-0.3,0.2-0.5,0.5-0.8,0.7c-0.6,0.4-1.1,1.8-2,0.9c-1.1-1.2,0.4-1.5,1.1-1.8
				c0.7-0.3,1-0.8,0.7-1.6c-0.3-0.6-0.8-1.1-1.6-0.9c-1.8,0.6-3.4-0.4-5-0.8c-1-0.2-0.9-0.6-0.5-1.3c0.3-0.5,0.2-1.7,1.1-0.9
				c1.4,1.1,1.5-0.3,2.1-0.8c0.5-0.4,0.3-1.7,1.4-1.4c0.8,0.2,0.9,1.1,1.4,1.7c0.4,0.6-0.3,1.5,0.7,2c0.8-0.9,2.2-1.7,0-2.8
				c-0.6-0.3-0.8-1.3-1.2-1.9c-0.6-0.8-0.6-1.5-0.1-2.3c0.6-1.1,1.3-0.3,1.9-0.1c0.4,0.1,0.9,0.5,1.3,0c0.2-0.2,0.2-0.9,0-1
				c-3.5-1.5,0-2.3,0.1-3.4c0.4,0.5,0.5,0.9,0.5,1.4c-0.1,1.5,1.1,1.4,1.5,0.8c0.5-0.7-0.2-1.8-0.6-2.6c-0.2-0.4-0.5-0.8-0.6-1.3
				c-0.2-0.8-1-1.4-0.6-2.4c2.3-5.1,3-10.6,3.3-16.1c0-0.8,0-1.7-1.2-1.9c-0.6,1.7-0.4,3.5-1.9,5.5c-0.3-1.8-0.4-3,0-4.3
				c0.3-1.1,1-2.9-0.3-3.6c-2.8-1.6-3.6-3.7-2.3-6.9c-3.5,2.4-5.6,5.6-6.9,9.4c-0.2,0.7-0.3,1.3,0.4,1.7c0.5,0.3,0.9,0.2,1.4-0.4
				c0.6-0.7,0.5-0.3,1.3,0.5c2.7,3,2.1,5.9,0.7,9.2c-0.7,1.6-0.5,3.5-0.8,5.3c-0.2,1.7-0.4,3.6-1.6,4.8c-1.9,1.7-2.1,4-2.4,6.2
				c-0.6,3.3-1.5,6.6-2.6,9.5c-1.2,3.2-1.8,7.5-5.5,9.6c-0.8,0.4-0.6,1.3-0.4,1.8c0.9,2.9-0.7,4.9-2.2,7c-2,2.7-4.2,5.4-6.3,8.1
				c-0.8,1-1.9,2.3-1.4,3.3c0.7,1.7-0.2,2.7-0.8,3.8c-2.1,4.4-4.6,8.7-6.4,13.3c-0.2,0.5-1,1.1-0.1,1.6c0.7,0.4,1.5,0.5,2.2,0.7
				c0-0.9,1.8-0.5,1.3-1.8c-0.2-0.5-0.7-1.2,0.3-1.2c0.4,0,0.8,0.7,1.4,1.1c0.2-0.7,0.3-1.3,0.4-1.8c0.3-1.8,0.9-3.5,1.9-5
				c0.7-1.2,2.9,0.4,3.4-1.7c0-0.1,1.3,0,0.8,0.7c-1.2,1.8,2.8,4.3-0.9,5.8c-0.2,0.1,1,1.9,0.7,3.1c-0.4,1.7-1.9-1-2.6,0.7
				c-0.9,2.6-4.5,4.6-1.2,8.2c-3.4-1.5-4.1-1-3.8,2.2c0.2,1.9-0.8,2.8-2.1,2.3c-1.1-0.4-1.5-0.3-1.5,0.6c0.2,2.4-2.2,3.7-2.2,5.9
				c0,1.7-1.1,1.9-2.4,1.9c-0.7,0-1.6,0-1.7,1.1c2.1,0.2,1.8,1.9,2.3,3.3c0.3,0.8,0.1,2.6,2,0.8c0.8-0.8,2.3-2.2,3.2-2.3
				c3.7-0.3,2.9-3.8,4.1-5.6c0.8-1.2,0.9-3.5,1.1-5.8c2,3.3,3.3,0.9,5.3,0.3c-1-0.6-2,0.7-2.3-0.7c-0.4-2.2,1.5-3.3,2.6-4.8
				c0.2,0.6,0,1.1,0,1.6c0,0.9,0,2.4,1.3,1.7c1.1-0.6,0.5-2.3,0.3-3.4c-0.5-2.5,0.6-3.8,3-3.3c0.9,0.2,1.1-0.3,1.2-0.8
				c0.5-4.2,3.1-7.4,5.4-10.6c-0.7-0.7-2.3-0.1-2.7-1.6c1.1,0,2.1,0.1,3,0.7c0.9,0.6,1.2-0.4,1.5-0.7c0.5-0.5,0.3-1.1-0.4-1.2
				c-0.5-0.1-0.9-0.2-0.7-0.8c0.1-0.4,0.6-0.4,0.9-0.4c1.1,0,2.7,0.1,2.8-1.3c0.2-2.7,2-4.6,3.1-6.8c0.9-1.9,1.2-3.4-1.7-4.2
				c1.4-0.7,2-2.6,3.5-0.8c0.3,0.4,0.7,0.6,1.1,0c1.4-2,2.9-4,4.1-6.1c0.5-0.7,1-2.2,0.2-2.6c-2.3-1.1-0.5-2.1-0.1-3
				c0.8-1.6,3.1-3.1,0.2-4.9c-0.2-0.1,0.2-0.9-0.5-1.1c-0.9,2-0.9,4.1-1,6.2C554.1,292.3,553.8,293.1,552.6,293.3z M483.4,374.5
				c2.3,1.3,3.6-1.3,5.7-1.1c-0.4,2-2.2,2.4-3.5,3.3c-0.9,0.7-1.9,1.2-1.8,2.6c0.1,0.9,2.1,1,1,2c-0.8,0.7-1.8-0.5-2.8-0.6
				c-0.6,0-1.1-0.1-1.7,0c-0.9,0.2-2.5-0.2-1.1,1.8c0.7,0.9-0.4,1.8-1.3,2c-0.7,0.2-1.8-1-1.5-1.3c1.2-1.4,0.9-4,3.4-4.3
				c1.9-0.2,2.6-1,3.5-4.3c-2.6,3.3-5.6,4-9.1,4c1,1,1.6,1.7,2.1,2.3c-1.1,1.1-4,1.8-3.3,2.7c1.7,2.2-0.6,3.1-0.8,4.5
				c-0.2,0.9,0.5,2.2-1.1,2.8c-3.7,1.4-6.2,3.8-6.7,8c-0.2,2-1.1,4-1.7,6c-0.4,1.2,0.2,2.2,0.9,2.8c0.7,0.6,1.1-1,1.2-0.9
				c1.9,0.4,3.1-2.4,4.4-1.6c2.9,1.7,3.5-0.6,4.5-2.1c3.3-5.2,4.8-11.3,7.9-16.6c0.4-0.7,0.2-1.5,1.2-2.2c0.8-0.6,3.6,0.8,2.4-2.1
				c0.2,0,0.3-0.1,0.5-0.1c1.6-0.2,2.8-1.3,4.2-1.9c0.7-0.3,2.1-0.1,1.7-1.4c-0.5-1.6,0.7-0.9,1.2-1.3c1.6-1.2,3.3-2.5,4.5-4.2
				c0.4-0.6,0.4-2.9-2-2.4c-1.5,0.3-3,0.1-4.5,0.1c-0.2,0-0.4-0.3-0.8-0.6c0.9-0.2,1.5-0.3,2.1-0.4c-0.2-0.3-0.3-0.6-0.5-0.9
				C488.8,370.8,486.6,373.5,483.4,374.5z M519,332.5c-5.2-0.4-6.1,0.8-4.4,4.9c0.1,0.3,0.1,0.4-0.1,0.7c-1.1,1.1-0.2,2.1,0.1,3.3
				C515.2,338.1,517.3,335.6,519,332.5z M491.8,363.8c1.5,1.7,2.4,2.3,3.9,0c1.2-1.9,1.3-3.8,1.4-5.2
				C495.2,359.7,494.9,363.1,491.8,363.8z M511.5,352.2c-0.4,1.8-1.9,2.6-2.9,3.9c-0.2,0.3-1.4-0.2-0.6,0.7c0.2,0.3,1.2,1.1,1.5,0.4
				c1.4-3,1.6,0.2,2.5,0.5C512.8,355.9,513.2,354.1,511.5,352.2z M505.5,364.4c0.7-1.5-0.6-2.1-1.3-3c-0.5,0.7-0.9,1.3-1.4,2
				c1.1,0.5,0.7,2.6,2.3,2.4C505.7,365.8,506.4,365.2,505.5,364.4z M499.4,365.7c-0.6,0.5-1.8,1-1.7,1.9c0.1,0.7,0.1,2.2,1.2,2.2
				c1.1,0.1,0.6-1.9,1.9-2C500.3,367.1,500.5,366.1,499.4,365.7z M520.8,329.3c-4.3-1.4-4.3-1.4-4.9,1.3
				C517.3,329.5,519,330.5,520.8,329.3z"/>
			<path class="st2" d="M538,131.5c3.9,0.7,5.1,3.8,6.1,7.1c3.7,11.8,4.3,23.8,2.2,35.9c-1.1,6.1,0.8,10.9,5.7,14.7
				c5.7,4.4,11.9,8.2,16.1,14.2c1.4,2,2.8,4,4.1,6.1c0.6,1,1.7,2.3,0.6,3.3c-1,0.8-2.1-0.4-3-1c-4.7-3.3-9.8-5.6-15-7.8
				c-5-2-9-1-12.8,2.4c-1.4,1.3-2.8,2.6-4.2,3.8c-1.7,1.6-3.4,1.4-4.9-0.4c-0.9-1.2-1.9-2.4-2.7-3.6c-4.2-6.8-10.2-8.4-17.7-6.7
				c-3.9,0.9-7.6,2.1-11.3,3.6c-0.7,0.3-1.7,1.1-2.3,0.2c-0.6-0.8,0.3-1.6,0.8-2.2c4.8-5.5,10.5-10.1,17.7-11.6
				c14.7-3.2,19.5-12.8,21.1-27.8c0.9-8.7-1.1-17.1-4-25.3c-0.8-2.4-0.6-3.8,1.7-4.8C536.8,131.5,537.4,131.5,538,131.5z"/>
			<polygon class="st3" points="552.5,293.2 552.6,293.2 552.6,293.3 			"/>
			<path class="st4" d="M549.2,276.3c-0.1,1.1-0.1,1.7-0.8,1.9c-0.2,0-0.6-0.2-0.6-0.3C547.8,277.2,548.3,276.9,549.2,276.3z"/>
		</g>
	</g>
	<g>
		<g>
			<path d="M303.2,482.8c0.6-0.1,1.7-0.2,2.7-0.2c1.5,0,2.4,0.3,3.2,0.8c0.6,0.4,1,1.1,1,2c0,1.1-0.7,2.1-1.9,2.5v0
				c1.1,0.3,2.4,1.2,2.4,2.9c0,1-0.4,1.7-1,2.3c-0.8,0.7-2.1,1.1-4,1.1c-1,0-1.8-0.1-2.3-0.1V482.8z M304.7,487.5h1.3
				c1.6,0,2.5-0.8,2.5-1.9c0-1.3-1-1.9-2.5-1.9c-0.7,0-1.1,0.1-1.3,0.1V487.5z M304.7,493c0.3,0.1,0.7,0.1,1.2,0.1
				c1.5,0,2.9-0.6,2.9-2.2c0-1.6-1.3-2.2-3-2.2h-1.2V493z"/>
			<path d="M314.7,494.1v-4.9l-3.6-6.6h1.7l1.6,3.2c0.4,0.9,0.8,1.6,1.1,2.4h0c0.3-0.8,0.7-1.5,1.2-2.4l1.7-3.2h1.7l-3.9,6.6v4.9
				H314.7z"/>
		</g>
		<g>
			<g>
				<g>
					<polygon class="st0" points="330.6,481.5 333.5,481.5 338.2,493.8 335.4,493.8 					"/>
					<polygon class="st0" points="339.3,481.5 342.1,481.5 346.9,493.8 344,493.8 					"/>
					<polygon class="st0" points="326.7,493.8 330.6,481.5 333.5,481.5 329.6,493.8 					"/>
					<polygon class="st0" points="338.9,490.2 326,490.4 325.1,487.7 338,487.5 					"/>
					<polygon class="st0" points="335.4,493.8 339.3,481.5 342.1,481.5 338.2,493.8 					"/>
					<polygon class="st0" points="344,493.8 347.9,481.5 350.8,481.5 346.9,493.8 					"/>
				</g>
			</g>
			<g>
				<path class="st0" d="M354.5,490c0.1,1.1,1.2,1.5,2.4,1.5c1,0,2.3-0.3,2.3-1.5c0-1.3-1.4-1.5-2.6-1.6c-2.1-0.2-4.3-0.9-4.3-3.4
					c0-2.6,2.1-3.7,4.5-3.7c2.2,0,4.5,0.9,4.5,3.6h-2.4c-0.1-1-1.1-1.4-2.1-1.4c-1,0-2,0.5-2,1.4c0,1,1,1.3,2.3,1.4
					c2.5,0.2,4.6,0.8,4.6,3.5c0,2.8-2.4,3.6-4.7,3.7c-2.4,0-4.8-1.2-4.8-3.7H354.5z"/>
				<path class="st0" d="M369.3,493.8c-3.2,0-6.1-2.1-6.1-6.2c0-4,2.9-6.1,6.1-6.1c3.1,0,6.1,2.1,6.1,6.1
					C375.4,491.3,372.9,493.8,369.3,493.8z M369.3,491.5c1.9,0,3.5-1.2,3.5-3.8c0-2.5-1.7-3.8-3.5-3.8c-1.9,0-3.5,1.3-3.5,3.8
					C365.8,490.2,367.4,491.5,369.3,491.5z"/>
				<path class="st0" d="M384.6,489.4h-4.4v4.4h-2.6v-12.3h7.5v2.3h-4.9v3.3h4.4V489.4z"/>
				<path class="st0" d="M386,483.8v-2.3h9.1v2.3h-3.3v10h-2.5v-10H386z"/>
				<path class="st0" d="M405,481.7l2.6,7.6h0.1l1-4.1l1.2-3.7h2.7l0.1,0l-0.1,0.4l-4.2,11.9H407l-2.4-6.6h-0.1l-2.4,6.6h-1.6
					l-4.2-11.9l-0.1-0.4l0.1,0h2.7l1.2,3.7l1.1,4h0.1l2.5-7.6H405z"/>
				<path class="st0" d="M415.9,491.8l-0.9,2h-2.7l-0.2,0l0.2-0.3l5.6-12h1.2l5.6,12l0.2,0.3l-0.2,0h-2.7l-1-2H415.9z M416.7,489.5
					h3.4l-1.7-4.1L416.7,489.5z"/>
				<path class="st0" d="M436.1,493.4l0.3,0.4l-0.3,0h-2.8l-2.5-4.1h-2.2v4.1H426v-12.3c1.8,0,3.5,0,5.3,0c2.8,0,4.3,2,4.3,4.2
					c0,1.6-0.8,2.9-2.2,3.6L436.1,493.4z M431.2,487.5c1.1,0,1.8-0.9,1.8-1.9c0-1-0.7-1.9-1.8-1.9h-2.6v3.8H431.2z"/>
				<path class="st0" d="M445.6,483.8h-4.9v2.5h4.6v2.3h-4.6v2.8l4.9,0v2.4l-7.5,0v-12.3h7.5V483.8z"/>
			</g>
			<g>
				<g>
					<path class="st0" d="M449.3,484c-0.7,0-1.2-0.6-1.2-1.2c0-0.7,0.6-1.2,1.2-1.2c0.7,0,1.2,0.6,1.2,1.2
						C450.5,483.4,450,484,449.3,484z M449.3,481.7c-0.6,0-1.1,0.5-1.1,1.1c0,0.6,0.5,1.1,1.1,1.1c0.6,0,1.1-0.5,1.1-1.1
						C450.4,482.1,449.9,481.7,449.3,481.7z"/>
				</g>
				<g>
					<path class="st0" d="M449.3,482.8H449v0.5h-0.2v-1.1h0.5c0.1,0,0.2,0,0.3,0.1c0.1,0.1,0.1,0.1,0.1,0.2c0,0.1,0,0.1-0.1,0.2
						c0,0.1-0.1,0.1-0.2,0.1l0.3,0.5h-0.2L449.3,482.8z M449,482.7h0.3c0.1,0,0.1,0,0.2,0c0,0,0.1-0.1,0.1-0.1c0-0.1,0-0.1-0.1-0.1
						c0,0-0.1,0-0.2,0H449V482.7z"/>
				</g>
			</g>
		</g>
	</g>
</g>
</svg>
